<!DOCTYPE svg PUBLIC "-//W3C//DTD SVG 20010904//EN" "http://www.w3.org/TR/2001/REC-SVG-20010904/DTD/svg10.dtd">
<svg version="1.0" xmlns="http://www.w3.org/2000/svg" width="336px" height="428px" viewBox="0 0 3360 4280" preserveAspectRatio="xMidYMid meet">
<g id="layer1" fill="#e89ea9" stroke="none">
 <path d="M1270 3225 c0 -8 7 -15 15 -15 8 0 15 7 15 15 0 8 -7 15 -15 15 -8 0 -15 -7 -15 -15z"/>
 <path d="M1350 3205 c0 -8 7 -15 15 -15 8 0 15 7 15 15 0 8 -7 15 -15 15 -8 0 -15 -7 -15 -15z"/>
 <path d="M1410 3185 c0 -8 9 -15 20 -15 11 0 20 7 20 15 0 8 -9 15 -20 15 -11 0 -20 -7 -20 -15z"/>
 <path d="M1470 3165 c0 -8 5 -15 10 -15 6 0 10 7 10 15 0 8 -4 15 -10 15 -5 0 -10 -7 -10 -15z"/>
 <path d="M1530 3145 c0 -8 5 -15 10 -15 6 0 10 7 10 15 0 8 -4 15 -10 15 -5 0 -10 -7 -10 -15z"/>
 <path d="M1340 3035 c0 -13 32 -66 36 -62 6 6 -23 67 -31 67 -3 0 -5 -2 -5 -5z"/>
 <path d="M1390 2944 c0 -5 7 -19 15 -30 8 -10 15 -14 15 -8 0 5 -7 19 -15 30 -8 10 -15 14 -15 8z"/>
 <path d="M2840 2005 c0 -8 7 -15 15 -15 8 0 15 7 15 15 0 8 -7 15 -15 15 -8 0 -15 -7 -15 -15z"/>
 <path d="M2840 1740 c0 -5 7 -10 15 -10 8 0 15 5 15 10 0 6 -7 10 -15 10 -8 0 -15 -4 -15 -10z"/>
 <path d="M3160 1645 c0 -8 7 -15 15 -15 8 0 15 7 15 15 0 8 -7 15 -15 15 -8 0 -15 -7 -15 -15z"/>
 </g>
<g id="layer2" fill="#97bc50" stroke="none">
 <path d="M1240 1835 c0 -16 62 -20 110 -6 24 7 24 7 -9 14 -58 12 -101 9 -101 -8z"/>
 <path d="M1630 1835 c0 -8 7 -15 15 -15 8 0 15 7 15 15 0 8 -7 15 -15 15 -8 0 -15 -7 -15 -15z"/>
 <path d="M1680 1835 c0 -8 5 -15 10 -15 6 0 10 7 10 15 0 8 -4 15 -10 15 -5 0 -10 -7 -10 -15z"/>
 <path d="M1810 1766 c0 -15 37 -32 48 -22 6 6 -27 35 -40 36 -5 0 -8 -6 -8 -14z"/>
 <path d="M2180 1730 c0 -11 8 -23 18 -26 37 -12 62 -28 62 -40 0 -18 33 -6 74 28 59 49 44 80 -17 34 -51 -37 -62 -37 -86 -5 -25 34 -51 38 -51 9z"/>
 <path d="M1900 1704 c0 -3 9 -17 20 -31 11 -14 20 -36 20 -49 0 -15 6 -24 15 -24 21 0 19 10 -11 64 -22 40 -44 60 -44 40z"/>
 <path d="M2150 1675 c-7 -8 -9 -23 -5 -32 6 -16 8 -16 16 5 4 12 13 22 19 22 5 0 10 5 10 10 0 15 -26 12 -40 -5z"/>
 <path d="M2823 1598 c-13 -20 -33 -81 -33 -100 0 -13 8 -18 25 -18 14 0 25 -4 25 -10 0 -5 23 -10 50 -10 28 0 50 -4 50 -10 0 -5 22 -10 49 -10 27 0 51 -4 53 -9 2 -5 30 -11 63 -13 l60 -3 0 29 c0 29 -5 32 -160 97 -88 37 -163 68 -167 68 -4 1 -10 -5 -15 -11z"/>
 </g>
<g id="layer3" fill="#e29c5a" stroke="none">
 <path d="M2846 1788 c-3 -57 -8 -122 -12 -145 -6 -39 -4 -43 15 -43 12 0 29 -9 38 -20 12 -13 24 -18 40 -14 17 5 23 2 23 -10 0 -12 9 -16 34 -16 24 0 39 -7 50 -21 8 -12 18 -19 23 -16 5 3 31 -5 58 -19 27 -13 53 -20 57 -16 4 4 10 32 14 62 l6 55 -155 153 c-86 83 -162 152 -170 152 -12 0 -16 -22 -21 -102z"/>
 </g>
<g id="layer4" fill="#da6a73" stroke="none">
 <path d="M1273 3198 c2 -7 10 -13 17 -13 7 0 15 6 18 13 2 7 -5 12 -18 12 -13 0 -20 -5 -17 -12z"/>
 <path d="M1290 3151 c0 -5 7 -14 15 -21 13 -10 15 -9 15 9 0 12 -6 21 -15 21 -8 0 -15 -4 -15 -9z"/>
 <path d="M1460 3131 c0 -5 7 -14 15 -21 18 -15 42 1 31 19 -8 13 -46 15 -46 2z"/>
 <path d="M1530 3125 c0 -8 5 -15 10 -15 6 0 10 7 10 15 0 8 -4 15 -10 15 -5 0 -10 -7 -10 -15z"/>
 <path d="M1551 3101 c-26 -20 -20 -46 8 -37 12 5 11 2 -3 -9 -24 -18 -12 -34 13 -18 10 7 27 10 37 7 11 -2 30 5 44 15 24 19 24 20 6 40 -24 26 -73 27 -105 2z"/>
 <path d="M1566 2996 c-20 -31 -20 -36 -2 -36 7 0 16 12 19 28 7 36 3 38 -17 8z"/>
 <path d="M1550 2900 c0 -5 7 -10 15 -10 8 0 15 5 15 10 0 6 -7 10 -15 10 -8 0 -15 -4 -15 -10z"/>
 <path d="M1430 2894 c0 -5 7 -19 15 -30 8 -10 15 -14 15 -8 0 5 -7 19 -15 30 -8 10 -15 14 -15 8z"/>
 <path d="M1557 2853 c-14 -13 -6 -33 13 -33 13 0 20 7 20 20 0 19 -20 27 -33 13z"/>
 <path d="M1580 2794 c0 -9 5 -14 12 -12 18 6 21 28 4 28 -9 0 -16 -7 -16 -16z"/>
 <path d="M1620 2740 c0 -6 7 -13 15 -16 12 -5 12 -8 0 -20 -7 -8 -25 -18 -39 -24 -27 -10 -33 -24 -16 -35 11 -7 66 28 87 55 23 28 16 50 -17 50 -16 0 -30 -5 -30 -10z"/>
 <path d="M1550 2706 c0 -9 7 -16 16 -16 9 0 14 5 12 12 -6 18 -28 21 -28 4z"/>
 <path d="M2833 2134 c-3 -8 0 -25 6 -37 6 -12 11 -31 10 -42 -1 -11 -1 -53 -1 -93 l2 -72 67 -63 c37 -34 109 -104 161 -155 66 -65 97 -91 105 -83 7 7 6 15 -3 26 -7 9 -10 28 -7 48 3 20 0 40 -9 52 -8 10 -14 24 -14 31 0 13 -11 29 -113 171 -163 227 -189 255 -204 217z"/>
 </g>
<g id="layer5" fill="#dd7b91" stroke="none">
 <path d="M1800 3862 c0 -9 44 -32 60 -32 19 0 10 17 -15 28 -31 14 -45 15 -45 4z"/>
 <path d="M1266 3221 c-4 -6 -3 -18 3 -28 5 -10 15 -34 24 -53 26 -61 87 -183 117 -235 16 -27 33 -57 37 -65 30 -57 118 -180 128 -180 8 0 16 -6 18 -12 4 -9 11 -7 24 8 10 12 26 24 37 28 12 4 17 13 13 26 -3 13 0 20 9 20 22 0 17 11 -25 55 -82 84 -97 161 -47 234 14 20 26 44 26 53 0 33 -50 64 -172 105 -144 49 -184 58 -192 44z"/>
 <path d="M2830 2090 c0 -5 7 -10 15 -10 8 0 15 5 15 10 0 6 -7 10 -15 10 -8 0 -15 -4 -15 -10z"/>
 <path d="M3160 1620 c0 -5 7 -10 15 -10 8 0 15 5 15 10 0 6 -7 10 -15 10 -8 0 -15 -4 -15 -10z"/>
 </g>
<g id="layer6" fill="#bc4c87" stroke="none">
 <path d="M1755 3533 c11 -64 53 -224 79 -300 20 -59 22 -73 10 -73 -8 0 -14 -7 -14 -16 0 -19 -14 -20 215 16 244 37 247 38 203 78 -129 116 -331 259 -438 311 -58 28 -62 27 -55 -16z"/>
 <path d="M2480 3290 c0 -5 7 -10 15 -10 8 0 15 5 15 10 0 6 -7 10 -15 10 -8 0 -15 -4 -15 -10z"/>
 <path d="M2430 3265 c0 -8 5 -15 10 -15 6 0 10 7 10 15 0 8 -4 15 -10 15 -5 0 -10 -7 -10 -15z"/>
 <path d="M2380 3245 c0 -8 5 -15 10 -15 6 0 10 7 10 15 0 8 -4 15 -10 15 -5 0 -10 -7 -10 -15z"/>
 <path d="M2310 3225 c0 -8 5 -15 10 -15 6 0 10 7 10 15 0 8 -4 15 -10 15 -5 0 -10 -7 -10 -15z"/>
 <path d="M2800 2418 c1 -40 6 -117 13 -170 12 -85 17 -100 43 -125 33 -32 122 -144 144 -183 8 -14 21 -32 28 -40 84 -101 112 -145 112 -180 0 -12 7 -20 16 -20 43 0 -37 235 -161 470 -131 251 -171 320 -182 320 -9 0 -13 -21 -13 -72z"/>
 <path d="M2840 2070 c0 -11 7 -20 15 -20 8 0 15 9 15 20 0 11 -7 20 -15 20 -8 0 -15 -9 -15 -20z"/>
 <path d="M3156 1665 c-11 -29 -7 -55 9 -55 16 0 20 36 6 58 -7 11 -10 10 -15 -3z"/>
 </g>
<g id="layer7" fill="#6bc298" stroke="none">
 <path d="M1825 1529 c-11 -4 -55 -8 -97 -8 -42 -1 -80 -5 -83 -11 -3 -5 -33 -10 -65 -10 -32 0 -62 -4 -65 -10 -3 -5 -26 -10 -50 -10 -24 0 -47 -4 -50 -10 -3 -5 -26 -10 -50 -10 -24 0 -47 -4 -50 -10 -3 -5 -21 -10 -39 -10 -17 0 -36 -4 -42 -9 -5 -5 -20 -11 -34 -13 -29 -4 -41 -38 -14 -38 17 0 67 -14 109 -31 11 -4 45 -13 75 -20 30 -7 73 -18 95 -25 22 -7 58 -15 80 -19 22 -3 69 -10 105 -16 36 -6 85 -14 110 -20 61 -12 224 -19 240 -9 10 6 8 19 -6 61 -11 34 -19 87 -20 144 l-1 90 -64 1 c-36 0 -73 -3 -84 -7z"/>
 <path d="M2750 1434 c-16 -30 -30 -59 -30 -66 0 -10 47 -12 212 -11 202 3 213 4 222 23 15 34 -18 60 -75 60 -26 0 -51 5 -54 10 -3 6 -25 10 -49 10 -23 0 -46 4 -51 9 -6 5 -40 11 -77 14 l-67 5 -31 -54z"/>
 <path d="M1100 1375 c0 -8 5 -15 10 -15 6 0 10 7 10 15 0 8 -4 15 -10 15 -5 0 -10 -7 -10 -15z"/>
 <path d="M1040 1355 c0 -8 5 -15 10 -15 6 0 10 7 10 15 0 8 -4 15 -10 15 -5 0 -10 -7 -10 -15z"/>
 <path d="M980 1335 c0 -8 5 -15 10 -15 6 0 10 7 10 15 0 8 -4 15 -10 15 -5 0 -10 -7 -10 -15z"/>
 <path d="M940 1315 c0 -8 5 -15 10 -15 6 0 10 7 10 15 0 8 -4 15 -10 15 -5 0 -10 -7 -10 -15z"/>
 <path d="M840 1275 c0 -8 5 -15 10 -15 6 0 10 7 10 15 0 8 -4 15 -10 15 -5 0 -10 -7 -10 -15z"/>
 </g>
<g id="layer8" fill="#f5bc77" stroke="none">
 <path d="M940 2760 c0 -43 166 -256 318 -407 105 -106 115 -113 152 -113 21 0 41 -4 44 -8 2 -4 33 -9 67 -10 35 -2 68 -7 75 -13 17 -14 29 -6 44 31 11 27 10 36 -14 81 -14 28 -26 55 -26 60 0 4 21 34 46 65 l47 57 -24 18 c-13 10 -29 19 -35 19 -20 0 -44 48 -44 85 0 28 -4 35 -19 35 -11 0 -23 5 -26 10 -3 6 -21 10 -40 10 -19 0 -37 5 -40 10 -3 6 -21 10 -40 10 -19 0 -37 5 -40 10 -3 6 -19 10 -34 10 -15 0 -31 4 -36 9 -10 9 -60 17 -180 27 -38 3 -74 10 -79 15 -6 5 -34 9 -63 9 -46 0 -53 -3 -53 -20z"/>
 <path d="M2852 1598 c6 -18 28 -21 28 -4 0 9 -7 16 -16 16 -9 0 -14 -5 -12 -12z"/>
 <path d="M3010 1540 c0 -5 7 -10 15 -10 8 0 15 5 15 10 0 6 -7 10 -15 10 -8 0 -15 -4 -15 -10z"/>
 </g>
<g id="layer9" fill="#e2dd70" stroke="none">
 <path d="M816 2273 c-4 -4 -28 -10 -54 -13 -26 -3 -47 -10 -47 -17 0 -19 182 -202 202 -204 5 0 35 -22 68 -50 56 -46 78 -62 179 -128 l38 -25 237 3 c143 1 240 7 246 13 7 7 2 15 -15 26 -14 10 -44 35 -68 56 -76 69 -91 125 -46 167 14 13 35 43 46 67 26 54 14 72 -48 72 -23 0 -45 4 -48 8 -2 4 -29 9 -60 10 -30 1 -78 7 -107 12 -59 11 -512 14 -523 3z"/>
 <path d="M2190 1787 c0 -12 17 -17 75 -22 41 -4 75 -11 75 -16 0 -15 42 -22 51 -8 16 26 10 47 -13 46 -13 0 -60 4 -105 8 -72 7 -83 6 -83 -8z"/>
 <path d="M2830 1681 c0 -6 5 -13 10 -16 15 -9 12 -25 -5 -25 -8 0 -15 -9 -15 -20 0 -14 11 -22 38 -29 20 -6 41 -11 46 -11 5 0 14 -7 21 -16 13 -18 55 -11 55 9 -1 19 -50 49 -71 44 -13 -4 -19 0 -19 11 -1 32 -60 84 -60 53z"/>
 <path d="M2992 1544 c2 -8 30 -26 63 -40 81 -35 95 -38 95 -25 0 10 -134 81 -153 81 -5 0 -7 -7 -5 -16z"/>
 </g>
<g id="layer10" fill="#71c6af" stroke="none">
 <path d="M1115 1390 c-3 -5 -17 -10 -30 -10 -13 0 -27 -4 -30 -10 -3 -5 -17 -10 -30 -10 -13 0 -27 -4 -30 -10 -3 -5 -15 -10 -26 -10 -10 0 -19 -4 -19 -10 0 -5 -9 -10 -19 -10 -22 0 -29 -3 -308 -144 -30 -15 -43 -27 -43 -42 0 -17 15 -27 83 -53 116 -45 303 -95 432 -116 l110 -18 90 45 c129 65 350 151 510 198 76 22 140 40 142 40 1 0 3 6 3 14 0 11 -18 14 -80 14 -44 1 -84 3 -88 6 -4 2 -52 12 -107 20 -55 9 -116 19 -135 22 -19 3 -53 11 -75 18 -22 7 -65 18 -95 25 -30 7 -64 16 -75 20 -79 31 -167 42 -180 21z"/>
 <path d="M1960 1340 c0 -5 7 -10 15 -10 8 0 15 5 15 10 0 6 -7 10 -15 10 -8 0 -15 -4 -15 -10z"/>
 </g>
<g id="layer11" fill="#f2b3a3" stroke="none">
 <path d="M1430 3755 c0 -8 7 -15 15 -15 8 0 15 7 15 15 0 8 -7 15 -15 15 -8 0 -15 -7 -15 -15z"/>
 <path d="M1250 3745 c0 -8 5 -15 10 -15 6 0 10 7 10 15 0 8 -4 15 -10 15 -5 0 -10 -7 -10 -15z"/>
 <path d="M716 3271 c-15 -24 101 -319 172 -438 l47 -78 48 4 c26 1 53 -2 60 -7 7 -5 44 -13 82 -16 121 -10 170 -18 180 -27 5 -5 21 -9 36 -9 15 0 31 -4 34 -10 3 -5 21 -10 40 -10 19 0 37 -4 40 -10 3 -5 21 -10 40 -10 19 0 36 -4 39 -9 7 -11 56 -21 56 -11 0 4 -28 50 -63 101 -35 52 -86 135 -114 184 -49 86 -133 271 -133 293 0 11 -107 36 -223 52 -97 12 -334 13 -341 1z"/>
 <path d="M1650 2515 c0 -8 7 -15 15 -15 8 0 15 7 15 15 0 8 -7 15 -15 15 -8 0 -15 -7 -15 -15z"/>
 <path d="M1580 2375 c0 -8 7 -15 15 -15 8 0 15 7 15 15 0 8 -7 15 -15 15 -8 0 -15 -7 -15 -15z"/>
 <path d="M1620 2301 c0 -12 6 -21 15 -21 8 0 15 4 15 9 0 5 -7 14 -15 21 -13 10 -15 9 -15 -9z"/>
 <path d="M1616 2234 c-8 -22 -8 -24 8 -24 12 0 26 20 26 36 0 12 -29 2 -34 -12z"/>
 <path d="M2840 1980 c0 -5 7 -10 15 -10 8 0 15 5 15 10 0 6 -7 10 -15 10 -8 0 -15 -4 -15 -10z"/>
 <path d="M2360 1775 c0 -8 5 -15 10 -15 6 0 10 7 10 15 0 8 -4 15 -10 15 -5 0 -10 -7 -10 -15z"/>
 <path d="M2840 1765 c0 -8 7 -15 15 -15 8 0 15 7 15 15 0 8 -7 15 -15 15 -8 0 -15 -7 -15 -15z"/>
 <path d="M3160 1670 c0 -5 7 -10 15 -10 8 0 15 5 15 10 0 6 -7 10 -15 10 -8 0 -15 -4 -15 -10z"/>
 </g>
<g id="layer12" fill="#42849d" stroke="none">
 <path d="M2754 1371 c-35 -5 -48 -14 -81 -56 -92 -116 -209 -190 -336 -214 -112 -20 -233 25 -294 111 -40 55 -32 54 -203 6 -173 -49 -310 -98 -466 -169 -209 -94 -208 -102 21 -119 334 -25 806 22 1155 114 171 45 224 61 315 91 227 77 206 65 245 139 53 99 51 101 -151 102 -90 1 -183 -2 -205 -5z"/>
 </g>
<g id="layer13" fill="#a3d69e" stroke="none">
 <path d="M1070 1825 c0 -8 7 -15 15 -15 8 0 15 7 15 15 0 8 -7 15 -15 15 -8 0 -15 -7 -15 -15z"/>
 <path d="M1720 1831 c0 -10 30 -24 37 -17 3 3 2 9 -2 15 -8 13 -35 15 -35 2z"/>
 <path d="M960 1805 c0 -8 5 -15 10 -15 6 0 10 7 10 15 0 8 -4 15 -10 15 -5 0 -10 -7 -10 -15z"/>
 <path d="M910 1795 c0 -8 5 -15 10 -15 6 0 10 7 10 15 0 8 -4 15 -10 15 -5 0 -10 -7 -10 -15z"/>
 <path d="M860 1785 c0 -8 5 -15 10 -15 6 0 10 7 10 15 0 8 -4 15 -10 15 -5 0 -10 -7 -10 -15z"/>
 <path d="M1780 1792 c0 -12 49 -37 57 -29 8 8 -26 36 -44 37 -7 0 -13 -4 -13 -8z"/>
 <path d="M2140 1775 c0 -8 7 -15 15 -15 8 0 15 7 15 15 0 8 -7 15 -15 15 -8 0 -15 -7 -15 -15z"/>
 <path d="M780 1765 c0 -8 5 -15 10 -15 6 0 10 7 10 15 0 8 -4 15 -10 15 -5 0 -10 -7 -10 -15z"/>
 <path d="M2170 1731 c0 -5 3 -17 6 -26 5 -13 8 -14 15 -3 13 20 11 38 -6 38 -8 0 -15 -4 -15 -9z"/>
 <path d="M575 1700 c-36 -8 -210 -91 -280 -134 -72 -44 -195 -135 -195 -145 0 -26 237 -188 374 -255 93 -46 95 -47 121 -30 55 36 218 119 300 154 11 4 40 17 65 27 37 16 145 52 208 69 23 6 13 34 -13 34 -14 0 -33 4 -43 9 -9 5 -28 13 -42 18 -14 6 -38 16 -55 23 -16 7 -41 17 -55 23 -14 5 -43 19 -65 30 -22 11 -47 24 -55 27 -79 36 -228 129 -232 146 -2 6 -15 8 -33 4z"/>
 <path d="M2220 1630 c0 -5 7 -10 15 -10 8 0 15 5 15 10 0 6 -7 10 -15 10 -8 0 -15 -4 -15 -10z"/>
 <path d="M2124 1619 c-3 -6 -2 -15 4 -21 6 -6 8 -17 5 -24 -3 -8 1 -14 11 -14 21 0 33 49 15 61 -19 12 -26 11 -35 -2z"/>
 <path d="M1950 1610 c0 -5 7 -10 15 -10 8 0 15 5 15 10 0 6 -7 10 -15 10 -8 0 -15 -4 -15 -10z"/>
 <path d="M1802 1531 c-11 -7 -10 -10 3 -15 23 -9 25 -8 25 9 0 17 -9 19 -28 6z"/>
 <path d="M1950 1440 c0 -38 4 -50 15 -50 11 0 15 12 15 50 0 38 -4 50 -15 50 -11 0 -15 -12 -15 -50z"/>
 </g>
<g id="layer14" fill="#9fd9e0" stroke="none">
 <path d="M1966 1515 c-11 -30 -7 -65 9 -65 17 0 21 46 6 68 -7 11 -10 10 -15 -3z"/>
 <path d="M2757 1473 c-4 -3 -7 -14 -7 -22 0 -9 -16 -40 -35 -68 -37 -55 -40 -63 -27 -63 9 0 92 135 92 150 0 11 -13 13 -23 3z"/>
 <path d="M3133 1373 c-16 -34 -16 -43 0 -43 13 0 37 40 37 60 0 21 -26 9 -37 -17z"/>
 <path d="M1960 1370 c0 -11 7 -20 15 -20 8 0 15 9 15 20 0 11 -7 20 -15 20 -8 0 -15 -9 -15 -20z"/>
 <path d="M1976 1308 c8 -26 35 -70 40 -65 9 9 -20 87 -33 87 -10 0 -12 -6 -7 -22z"/>
 <path d="M3086 1246 c-37 -67 -47 -96 -20 -61 23 29 66 116 61 122 -3 2 -21 -25 -41 -61z"/>
 <path d="M2603 1249 c-40 -37 -53 -60 -35 -59 12 1 92 77 92 89 0 19 -13 12 -57 -30z"/>
 <path d="M2022 1218 c6 -18 28 -21 28 -4 0 9 -7 16 -16 16 -9 0 -14 -5 -12 -12z"/>
 <path d="M390 1210 c0 -5 7 -10 15 -10 8 0 15 5 15 10 0 6 -7 10 -15 10 -8 0 -15 -4 -15 -10z"/>
 <path d="M2434 1140 c-22 -9 -59 -21 -82 -25 -27 -4 -42 -12 -42 -22 0 -11 8 -13 33 -8 62 12 147 47 147 61 0 17 -5 17 -56 -6z"/>
 <path d="M533 1138 c2 -7 -12 -24 -32 -37 -125 -84 -351 -298 -351 -333 0 -11 31 -31 93 -61 142 -69 185 -87 206 -87 11 0 23 -4 26 -10 3 -5 17 -10 30 -10 13 0 27 -4 30 -10 3 -5 18 -10 32 -10 15 0 41 -5 59 -12 31 -11 34 -10 96 46 92 85 241 193 362 266 58 35 106 69 106 75 0 8 -36 19 -97 29 -138 24 -341 81 -454 127 -105 43 -113 45 -106 27z"/>
 <path d="M3007 1124 c-25 -33 -11 -46 13 -14 11 14 20 28 20 33 0 14 -15 6 -33 -19z"/>
 <path d="M2130 1126 c0 -9 7 -16 16 -16 9 0 14 5 12 12 -6 18 -28 21 -28 4z"/>
 <path d="M2180 1105 c0 -8 6 -15 13 -15 6 0 22 -3 35 -6 16 -5 22 -2 22 9 0 8 -10 17 -22 21 -36 9 -48 7 -48 -9z"/>
 <path d="M2955 1059 c-4 -6 -5 -13 -2 -16 7 -7 27 6 27 18 0 12 -17 12 -25 -2z"/>
 <path d="M2875 970 c-16 -16 -25 -33 -22 -37 8 -7 67 45 67 59 0 16 -17 8 -45 -22z"/>
 <path d="M2790 885 c-13 -14 -20 -28 -17 -32 8 -7 57 35 57 49 0 15 -16 8 -40 -17z"/>
 <path d="M2685 789 c-4 -6 -5 -13 -2 -16 7 -7 27 6 27 18 0 12 -17 12 -25 -2z"/>
 <path d="M2630 745 c-7 -9 -10 -18 -7 -22 8 -7 37 15 37 28 0 14 -16 11 -30 -6z"/>
 <path d="M2510 654 c-41 -30 -103 -71 -137 -92 -60 -35 -76 -52 -51 -52 24 0 278 174 278 191 0 16 -14 9 -90 -47z"/>
 <path d="M575 490 c-42 -43 -41 -69 1 -29 27 25 48 58 42 65 -3 2 -22 -14 -43 -36z"/>
 <path d="M2238 484 c-24 -12 -38 -34 -23 -34 12 0 75 35 75 42 0 12 -22 9 -52 -8z"/>
 <path d="M2061 394 c-52 -25 -139 -61 -193 -81 -90 -34 -121 -53 -83 -53 39 0 395 155 395 171 0 16 -24 8 -119 -37z"/>
 <path d="M505 409 c-4 -6 -5 -13 -2 -16 7 -7 27 6 27 18 0 12 -17 12 -25 -2z"/>
 <path d="M411 276 c-61 -94 -78 -126 -68 -126 5 0 137 193 145 213 2 4 -1 7 -6 7 -6 0 -37 -42 -71 -94z"/>
 <path d="M1703 258 c-18 -6 -33 -17 -33 -26 0 -9 6 -12 16 -8 9 3 27 9 40 12 13 3 24 12 24 20 0 16 -3 16 -47 2z"/>
 <path d="M1600 215 c0 -16 9 -19 34 -9 25 9 19 24 -9 24 -16 0 -25 -6 -25 -15z"/>
 <path d="M1508 203 c-10 -2 -18 -11 -18 -20 0 -10 6 -13 16 -9 9 3 22 6 30 6 8 0 14 7 14 15 0 15 -9 17 -42 8z"/>
 <path d="M1440 175 c0 -8 7 -15 15 -15 8 0 15 7 15 15 0 8 -7 15 -15 15 -8 0 -15 -7 -15 -15z"/>
 <path d="M1400 165 c0 -8 5 -15 10 -15 6 0 10 7 10 15 0 8 -4 15 -10 15 -5 0 -10 -7 -10 -15z"/>
 <path d="M1350 155 c0 -8 7 -15 15 -15 8 0 15 7 15 15 0 8 -7 15 -15 15 -8 0 -15 -7 -15 -15z"/>
 <path d="M1300 145 c0 -8 7 -15 15 -15 8 0 15 7 15 15 0 8 -7 15 -15 15 -8 0 -15 -7 -15 -15z"/>
 <path d="M1230 135 c0 -9 9 -15 25 -15 16 0 25 6 25 15 0 9 -9 15 -25 15 -16 0 -25 -6 -25 -15z"/>
 <path d="M370 125 c0 -8 7 -15 15 -15 8 0 15 7 15 15 0 8 -7 15 -15 15 -8 0 -15 -7 -15 -15z"/>
 <path d="M1160 125 c0 -8 9 -15 20 -15 11 0 20 7 20 15 0 8 -9 15 -20 15 -11 0 -20 -7 -20 -15z"/>
 <path d="M430 115 c0 -10 11 -15 35 -15 24 0 35 5 35 15 0 10 -11 15 -35 15 -24 0 -35 -5 -35 -15z"/>
 <path d="M1070 115 c0 -10 10 -15 30 -15 20 0 30 5 30 15 0 10 -10 15 -30 15 -20 0 -30 -5 -30 -15z"/>
 <path d="M550 105 c0 -10 10 -15 30 -15 20 0 30 5 30 15 0 10 -10 15 -30 15 -20 0 -30 -5 -30 -15z"/>
 <path d="M950 105 c0 -10 11 -15 35 -15 24 0 35 5 35 15 0 10 -11 15 -35 15 -24 0 -35 -5 -35 -15z"/>
 <path d="M690 95 c0 -12 17 -15 95 -15 78 0 95 3 95 15 0 12 -17 15 -95 15 -78 0 -95 -3 -95 -15z"/>
 </g>
<g id="layer15" fill="#cb6198" stroke="none">
 <path d="M1723 3783 c4 -65 10 -135 13 -156 l7 -37 -74 33 c-115 52 -197 80 -214 73 -12 -4 -15 -14 -10 -43 43 -261 124 -517 176 -553 33 -24 55 -25 105 -3 22 9 50 17 63 19 22 3 91 31 91 38 0 1 -11 36 -25 77 -50 144 -78 269 -65 285 7 7 16 14 20 14 4 0 53 -29 109 -65 123 -78 261 -185 261 -202 0 -7 8 -13 18 -13 10 0 21 -3 25 -6 11 -11 -5 -34 -24 -34 -10 0 -19 -4 -19 -9 0 -15 33 -22 41 -9 4 7 24 11 44 10 21 -2 43 2 50 8 7 6 24 12 37 14 25 3 53 12 80 27 10 5 24 9 31 9 16 0 47 31 47 47 0 17 -209 225 -310 308 -111 92 -251 185 -366 244 -121 62 -118 64 -111 -76z"/>
 <path d="M2120 3245 c0 -8 5 -15 10 -15 6 0 10 7 10 15 0 8 -4 15 -10 15 -5 0 -10 -7 -10 -15z"/>
 <path d="M2085 3189 c-6 -19 0 -38 9 -28 10 12 16 49 7 49 -5 0 -13 -9 -16 -21z"/>
 <path d="M2020 3181 c0 -14 5 -18 20 -14 11 3 20 12 20 19 0 8 -9 14 -20 14 -13 0 -20 -7 -20 -19z"/>
 <path d="M1896 3164 c-9 -22 -8 -24 9 -18 8 4 15 12 15 20 0 19 -16 18 -24 -2z"/>
 <path d="M1940 3155 c0 -8 5 -15 10 -15 6 0 10 7 10 15 0 8 -4 15 -10 15 -5 0 -10 -7 -10 -15z"/>
 <path d="M2790 2475 c0 -23 5 -35 14 -35 9 0 12 -7 9 -20 -6 -21 11 -27 36 -11 10 7 11 13 2 30 -7 11 -16 21 -21 21 -6 0 -10 11 -10 25 0 16 -6 25 -15 25 -10 0 -15 -11 -15 -35z"/>
 <path d="M2832 2388 c-18 -18 -15 -58 4 -58 10 0 14 6 11 14 -4 10 0 12 14 9 22 -6 24 5 5 30 -16 20 -18 21 -34 5z"/>
 <path d="M2877 2312 c-23 -25 -21 -42 2 -42 11 0 23 -4 26 -10 3 -6 -1 -7 -9 -4 -19 7 -22 -16 -4 -34 17 -17 31 -15 25 2 -4 10 -1 13 9 9 16 -6 19 17 5 33 -5 5 -11 20 -13 33 -4 31 -20 36 -41 13z"/>
 <path d="M2800 2310 c0 -6 6 -13 14 -16 11 -4 12 -13 5 -37 -11 -40 -12 -37 5 -37 9 0 12 -7 9 -21 -5 -17 -2 -20 13 -17 23 4 30 33 15 62 -6 11 -15 33 -21 49 -9 26 -40 39 -40 17z"/>
 <path d="M2920 2181 c-16 -30 -12 -36 10 -16 21 19 26 35 10 35 -5 0 -14 -9 -20 -19z"/>
 <path d="M2970 2188 c0 -10 -7 -18 -15 -18 -21 0 -19 -16 7 -40 26 -24 53 -27 44 -4 -3 9 -6 21 -6 28 0 7 -7 21 -15 32 -13 17 -14 17 -15 2z"/>
 <path d="M2900 2075 c0 -8 5 -15 10 -15 6 0 10 7 10 15 0 8 -4 15 -10 15 -5 0 -10 -7 -10 -15z"/>
 <path d="M3010 2078 c0 -32 14 -59 26 -54 10 4 12 -2 7 -26 -4 -22 -2 -33 10 -40 10 -5 17 -18 17 -28 0 -11 7 -20 15 -20 17 0 20 16 5 25 -5 3 -7 12 -3 20 3 8 0 15 -6 15 -6 0 -11 13 -11 29 0 16 -7 36 -15 45 -8 8 -15 22 -15 30 0 9 -7 16 -15 16 -8 0 -15 -6 -15 -12z"/>
 <path d="M2973 2013 c-17 -6 -16 -30 1 -36 16 -6 36 11 36 30 0 13 -15 16 -37 6z"/>
 <path d="M3040 1891 c0 -15 49 -68 50 -54 0 7 7 10 15 7 11 -5 15 1 15 20 0 16 -6 26 -15 26 -8 0 -15 -5 -15 -11 0 -7 -10 -5 -25 5 -14 9 -25 12 -25 7z"/>
 <path d="M3106 1797 c9 -29 10 -30 29 -24 22 9 18 20 -11 34 -23 11 -24 10 -18 -10z"/>
 <path d="M3135 1749 c-4 -6 -4 -13 -1 -16 8 -8 36 5 36 17 0 13 -27 13 -35 -1z"/>
 </g>
<g id="layer16" fill="#97ce69" stroke="none">
 <path d="M1270 1849 c0 -6 -11 -8 -28 -4 -89 19 -662 -112 -662 -151 0 -13 81 -74 98 -74 5 0 15 -6 21 -14 7 -8 38 -26 69 -41 31 -15 75 -36 97 -48 58 -30 63 -32 150 -67 61 -24 81 -33 97 -41 24 -12 115 -11 123 1 3 6 24 10 45 10 21 0 42 5 45 10 3 6 24 10 45 10 21 0 42 5 45 10 3 6 26 10 50 10 24 0 47 5 50 10 3 6 33 10 65 10 32 0 62 5 65 10 3 6 42 10 85 10 43 0 81 4 84 8 3 5 37 10 76 10 39 1 75 4 81 7 12 8 12 72 -1 80 -6 4 -8 15 -5 26 4 12 -2 27 -19 44 -14 14 -26 30 -26 35 0 12 -55 50 -72 50 -8 0 -28 13 -44 30 -16 16 -34 30 -40 30 -6 0 -23 9 -37 20 -23 19 -40 20 -241 20 -148 0 -216 -3 -216 -11z"/>
 <path d="M2203 1737 c3 -7 -4 -19 -15 -26 -25 -16 -51 -77 -43 -102 7 -23 60 -27 72 -5 4 7 23 21 41 30 39 20 41 38 6 57 -14 7 -30 24 -35 36 -5 13 -14 23 -20 23 -6 0 -9 -6 -6 -13z"/>
 <path d="M2870 1585 c0 -8 5 -15 10 -15 6 0 10 7 10 15 0 8 -4 15 -10 15 -5 0 -10 -7 -10 -15z"/>
 <path d="M2800 1549 c0 -18 2 -19 15 -9 8 7 15 16 15 21 0 5 -7 9 -15 9 -9 0 -15 -9 -15 -21z"/>
 <path d="M2912 1558 c-14 -14 -16 -28 -3 -28 9 0 24 30 18 36 -2 2 -9 -2 -15 -8z"/>
 <path d="M2970 1545 c0 -8 5 -15 10 -15 6 0 10 7 10 15 0 8 -4 15 -10 15 -5 0 -10 -7 -10 -15z"/>
 <path d="M2784 1501 c-10 -11 -2 -30 15 -36 26 -8 71 4 71 20 0 12 -75 26 -86 16z"/>
 <path d="M2914 1469 c-10 -17 8 -28 39 -22 37 7 35 33 -2 33 -17 0 -33 -5 -37 -11z"/>
 <path d="M3150 1460 c0 -5 7 -10 15 -10 8 0 15 5 15 10 0 6 -7 10 -15 10 -8 0 -15 -4 -15 -10z"/>
 <path d="M3014 1449 c-3 -6 -2 -15 3 -20 12 -12 53 1 53 17 0 17 -46 19 -56 3z"/>
 <path d="M3127 1434 c-13 -13 -7 -24 14 -24 11 0 19 5 17 12 -5 14 -22 21 -31 12z"/>
 </g>
<g id="layer17" fill="#dd95bb" stroke="none">
 <path d="M1747 4193 c-4 -6 -12 -69 -19 -142 -10 -111 -15 -131 -28 -125 -75 30 -226 75 -243 72 -22 -3 -22 -6 -21 -145 0 -79 -1 -143 -2 -143 -2 0 -14 4 -29 10 -46 18 -235 51 -246 44 -26 -16 11 -262 68 -447 22 -75 30 -89 56 -102 17 -8 43 -15 58 -15 15 0 31 -4 34 -10 3 -5 19 -10 36 -10 16 0 29 -4 29 -10 0 -5 9 -10 19 -10 11 0 23 -4 26 -10 3 -5 14 -10 24 -10 10 0 32 -7 47 -15 32 -16 54 -19 54 -7 0 5 -11 37 -25 73 -41 103 -84 255 -105 373 -11 60 -18 111 -16 114 7 7 104 -28 195 -70 47 -21 88 -35 93 -30 5 5 4 49 -2 98 -13 116 -13 204 0 204 31 0 233 -120 355 -210 92 -68 293 -245 317 -279 7 -10 30 -37 52 -61 l39 -43 34 18 c40 22 143 130 143 150 0 39 -261 325 -410 450 -182 152 -508 328 -533 288z"/>
 <path d="M2460 3270 c0 -5 7 -10 15 -10 8 0 15 5 15 10 0 6 -7 10 -15 10 -8 0 -15 -4 -15 -10z"/>
 <path d="M2410 3250 c0 -5 7 -10 15 -10 8 0 15 5 15 10 0 6 -7 10 -15 10 -8 0 -15 -4 -15 -10z"/>
 <path d="M2310 3215 c0 -8 5 -15 10 -15 6 0 10 7 10 15 0 8 -4 15 -10 15 -5 0 -10 -7 -10 -15z"/>
 <path d="M2270 3205 c0 -8 5 -15 10 -15 6 0 10 7 10 15 0 8 -4 15 -10 15 -5 0 -10 -7 -10 -15z"/>
 <path d="M2230 3195 c0 -8 5 -15 10 -15 6 0 10 7 10 15 0 8 -4 15 -10 15 -5 0 -10 -7 -10 -15z"/>
 <path d="M2100 3175 c0 -8 9 -15 20 -15 11 0 20 7 20 15 0 8 -9 15 -20 15 -11 0 -20 -7 -20 -15z"/>
 <path d="M2040 3165 c0 -8 5 -15 10 -15 6 0 10 7 10 15 0 8 -4 15 -10 15 -5 0 -10 -7 -10 -15z"/>
 <path d="M1960 3155 c0 -8 9 -15 20 -15 11 0 20 7 20 15 0 8 -9 15 -20 15 -11 0 -20 -7 -20 -15z"/>
 <path d="M1900 3145 c0 -8 5 -15 10 -15 6 0 10 7 10 15 0 8 -4 15 -10 15 -5 0 -10 -7 -10 -15z"/>
 <path d="M1840 3135 c0 -8 5 -15 10 -15 6 0 10 7 10 15 0 8 -4 15 -10 15 -5 0 -10 -7 -10 -15z"/>
 <path d="M1790 3125 c0 -8 5 -15 10 -15 6 0 10 7 10 15 0 8 -4 15 -10 15 -5 0 -10 -7 -10 -15z"/>
 <path d="M1703 3108 c-13 -6 -23 -15 -23 -21 0 -5 10 -7 23 -3 12 3 25 6 30 6 4 0 7 7 7 15 0 17 -6 18 -37 3z"/>
 <path d="M2810 2496 c0 -11 73 -137 77 -132 6 5 -54 123 -67 131 -5 3 -10 4 -10 1z"/>
 <path d="M2790 2395 c0 -24 5 -35 15 -35 10 0 15 11 15 35 0 24 -5 35 -15 35 -10 0 -15 -11 -15 -35z"/>
 <path d="M2910 2315 c0 -13 32 -66 36 -62 6 6 -23 67 -31 67 -3 0 -5 -2 -5 -5z"/>
 <path d="M2800 2275 c0 -8 7 -15 15 -15 8 0 15 7 15 15 0 8 -7 15 -15 15 -8 0 -15 -7 -15 -15z"/>
 <path d="M2810 2200 c0 -5 7 -10 15 -10 8 0 15 5 15 10 0 6 -7 10 -15 10 -8 0 -15 -4 -15 -10z"/>
 <path d="M2970 2205 c0 -13 82 -167 86 -162 6 5 -73 167 -81 167 -3 0 -5 -2 -5 -5z"/>
 <path d="M3060 2003 c0 -5 10 -19 21 -33 15 -18 19 -20 15 -7 -3 10 -6 25 -6 33 0 8 -7 14 -15 14 -8 0 -15 -3 -15 -7z"/>
 <path d="M3100 1919 c0 -30 25 -89 37 -89 14 0 13 11 -8 67 -9 24 -29 40 -29 22z"/>
 </g>
<g id="layer18" fill="#588eb5" stroke="none">
 <path d="M3020 1211 c-23 -14 -246 -87 -335 -111 -169 -45 -193 -51 -285 -70 -372 -76 -757 -104 -1044 -77 l-149 14 -85 -48 c-170 -99 -442 -306 -450 -343 -10 -46 522 -74 788 -41 417 50 846 187 1280 407 225 114 248 131 296 203 42 63 34 95 -16 66z"/>
 <path d="M2260 1085 c0 -8 9 -15 20 -15 11 0 20 7 20 15 0 8 -9 15 -20 15 -11 0 -20 -7 -20 -15z"/>
 </g>
<g id="layer19" fill="#efe9a1" stroke="none">
 <path d="M1800 4180 c0 -5 7 -10 15 -10 8 0 15 5 15 10 0 6 -7 10 -15 10 -8 0 -15 -4 -15 -10z"/>
 <path d="M1850 4163 c0 -8 180 -103 193 -103 4 0 7 4 7 9 0 10 -171 101 -189 101 -6 0 -11 -3 -11 -7z"/>
 <path d="M1730 4140 c0 -5 7 -10 15 -10 8 0 15 5 15 10 0 6 -7 10 -15 10 -8 0 -15 -4 -15 -10z"/>
 <path d="M1720 4060 c0 -11 7 -20 15 -20 8 0 15 9 15 20 0 11 -7 20 -15 20 -8 0 -15 -9 -15 -20z"/>
 <path d="M1560 3965 c0 -8 9 -15 20 -15 24 0 27 15 4 24 -22 9 -24 8 -24 -9z"/>
 <path d="M1620 3945 c0 -8 9 -15 20 -15 24 0 27 15 4 24 -22 9 -24 8 -24 -9z"/>
 <path d="M1710 3930 c0 -11 7 -20 15 -20 8 0 15 9 15 20 0 11 -7 20 -15 20 -8 0 -15 -9 -15 -20z"/>
 <path d="M2272 3899 c2 -7 10 -15 17 -17 8 -3 12 1 9 9 -2 7 -10 15 -17 17 -8 3 -12 -1 -9 -9z"/>
 <path d="M2340 3842 c0 -14 49 -56 57 -49 3 4 -4 18 -17 32 -24 25 -40 32 -40 17z"/>
 <path d="M1152 3758 c-17 -17 -15 -38 3 -38 9 0 15 9 15 25 0 29 -1 30 -18 13z"/>
 <path d="M1200 3755 c0 -8 5 -15 10 -15 6 0 10 7 10 15 0 8 -4 15 -10 15 -5 0 -10 -7 -10 -15z"/>
 <path d="M1270 3745 c0 -8 5 -15 10 -15 6 0 10 7 10 15 0 8 -4 15 -10 15 -5 0 -10 -7 -10 -15z"/>
 <path d="M1430 3714 c0 -31 23 -28 28 4 2 15 -2 22 -12 22 -11 0 -16 -9 -16 -26z"/>
 <path d="M2470 3712 c0 -14 49 -56 57 -49 3 4 -4 18 -17 32 -24 25 -40 32 -40 17z"/>
 <path d="M1150 3630 c0 -11 7 -20 15 -20 8 0 15 9 15 20 0 11 -7 20 -15 20 -8 0 -15 -9 -15 -20z"/>
 <path d="M1160 3560 c0 -5 7 -10 15 -10 8 0 15 5 15 10 0 6 -7 10 -15 10 -8 0 -15 -4 -15 -10z"/>
 <path d="M1170 3500 c0 -5 7 -10 15 -10 8 0 15 5 15 10 0 6 -7 10 -15 10 -8 0 -15 -4 -15 -10z"/>
 <path d="M2670 3453 c0 -25 1 -26 16 -11 9 9 13 21 10 27 -13 20 -26 11 -26 -16z"/>
 <path d="M1180 3460 c0 -5 7 -10 15 -10 8 0 15 5 15 10 0 6 -7 10 -15 10 -8 0 -15 -4 -15 -10z"/>
 <path d="M1200 3380 c0 -5 7 -10 15 -10 8 0 15 5 15 10 0 6 -7 10 -15 10 -8 0 -15 -4 -15 -10z"/>
 <path d="M1216 3328 c14 -47 23 -66 33 -73 14 -8 14 8 -1 56 -6 22 -18 39 -25 39 -10 0 -12 -6 -7 -22z"/>
 <path d="M2495 3289 c-4 -6 -5 -12 -2 -15 7 -7 37 7 37 17 0 13 -27 11 -35 -2z"/>
 <path d="M760 3275 c0 -12 16 -15 85 -15 69 0 85 3 85 15 0 12 -16 15 -85 15 -69 0 -85 -3 -85 -15z"/>
 <path d="M1010 3265 c0 -10 10 -15 30 -15 20 0 30 5 30 15 0 10 -10 15 -30 15 -20 0 -30 -5 -30 -15z"/>
 <path d="M1090 3255 c0 -8 9 -15 20 -15 11 0 20 7 20 15 0 8 -9 15 -20 15 -11 0 -20 -7 -20 -15z"/>
 <path d="M1160 3246 c0 -7 14 -16 32 -20 36 -7 43 -3 35 19 -8 19 -67 21 -67 1z"/>
 <path d="M714 3234 c3 -9 6 -20 6 -25 0 -5 7 -9 16 -9 11 0 14 5 10 16 -3 9 -6 20 -6 25 0 5 -7 9 -16 9 -11 0 -14 -5 -10 -16z"/>
 <path d="M2400 3240 c0 -5 7 -10 15 -10 8 0 15 5 15 10 0 6 -7 10 -15 10 -8 0 -15 -4 -15 -10z"/>
 <path d="M2330 3215 c0 -17 2 -18 24 -9 23 9 20 24 -4 24 -11 0 -20 -7 -20 -15z"/>
 <path d="M2250 3195 c0 -8 5 -15 10 -15 6 0 10 7 10 15 0 8 -4 15 -10 15 -5 0 -10 -7 -10 -15z"/>
 <path d="M2140 3175 c0 -8 7 -15 15 -15 8 0 15 7 15 15 0 8 -7 15 -15 15 -8 0 -15 -7 -15 -15z"/>
 <path d="M2060 3165 c0 -8 5 -15 10 -15 6 0 10 7 10 15 0 8 -4 15 -10 15 -5 0 -10 -7 -10 -15z"/>
 <path d="M2000 3155 c0 -8 7 -15 15 -15 8 0 15 7 15 15 0 8 -7 15 -15 15 -8 0 -15 -7 -15 -15z"/>
 <path d="M1898 3153 c-27 -4 -41 -33 -15 -33 29 0 57 13 57 26 0 8 -3 13 -7 13 -5 -1 -20 -4 -35 -6z"/>
 <path d="M740 3145 c0 -3 4 -13 9 -23 5 -9 19 -45 31 -79 22 -62 50 -102 50 -71 0 18 -39 119 -52 133 -4 5 -8 17 -8 27 0 10 -7 18 -15 18 -8 0 -15 -2 -15 -5z"/>
 <path d="M1810 3125 c0 -8 5 -15 10 -15 6 0 10 7 10 15 0 8 -4 15 -10 15 -5 0 -10 -7 -10 -15z"/>
 <path d="M1650 3070 c0 -5 7 -10 15 -10 8 0 15 5 15 10 0 6 -7 10 -15 10 -8 0 -15 -4 -15 -10z"/>
 <path d="M1560 2930 c0 -20 5 -30 15 -30 10 0 15 10 15 30 0 20 -5 30 -15 30 -10 0 -15 -10 -15 -30z"/>
 <path d="M840 2925 c0 -13 32 -66 36 -62 6 6 -23 67 -31 67 -3 0 -5 -2 -5 -5z"/>
 <path d="M894 2828 c3 -10 9 -24 12 -32 5 -12 -15 -16 -113 -20 -150 -6 -233 -14 -258 -26 -11 -5 -36 -11 -55 -15 -19 -3 -50 -8 -68 -12 -18 -3 -35 -9 -38 -14 -5 -9 20 -64 41 -89 7 -8 23 -35 36 -60 42 -78 101 -163 162 -230 48 -53 56 -66 41 -68 -11 -2 -23 -8 -29 -13 -5 -5 -26 -9 -46 -9 -21 0 -41 -4 -44 -10 -3 -5 -17 -10 -30 -10 -13 0 -27 -4 -30 -10 -3 -5 -17 -10 -30 -10 -13 0 -27 -4 -30 -10 -3 -5 -15 -10 -26 -10 -10 0 -27 -4 -37 -9 -9 -5 -28 -13 -42 -19 -77 -31 -140 -65 -140 -75 0 -32 190 -234 308 -327 28 -23 52 -46 52 -51 0 -5 -11 -14 -25 -19 -24 -9 -35 -30 -16 -30 5 0 33 11 64 24 147 65 396 128 600 151 80 9 75 28 -23 79 -25 13 -77 50 -116 82 -40 33 -100 82 -134 109 -34 28 -80 70 -103 95 l-42 45 40 9 c22 5 161 11 310 12 154 2 271 7 273 12 1 5 -23 33 -55 62 -114 105 -302 333 -353 429 -23 43 -65 94 -56 69z"/>
 <path d="M1630 2792 c0 -14 39 -46 47 -39 3 4 -2 16 -12 27 -19 21 -35 26 -35 12z"/>
 <path d="M1615 2669 c-4 -6 -5 -12 -2 -15 7 -7 37 7 37 17 0 13 -27 11 -35 -2z"/>
 <path d="M1577 2633 c-24 -24 14 -93 63 -113 16 -7 30 -15 30 -17 0 -3 -17 -26 -39 -52 -29 -35 -38 -54 -37 -80 1 -20 7 -36 15 -39 10 -3 13 3 9 26 -4 26 4 42 39 87 47 59 52 88 16 93 -12 2 -33 14 -48 28 -20 19 -25 31 -21 49 6 24 -11 35 -27 18z"/>
 <path d="M2873 2387 c4 -10 7 -23 7 -28 0 -5 7 -9 15 -9 21 0 19 14 -7 36 -20 18 -21 18 -15 1z"/>
 <path d="M2790 2325 c0 -16 6 -25 15 -25 9 0 15 9 15 25 0 16 -6 25 -15 25 -9 0 -15 -9 -15 -25z"/>
 <path d="M2920 2304 c0 -5 7 -19 15 -30 8 -10 15 -14 15 -8 0 5 -7 19 -15 30 -8 10 -15 14 -15 8z"/>
 <path d="M2800 2240 c0 -5 7 -10 15 -10 8 0 15 5 15 10 0 6 -7 10 -15 10 -8 0 -15 -4 -15 -10z"/>
 <path d="M1584 2166 c-26 -36 -53 -67 -60 -70 -24 -9 -16 -69 15 -117 26 -41 139 -139 160 -139 5 0 54 -30 110 -66 56 -37 105 -64 108 -60 9 8 -33 43 -105 88 -126 78 -225 152 -243 182 -27 45 -24 71 20 140 37 60 58 106 47 106 -4 0 -27 -29 -52 -64z"/>
 <path d="M2810 2170 c0 -5 7 -10 15 -10 8 0 15 5 15 10 0 6 -7 10 -15 10 -8 0 -15 -4 -15 -10z"/>
 <path d="M2820 2110 c0 -5 7 -10 15 -10 8 0 15 5 15 10 0 6 -7 10 -15 10 -8 0 -15 -4 -15 -10z"/>
 <path d="M2830 2045 c0 -8 7 -15 15 -15 8 0 15 7 15 15 0 8 -7 15 -15 15 -8 0 -15 -7 -15 -15z"/>
 <path d="M2840 1955 c0 -8 7 -15 15 -15 8 0 15 7 15 15 0 8 -7 15 -15 15 -8 0 -15 -7 -15 -15z"/>
 <path d="M2840 1810 c0 -20 5 -30 15 -30 10 0 15 10 15 30 0 20 -5 30 -15 30 -10 0 -15 -10 -15 -30z"/>
 <path d="M2118 1794 c-5 -4 -8 -14 -8 -21 0 -11 8 -13 30 -8 23 5 30 3 30 -9 0 -19 30 -22 31 -3 0 7 3 7 7 -3 14 -31 45 -70 55 -70 19 0 86 52 92 71 7 23 25 25 25 4 0 -22 17 -18 30 5 17 31 4 40 -57 40 -41 0 -59 -5 -69 -17 -18 -25 -17 -30 9 -37 22 -6 22 -7 3 -21 -28 -21 -32 -19 -33 21 -1 19 -3 37 -5 39 -8 8 -134 16 -140 9z"/>
 <path d="M2827 1713 c-3 -21 -9 -53 -12 -70 -6 -26 -4 -33 8 -33 15 0 37 72 37 120 0 36 -27 21 -33 -17z"/>
 <path d="M2160 1705 c-7 -9 -10 -18 -7 -21 10 -11 37 5 37 21 0 19 -14 19 -30 0z"/>
 <path d="M2335 1711 c-9 -16 -135 -101 -148 -101 -7 0 -17 10 -22 23 -6 12 -19 22 -30 22 -16 0 -21 -8 -23 -37 -3 -31 0 -38 14 -38 14 0 15 -3 6 -12 -16 -16 -15 -28 3 -28 8 0 17 11 21 25 6 23 8 24 18 9 17 -22 49 -14 56 15 3 13 12 27 20 30 26 10 120 83 120 92 0 12 -27 12 -35 0z"/>
 <path d="M3160 1690 c0 -5 7 -10 15 -10 8 0 15 5 15 10 0 6 -7 10 -15 10 -8 0 -15 -4 -15 -10z"/>
 <path d="M1945 1653 c4 -10 9 -36 12 -58 8 -74 13 -90 24 -74 20 33 -2 149 -29 149 -9 0 -12 -6 -7 -17z"/>
 <path d="M385 1624 c-60 -32 -60 -32 -52 -41 9 -8 127 47 127 59 0 14 -24 9 -75 -18z"/>
 <path d="M2796 1574 c-8 -22 -8 -24 8 -24 12 0 26 20 26 36 0 12 -29 2 -34 -12z"/>
 <path d="M3170 1570 c0 -11 7 -20 15 -20 8 0 15 9 15 20 0 11 -7 20 -15 20 -8 0 -15 -9 -15 -20z"/>
 <path d="M270 1560 c-14 -10 -22 -21 -19 -25 10 -9 59 17 59 32 0 18 -10 16 -40 -7z"/>
 <path d="M3160 1483 c0 -16 -3 -38 -6 -50 -5 -16 -2 -23 9 -23 8 0 17 13 21 31 10 50 7 69 -9 69 -10 0 -15 -10 -15 -27z"/>
 <path d="M102 1438 c-16 -16 -15 -28 3 -28 8 0 15 2 15 4 0 2 3 11 6 20 7 19 -7 21 -24 4z"/>
 <path d="M120 1391 c0 -10 30 -24 37 -17 3 3 2 9 -2 15 -8 13 -35 15 -35 2z"/>
 <path d="M170 1351 c0 -10 30 -24 37 -17 3 3 2 9 -2 15 -8 13 -35 15 -35 2z"/>
 <path d="M250 1296 c0 -9 7 -16 16 -16 17 0 14 22 -4 28 -7 2 -12 -3 -12 -12z"/>
 <path d="M302 1258 c6 -18 28 -21 28 -4 0 9 -7 16 -16 16 -9 0 -14 -5 -12 -12z"/>
 <path d="M350 1231 c0 -10 171 -101 189 -101 28 0 3 19 -82 63 -99 49 -107 52 -107 38z"/>
 </g>
<g id="layer20" fill="#88a0c4" stroke="none">
 <path d="M2160 3185 c0 -8 5 -15 10 -15 6 0 10 7 10 15 0 8 -4 15 -10 15 -5 0 -10 -7 -10 -15z"/>
 <path d="M3100 1280 c-12 -23 -19 -44 -16 -47 2 -3 14 14 26 37 12 23 19 44 16 47 -2 3 -14 -14 -26 -37z"/>
 <path d="M3046 1186 c-18 -28 -20 -36 -8 -36 10 0 35 50 29 57 -2 2 -12 -8 -21 -21z"/>
 <path d="M2200 1095 c0 -8 5 -15 10 -15 6 0 10 7 10 15 0 8 -4 15 -10 15 -5 0 -10 -7 -10 -15z"/>
 <path d="M2340 1095 c0 -8 5 -15 10 -15 6 0 10 7 10 15 0 8 -4 15 -10 15 -5 0 -10 -7 -10 -15z"/>
 <path d="M2952 1074 c-12 -8 -109 -59 -215 -113 -428 -217 -861 -356 -1269 -405 -242 -30 -696 -15 -771 26 -17 9 -29 0 -89 -63 -126 -134 -291 -370 -272 -389 21 -21 336 -43 524 -36 738 23 1414 291 1920 761 76 71 210 215 210 227 0 12 -13 10 -38 -8z"/>
 <path d="M1130 929 c-44 -27 -45 -28 -37 -35 8 -8 97 37 97 48 0 14 -24 8 -60 -13z"/>
 <path d="M970 830 c-14 -10 -22 -22 -18 -25 8 -8 68 25 68 37 0 14 -24 8 -50 -12z"/>
 <path d="M785 689 c-4 -6 -5 -13 -2 -16 7 -7 27 6 27 18 0 12 -17 12 -25 -2z"/>
 <path d="M715 630 c-10 -11 -15 -23 -12 -27 8 -7 47 25 47 39 0 14 -16 9 -35 -12z"/>
 </g>

</svg>