<?xml version="1.0" encoding="utf-8"?>
<!-- Generator: Adobe Illustrator 16.0.2, SVG Export Plug-In . SVG Version: 6.00 Build 0)  -->
<!DOCTYPE svg PUBLIC "-//W3C//DTD SVG 1.1//EN" "http://www.w3.org/Graphics/SVG/1.1/DTD/svg11.dtd">
<svg version="1.1" id="Layer_1" xmlns="http://www.w3.org/2000/svg" xmlns:xlink="http://www.w3.org/1999/xlink" x="0px" y="0px"
	 width="610px" height="630px" viewBox="0 0 610 630" enable-background="new 0 0 610 630" xml:space="preserve">
<g>
	<g>
		<path fill="#73BF34" d="M98.946,295.595c3.784-5.765,8.796-10.408,15.012-13.914c6.216-3.532,13.118-5.283,20.689-5.283h11.081
			c5.787,0,11.279,1.137,16.508,3.379c5.231,2.261,9.777,5.275,13.664,9.067c3.873,3.782,6.985,8.283,9.324,13.515
			c2.35,5.247,3.534,10.825,3.534,16.771v83.317c0,1.99-0.686,3.603-2.041,4.882c-1.359,1.259-3.016,1.883-5.005,1.883
			c-1.973,0-3.647-0.624-5.005-1.883c-1.358-1.279-2.024-2.892-2.024-4.882v-83.317c0-3.963-0.772-7.702-2.302-11.222
			c-1.537-3.523-3.602-6.626-6.227-9.334c-2.614-2.7-5.67-4.825-9.19-6.359c-3.513-1.521-7.249-2.29-11.235-2.29h-11.081
			c-3.969,0-7.705,0.769-11.221,2.29c-3.516,1.534-6.535,3.659-9.063,6.359c-2.525,2.708-4.556,5.811-6.079,9.334
			c-1.547,3.52-2.312,7.259-2.312,11.222v83.317c0,1.99-0.721,3.603-2.158,4.882c-1.451,1.259-3.067,1.883-4.868,1.883
			c-1.99,0-3.646-0.624-5.005-1.883c-1.362-1.279-2.024-2.892-2.024-4.882v-83.317C91.917,306.662,98.946,295.595,98.946,295.595z"
			/>
		<path fill="#73BF34" d="M105.931,319.129v83.317c0,1.99-0.697,3.603-2.038,4.882c-1.362,1.259-3.019,1.883-5.005,1.883
			c-1.805,0-3.427-0.624-4.872-1.883c-1.438-1.279-2.171-2.892-2.171-4.882v-83.317c0-3.963-0.745-7.702-2.288-11.222
			c-1.523-3.523-3.561-6.626-6.086-9.334c-2.525-2.7-5.544-4.825-9.07-6.359c-3.503-1.521-7.256-2.29-11.222-2.29H52.084
			c-3.959,0-7.698,0.769-11.211,2.29c-3.52,1.534-6.59,3.659-9.208,6.359c-2.614,2.708-4.68,5.811-6.209,9.334
			c-1.537,3.52-2.309,7.259-2.309,11.222v83.317c0,1.99-0.679,3.603-2.028,4.882c-1.355,1.259-3.029,1.883-5.001,1.883
			c-1.99,0-3.647-0.624-5.005-1.883c-1.362-1.279-2.041-2.892-2.041-4.882v-83.317c0-5.945,1.19-11.523,3.526-16.771
			c2.354-5.231,5.465-9.732,9.331-13.515c3.887-3.792,8.433-6.807,13.664-9.067c5.231-2.242,10.728-3.379,16.491-3.379h11.094
			c7.575,0,14.477,1.751,20.693,5.283c6.233,3.506,11.221,8.149,15.016,13.914C98.888,295.595,105.931,306.662,105.931,319.129z"/>
	</g>
	<path fill="#73BF34" d="M223.9,259.631c-1.973,0-3.602-0.679-4.858-2.04c-1.266-1.341-1.883-3.101-1.883-5.257
		c0-1.983,0.618-3.609,1.883-4.882c1.256-1.262,2.885-1.887,4.858-1.887c1.99,0,3.66,0.625,5.022,1.887
		c1.341,1.273,2.021,2.899,2.021,4.882c0,2.156-0.679,3.916-2.021,5.257C227.561,258.952,225.89,259.631,223.9,259.631z
		 M230.943,401.904c0,2.168-0.679,3.884-2.021,5.156c-1.362,1.245-3.033,1.877-5.022,1.877c-4.498,0-6.741-2.347-6.741-7.033
		v-118.74c0-1.989,0.618-3.6,1.883-4.864c1.256-1.271,2.885-1.902,4.858-1.902c1.99,0,3.66,0.631,5.022,1.902
		c1.341,1.264,2.021,2.875,2.021,4.864V401.904z"/>
	<path fill="#73BF34" d="M352.659,402.446c0,0.737-0.093,1.476-0.271,2.299c-0.172,0.816-0.725,1.667-1.612,2.583
		c-1.276,1.259-2.902,1.883-4.875,1.883l-37.87-0.273c-7.399,0-14.34-1.38-20.827-4.192c-6.5-2.793-12.127-6.614-16.896-11.499
		c-4.792-4.865-8.583-10.543-11.379-17.033c-2.796-6.501-4.182-13.444-4.182-20.834v-25.955c0-7.403,1.386-14.347,4.182-20.844
		c2.796-6.493,6.587-12.17,11.379-17.028c4.769-4.888,10.395-8.694,16.896-11.506c6.487-2.787,13.428-4.187,20.827-4.187h31.108
		v-65.192c0-1.976,0.624-3.602,1.894-4.873c1.249-1.24,2.875-1.887,4.868-1.887c1.973,0,3.599,0.646,4.875,1.887
		c1.255,1.271,1.883,2.897,1.883,4.873V402.446z M268.535,355.379c0,5.41,1.043,10.56,3.115,15.424
		c2.068,4.871,4.912,9.105,8.521,12.7c3.605,3.616,7.801,6.449,12.58,8.535c4.769,2.079,9.87,3.111,15.28,3.111h31.108V350.24
		v-60.583h-31.108c-5.41,0-10.511,1.036-15.28,3.11c-4.779,2.079-8.974,4.955-12.58,8.657c-3.609,3.697-6.453,7.928-8.521,12.713
		c-2.072,4.779-3.115,9.867-3.115,15.287V355.379z"/>
	<path fill="#73BF34" d="M426.245,289.924c-10.285,0-19.39,3.777-27.321,11.357c-3.434,3.609-6.1,7.748-7.982,12.438
		c-1.895,4.699-2.845,9.461-2.845,14.35v29.215c0,5.403,0.991,10.404,2.978,14.995c1.973,4.607,4.673,8.658,8.117,12.179
		c3.413,3.526,7.469,6.264,12.158,8.246c4.692,2.004,9.656,2.979,14.896,2.979c5.214,0,10.127-0.975,14.724-2.979
		c4.614-1.982,8.658-4.72,12.179-8.246c3.52-3.521,6.315-7.571,8.384-12.179c2.076-4.591,3.115-9.592,3.115-14.995v-29.215
		c0-4.889-0.995-9.65-2.981-14.35c-1.979-4.689-4.771-8.829-8.391-12.438c0,0-2.958-5.077,1.472-8.803
		c4.418-3.723,8.274-0.927,8.274-0.927c4.86,4.858,8.614,10.448,11.228,16.767c2.607,6.313,3.918,12.899,3.918,19.75v29.215
		c0,7.201-1.345,13.962-4.062,20.285c-2.696,6.298-6.442,11.818-11.229,16.494c-4.769,4.699-10.315,8.384-16.631,11.094
		c-6.306,2.703-12.981,4.055-20,4.055c-7.229,0-13.993-1.352-20.303-4.055c-6.309-2.71-11.801-6.395-16.494-11.094
		c-4.689-4.676-8.388-10.196-11.091-16.494c-2.699-6.323-4.059-13.084-4.059-20.285v-29.215c0-6.851,1.304-13.438,3.918-19.75
		c2.625-6.318,6.364-11.909,11.231-16.767c4.693-5.062,10.233-8.837,16.632-11.363c6.404-2.537,13.122-3.791,20.165-3.791
		c7.019,0,13.694,1.254,20,3.791L426.245,289.924z"/>
	<path fill="#73BF34" d="M567.979,278.3c1.259,1.264,1.896,2.875,1.896,4.864c0,1.992-0.638,3.611-1.896,4.865
		c-1.267,1.266-2.879,1.896-4.868,1.896h-18.401c-3.774,0-7.486,0.719-11.088,2.163c-3.599,1.433-6.666,3.508-9.19,6.225
		c-5.589,5.947-8.388,12.7-8.388,20.282v1.629v82.224c0,1.99-0.68,3.603-2.021,4.882c-1.362,1.259-3.125,1.883-5.294,1.883
		c-1.608,0-3.148-0.624-4.586-1.883c-1.451-1.279-2.172-2.892-2.172-4.882V283.164c0-1.989,0.721-3.6,2.172-4.864
		c1.438-1.271,2.978-1.902,4.586-1.902c2.169,0,3.932,0.631,5.294,1.902c1.341,1.264,2.021,2.875,2.021,4.864v4.062
		c8.12-7.22,17.671-10.829,28.666-10.829h18.401C565.1,276.397,566.712,277.029,567.979,278.3z"/>
	<path fill="#73BF34" d="M593.405,259.631c-1.989,0-3.603-0.679-4.878-2.04c-1.249-1.341-1.891-3.101-1.891-5.257
		c0-1.983,0.642-3.609,1.891-4.882c1.275-1.262,2.889-1.887,4.878-1.887c1.973,0,3.646,0.625,5.005,1.887
		c1.345,1.273,2.024,2.899,2.024,4.882c0,2.156-0.68,3.916-2.024,5.257C597.052,258.952,595.378,259.631,593.405,259.631z
		 M600.435,401.904c0,2.168-0.68,3.884-2.024,5.156c-1.358,1.245-3.032,1.877-5.005,1.877c-4.518,0-6.769-2.347-6.769-7.033v-118.74
		c0-1.989,0.642-3.6,1.891-4.864c1.275-1.271,2.889-1.902,4.878-1.902c1.973,0,3.646,0.631,5.005,1.902
		c1.345,1.264,2.024,2.875,2.024,4.864V401.904z"/>
	<path fill="#73BF34" d="M426.801,276.633c0,0,27.468,2.108,35.855-19.079c8.134-20.566-9.084-33.319-9.084-33.319
		s18.971,9.025,19.335,27.728c0.422,21.892-13.301,37.449-46.662,37.962L426.801,276.633z"/>
	<path fill="#73BF34" d="M458.773,263.404c0,0-0.587-14.094-11.63-17.918c-12.116-4.202-19.362,0.861-27.764-0.197
		c0,0,6.521,24.276,36.587,17.975c0,0-6.943-9.446-18.018-11.71C437.949,251.554,452.057,251.979,458.773,263.404z"/>
	<path fill="#73BF34" d="M473.161,251.068c0,0,2.896-14.592,19.87-12.246c0,0-3.4,16.281-18.875,14.252c0,0,3.434-6.659,9.763-9.23
		C483.919,243.845,478.685,244.95,473.161,251.068z"/>
</g>
</svg>
