<?xml version="1.0" standalone="no"?>
<!DOCTYPE svg PUBLIC "-//W3C//DTD SVG 20010904//EN"
 "http://www.w3.org/TR/2001/REC-SVG-20010904/DTD/svg10.dtd">
<svg version="1.0" xmlns="http://www.w3.org/2000/svg"
 width="600.000000pt" height="600.000000pt" viewBox="0 0 600.000000 600.000000"
 preserveAspectRatio="xMidYMid meet">

<g transform="translate(0.000000,600.000000) scale(0.100000,-0.100000)"
fill="#000000" stroke="none">
<path d="M0 3000 l0 -3000 3000 0 3000 0 0 3000 0 3000 -3000 0 -3000 0 0
-3000z m670 2265 c0 -8 5 -15 12 -15 9 0 9 -3 0 -12 -14 -14 -16 -32 -3 -23 5
3 12 1 16 -5 3 -5 1 -10 -4 -10 -6 0 -11 -5 -11 -10 0 -7 23 -8 64 -4 65 7
111 -5 213 -53 17 -8 36 -12 41 -9 17 10 24 -12 12 -35 -10 -19 -9 -20 8 -15
25 8 38 -10 22 -29 -6 -7 -10 -22 -8 -32 2 -13 -3 -18 -22 -18 -32 0 -39 -30
-12 -53 11 -10 30 -37 42 -61 16 -30 25 -39 31 -30 6 10 11 7 19 -11 9 -23 10
-22 5 10 -5 32 -4 33 6 10 6 -14 8 -49 6 -77 -3 -29 -4 -53 -3 -53 2 0 38 16
79 34 177 81 414 145 612 165 336 34 1084 43 1490 17 647 -41 1196 -141 1458
-266 l59 -28 -7 43 c-8 57 8 116 52 188 l35 57 -18 45 c-14 38 -15 47 -3 61
12 15 15 13 36 -12 l23 -29 29 36 c18 22 45 40 70 48 23 6 41 16 41 21 0 6 19
10 43 10 65 0 86 9 93 39 13 52 51 74 39 22 -8 -37 15 -61 61 -61 28 0 34 -4
32 -17 -2 -14 3 -18 22 -16 59 4 64 -21 6 -31 -51 -9 -61 -51 -13 -51 33 1 36
-14 5 -16 -52 -3 -113 4 -120 14 -4 7 -12 6 -24 -4 -16 -12 -17 -12 -10 1 4 9
1 8 -7 -2 -16 -21 -32 -24 -21 -5 6 9 4 9 -8 -1 -9 -7 -32 -15 -50 -17 -18 -3
-35 -10 -37 -16 -2 -8 -6 -7 -12 2 -7 11 -9 10 -9 -4 0 -10 -4 -15 -10 -12 -5
3 -20 -6 -32 -21 -23 -27 -38 -41 -93 -88 -16 -14 -27 -26 -23 -26 4 0 -2 -25
-13 -57 -29 -86 -26 -115 19 -163 39 -40 64 -48 92 -30 12 8 12 10 -5 10 -11
1 -31 15 -45 33 -14 17 -19 28 -12 24 6 -5 12 -4 12 1 0 6 -7 12 -15 16 -22 8
-20 97 4 139 28 50 59 79 150 139 28 19 45 23 37 9 -4 -5 0 -12 6 -14 7 -3 -1
-6 -18 -6 -19 -1 -43 -12 -64 -31 -18 -16 -36 -31 -39 -32 -4 -2 -19 -19 -33
-38 -37 -49 -46 -137 -18 -173 11 -13 16 -28 12 -32 -4 -5 -1 -5 6 -1 6 4 17
4 24 0 16 -10 58 -12 52 -2 -3 4 0 8 5 8 13 0 14 49 2 69 -15 23 -42 5 -39
-25 4 -38 -18 -41 -37 -4 -21 40 -12 67 25 75 28 6 63 -4 61 -18 -4 -27 1 -38
13 -34 34 13 26 -121 -9 -157 -8 -8 -15 -19 -15 -25 0 -17 -32 -42 -46 -37 -8
3 -35 -15 -61 -39 -98 -93 -228 -141 -498 -185 -71 -12 -175 -30 -230 -40 -55
-10 -115 -21 -133 -25 -18 -3 -63 -12 -100 -20 -73 -15 -184 -31 -327 -45 -49
-6 -108 -12 -130 -15 -166 -20 -349 -36 -585 -51 -198 -12 -279 -21 -291 -30
-9 -8 -19 -11 -22 -7 -4 3 -7 -1 -7 -9 0 -21 -66 -34 -86 -17 -9 7 -30 9 -57
6 -23 -3 -58 -2 -78 2 -40 9 -69 -5 -69 -33 0 -9 -4 -16 -10 -16 -5 0 -10 4
-10 10 0 6 -9 6 -24 0 -22 -8 -24 -6 -28 21 -3 16 -1 32 4 35 4 3 8 1 8 -5 0
-6 7 -8 15 -5 32 13 10 44 -31 44 -11 0 -13 -6 -9 -19 8 -26 -18 -50 -48 -44
-23 5 -24 7 -11 31 7 14 11 29 8 33 -5 9 -36 0 -45 -13 -3 -4 -19 -4 -37 1
-29 9 -32 8 -33 -12 0 -12 -6 -37 -13 -55 -10 -28 -21 -37 -66 -53 -30 -11
-60 -17 -67 -15 -7 3 -14 -8 -18 -25 -4 -16 -13 -29 -21 -29 -9 0 -13 -4 -10
-9 3 -5 16 -7 29 -4 19 4 20 3 4 -7 -9 -6 -21 -9 -26 -5 -5 3 -12 1 -16 -5 -4
-6 5 -10 19 -10 14 0 26 -5 26 -11 0 -7 -10 -9 -25 -5 -28 7 -35 -13 -11 -33
17 -14 27 -59 15 -67 -10 -6 -27 9 -51 47 -12 19 -13 30 -6 43 8 14 7 21 -6
28 -21 12 -20 34 4 74 13 20 17 35 10 39 -15 10 -12 23 8 28 11 3 7 5 -10 6
-32 1 -58 10 -58 21 0 4 40 10 90 13 49 3 97 10 107 16 17 10 15 12 -17 15 -9
0 -14 9 -12 20 3 16 1 18 -11 8 -7 -6 -16 -10 -19 -7 -3 3 -34 -4 -69 -15 -56
-17 -65 -18 -75 -5 -14 19 -58 19 -74 0 -10 -12 -9 -15 6 -15 15 0 10 -9 -23
-40 -24 -23 -36 -41 -30 -44 7 -3 0 -3 -15 0 -23 5 -28 3 -28 -14 0 -11 -7
-25 -15 -32 -21 -18 -19 -30 8 -31 21 0 21 -1 2 -8 -11 -5 -23 -4 -26 1 -4 6
-23 7 -46 4 -21 -4 -52 -2 -67 4 -23 8 -27 15 -24 35 3 13 1 22 -3 19 -5 -3
-9 -2 -10 3 0 4 -3 20 -5 36 -3 20 -1 27 11 27 8 0 15 4 15 10 0 10 -27 3 -47
-13 -25 -19 -13 13 12 35 35 30 31 38 -15 38 -22 0 -40 5 -40 10 0 6 11 10 23
10 13 0 35 9 48 21 19 17 21 22 9 29 -8 6 -20 10 -26 10 -7 0 -15 8 -19 18 -6
16 -7 16 -16 0 -12 -22 -48 -23 -75 -3 -25 19 -54 19 -54 0 0 -20 -24 -19 -79
2 -35 14 -40 18 -25 24 12 4 31 -1 50 -12 41 -25 51 -13 14 17 -16 14 -48 27
-75 30 -41 6 -47 5 -52 -15 -5 -21 -18 -25 -58 -21 -20 2 -20 1 -1 -13 13 -9
15 -16 8 -21 -17 -10 -53 -17 -87 -17 -27 0 -28 -1 -10 -12 31 -17 77 -8 109
21 28 26 27 14 -2 -20 -15 -18 -8 -43 9 -32 6 3 14 17 20 31 5 13 13 21 19 18
5 -3 10 1 10 9 0 13 6 12 34 -5 34 -20 47 -59 19 -59 -7 0 -13 -11 -13 -25 0
-15 6 -25 14 -25 8 0 17 -7 20 -16 3 -8 10 -12 16 -9 5 3 10 -1 10 -9 0 -11
-10 -16 -27 -17 -28 -1 -28 -1 4 -10 18 -5 35 -14 38 -19 3 -6 20 -10 37 -10
26 0 29 -2 18 -15 -8 -10 -21 -13 -38 -8 -17 4 -23 2 -18 -6 9 -13 2 -14 -22
-2 -9 5 -25 12 -34 15 -10 3 -18 14 -18 25 0 21 -38 38 -70 33 -12 -2 -12 -1
-2 6 10 6 10 15 2 36 -9 24 -12 26 -32 15 -22 -12 -22 -11 -8 6 13 17 13 18
-1 13 -9 -4 -60 6 -114 22 -54 16 -104 26 -113 23 -9 -4 -13 -2 -9 4 9 15
-124 66 -138 52 -7 -7 -3 -15 11 -27 30 -23 40 -60 19 -68 -17 -7 -65 31 -65
51 0 6 -23 31 -51 55 -126 108 -287 279 -296 315 -1 6 -5 21 -9 34 -6 20 -4
23 9 18 15 -6 16 -1 11 32 -4 24 -2 41 5 45 6 4 11 17 11 29 0 16 3 18 12 9 9
-9 9 -20 0 -49 -14 -46 2 -62 29 -30 22 28 36 15 23 -21 -6 -17 -17 -26 -28
-26 -16 2 -16 0 -2 -15 9 -10 16 -23 16 -29 0 -6 9 -14 20 -17 11 -4 18 -10
15 -15 -3 -5 -1 -11 5 -15 5 -3 10 1 10 9 0 18 45 23 55 6 3 -5 15 -14 25 -20
16 -9 18 -7 15 10 -4 23 25 28 47 8 17 -17 32 -20 93 -20 49 -1 95 14 95 30 0
5 -11 23 -25 42 -28 38 -25 50 15 50 41 0 52 27 57 134 5 118 7 125 43 165 34
38 36 48 15 78 -13 18 -13 22 0 33 11 10 20 8 42 -10 15 -12 27 -24 25 -26 -2
-3 -2 -8 1 -12 2 -4 2 -2 1 5 -2 6 2 13 9 16 15 5 -3 23 -65 63 -26 17 -45 34
-41 38 3 3 0 7 -8 7 -29 3 -54 -3 -62 -15 -6 -7 -7 -5 -4 6 7 21 -3 24 -78 27
-74 3 -151 -21 -184 -58 -15 -15 -22 -19 -18 -9 4 12 2 15 -9 11 -7 -3 -14 -9
-14 -13 0 -5 -9 -12 -21 -15 -19 -6 -19 -8 -3 -19 20 -15 11 -36 -14 -35 -11
0 -12 3 -4 6 6 2 12 9 12 14 0 6 -4 7 -10 4 -5 -3 -10 2 -11 12 -1 10 -5 -1
-11 -25 -5 -23 -13 -40 -18 -37 -6 4 -4 15 3 26 10 18 8 23 -17 44 -17 13 -33
22 -38 19 -4 -3 -8 0 -8 6 0 6 -4 9 -10 5 -5 -3 -7 -12 -3 -20 3 -8 0 -15 -6
-15 -6 0 -11 -7 -11 -15 0 -9 -7 -18 -16 -22 -15 -5 -15 -7 0 -15 13 -7 14
-13 6 -23 -8 -9 -8 -15 0 -20 15 -9 11 -104 -6 -145 l-14 -35 3 33 c2 18 -1
32 -7 33 -6 0 -5 3 2 6 17 7 15 33 -3 33 -25 0 -41 -46 -28 -81 12 -30 9 -33
-29 -30 -27 3 -11 -27 23 -45 16 -8 29 -21 29 -28 0 -8 5 -16 12 -18 8 -3 4
-12 -10 -26 -26 -26 -28 -34 -6 -30 9 2 23 -8 33 -22 15 -22 15 -24 -1 -17
-13 5 -10 -6 13 -42 16 -27 27 -55 24 -64 -4 -9 16 -38 52 -78 51 -55 53 -60
18 -32 -22 17 -53 44 -69 59 -30 30 -76 117 -76 144 0 22 -29 60 -46 60 -8 0
-14 -6 -14 -14 0 -9 -7 -12 -21 -9 -27 7 -35 29 -18 49 9 11 13 37 11 78 -2
39 4 88 17 136 29 106 57 181 64 173 4 -3 7 1 7 11 0 9 -4 14 -10 11 -17 -10
-11 18 10 53 11 17 25 32 32 33 7 0 34 26 59 57 35 43 64 66 120 94 41 21 88
39 104 41 45 7 104 34 111 52 8 19 24 20 24 0z m4764 -257 c-1 -14 6 -18 32
-18 19 0 34 -4 34 -10 0 -5 -15 -10 -34 -10 -19 0 -38 -5 -41 -10 -12 -20 -27
3 -21 32 5 26 4 29 -9 18 -12 -10 -15 -9 -15 4 0 13 7 17 28 14 19 -2 27 -8
26 -20z m-4689 -48 c3 -5 1 -10 -4 -10 -6 0 -11 5 -11 10 0 6 2 10 4 10 3 0 8
-4 11 -10z m90 -39 c-8 -8 -18 -11 -22 -7 -4 4 -1 11 7 17 11 7 6 8 -15 3 -23
-4 -26 -3 -15 5 10 7 11 11 3 11 -7 0 -13 4 -13 9 0 5 16 1 35 -7 31 -14 33
-18 20 -31z m254 -21 c0 -10 -3 -8 -9 5 -12 27 -12 43 0 25 5 -8 9 -22 9 -30z
m-739 -7 c-8 -3 -23 -12 -32 -21 -19 -16 -22 -13 -12 12 4 9 17 16 33 15 15 0
20 -3 11 -6z m5243 -34 c-31 -29 -39 -41 -29 -45 19 -7 10 -32 -15 -39 -10 -4
-19 -15 -19 -26 0 -10 -6 -19 -14 -19 -19 0 -58 50 -52 66 3 7 0 15 -7 18 -7
2 -2 8 11 11 12 4 22 12 22 19 0 7 3 6 9 -2 6 -10 12 -5 21 18 9 22 15 27 21
19 6 -11 15 -10 41 3 53 27 56 20 11 -23z m87 -5 c0 -8 -6 -14 -14 -14 -9 0
-12 7 -9 20 6 22 23 18 23 -6z m-5275 -22 c-15 -16 -16 -15 -4 12 7 15 15 23
17 16 3 -7 -3 -19 -13 -28z m5225 -12 c0 -22 -1 -23 -24 -14 -18 7 -10 34 10
34 8 0 14 -9 14 -20z m-5286 -1 c-4 -7 0 -9 14 -5 11 4 23 2 26 -3 6 -9 -5 -9
-59 -2 -5 1 -3 6 5 11 20 13 23 12 14 -1z m-24 -35 c0 -8 -4 -12 -10 -9 -5 3
-10 10 -10 16 0 5 5 9 10 9 6 0 10 -7 10 -16z m35 -15 c-4 -11 -10 -42 -15
-67 l-8 -47 -1 48 c-1 30 -5 46 -11 42 -6 -4 -8 -10 -5 -15 3 -5 1 -11 -5 -15
-5 -3 -10 3 -10 15 0 11 7 23 15 26 8 4 15 12 15 20 0 8 7 14 16 14 11 0 14
-6 9 -21z m5299 -3 c28 11 18 -4 -21 -31 l-38 -26 35 3 c53 3 63 -7 55 -56 -9
-56 -31 -89 -55 -81 -17 5 -18 3 -10 -24 5 -18 5 -33 -1 -36 -5 -4 -9 -10 -9
-16 0 -12 33 -12 46 0 15 14 54 23 54 12 0 -5 -17 -26 -37 -45 -33 -31 -36
-38 -26 -55 18 -29 -16 -87 -94 -163 -35 -33 -61 -63 -58 -66 9 -10 104 90
146 153 44 68 50 67 15 -3 -14 -27 -53 -75 -89 -108 -61 -57 -182 -144 -219
-157 -29 -10 -21 1 13 19 56 28 132 88 119 92 -7 3 -15 0 -19 -6 -8 -13 -109
-61 -140 -67 -28 -5 -27 7 2 21 119 58 248 152 240 177 -2 4 1 7 6 7 9 0 61
71 61 85 0 5 -24 -23 -54 -61 -55 -71 -155 -154 -185 -154 -9 0 -21 -4 -26 -9
-6 -5 -31 -12 -57 -16 -40 -6 -48 -5 -48 8 0 9 18 22 43 31 l42 15 -46 -5
c-29 -4 -49 -2 -53 5 -4 6 -1 11 6 11 9 0 9 3 -2 10 -12 8 -9 10 13 10 15 0
27 4 27 10 0 5 -7 7 -16 3 -12 -4 -15 -1 -12 13 2 14 10 18 28 16 14 -2 22 -1
18 3 -4 4 7 16 25 26 17 9 31 23 29 29 -2 7 3 10 12 7 10 -4 13 1 11 19 -1 13
4 29 11 35 8 6 14 8 14 4 0 -4 7 -2 15 5 16 13 21 35 6 26 -5 -3 -11 4 -14 15
-6 21 -6 21 -39 -6 -18 -15 -36 -35 -40 -44 -4 -9 -6 1 -5 24 2 31 8 42 29 55
26 14 29 13 50 -7 20 -21 23 -21 48 -7 42 26 68 74 81 152 10 57 10 75 0 81
-20 13 -1 43 24 37 24 -6 61 24 48 39 -5 5 -1 4 8 -3 9 -7 24 -10 33 -6z
m-5354 -68 c0 -5 -4 -8 -10 -8 -5 0 -10 10 -10 23 0 18 2 19 10 7 5 -8 10 -18
10 -22z m77 -10 c-3 -7 -5 -2 -5 12 0 14 2 19 5 13 2 -7 2 -19 0 -25z m-101
-49 c-15 -34 -15 -34 -9 -4 7 35 13 48 20 42 2 -3 -3 -20 -11 -38z m40 -1 c4
-7 4 -10 -1 -6 -4 4 -14 0 -22 -10 -13 -15 -13 -15 -3 6 12 25 16 27 26 10z
m-71 -37 c-3 -5 4 -12 15 -16 11 -3 20 -14 20 -23 -1 -15 -3 -14 -15 2 -8 11
-15 16 -15 12 0 -4 -7 -1 -15 8 -19 19 -19 26 1 26 8 0 13 -4 9 -9z m312 -22
c6 -6 9 -17 7 -24 -3 -7 -1 -16 5 -20 16 -9 13 -51 -3 -65 -13 -10 -15 -4 -12
44 2 31 -1 56 -6 56 -4 0 -8 -5 -8 -10 0 -7 -8 -7 -22 1 -18 9 -20 9 -12 -1
15 -16 5 -53 -12 -46 -8 3 -14 1 -14 -5 0 -6 -5 -7 -10 -4 -13 8 -8 48 9 69
15 18 62 21 78 5z m-111 -100 c-2 -18 -9 -36 -14 -41 -10 -10 -42 0 -42 14 0
6 7 8 15 4 9 -3 16 1 16 9 1 8 3 20 4 25 1 6 3 12 4 15 0 3 6 5 12 5 6 0 8
-13 5 -31z m94 2 c0 -31 -63 -44 -74 -16 -3 9 0 15 9 15 8 0 15 4 15 8 0 4 11
9 25 10 19 1 25 -3 25 -17z m5170 -56 c-7 -8 -20 -14 -29 -14 -13 1 -13 2 2 6
9 2 17 9 17 14 0 5 5 9 11 9 8 0 8 -5 -1 -15z m-5385 -85 c3 -5 -1 -10 -9 -10
-9 0 -16 5 -16 10 0 6 4 10 9 10 6 0 13 -4 16 -10z m63 -71 c13 -16 22 -29 19
-29 -6 0 -77 70 -77 76 0 9 36 -20 58 -47z m4389 -55 c2 -5 -10 -15 -26 -22
-19 -8 -31 -22 -35 -42 -9 -46 -22 -35 -18 15 4 43 10 50 40 46 6 -1 12 3 12
9 0 13 22 8 27 -6z m-4346 -21 c13 -16 12 -17 -3 -4 -10 7 -18 15 -18 17 0 8
8 3 21 -13z m143 -82 c20 -11 35 -32 44 -61 8 -25 23 -52 32 -60 9 -8 20 -24
24 -36 6 -20 3 -21 -46 -19 -29 1 -56 3 -60 4 -17 3 -7 30 17 45 30 20 32 45
5 78 -10 14 -16 29 -12 33 4 5 2 5 -4 2 -6 -3 -18 3 -27 14 -20 23 -12 23 27
0z m770 -43 c9 -9 12 -19 7 -22 -12 -8 -41 4 -41 16 0 6 -6 8 -13 5 -7 -3 -20
1 -30 8 -14 10 -11 12 21 11 22 -1 46 -9 56 -18z m53 -5 c-3 -3 -11 -2 -17 2
-9 6 -9 10 1 16 14 8 27 -7 16 -18z m2338 -32 c3 -5 1 -12 -5 -16 -5 -3 -18
-26 -29 -50 -11 -25 -26 -45 -33 -46 -42 -4 -74 -7 -83 -9 -40 -9 -52 43 -12
56 12 4 44 22 72 40 50 34 79 42 90 25z m-2460 -20 c-8 -14 31 -42 49 -35 21
8 76 -50 76 -82 0 -20 -5 -24 -32 -24 -30 -1 -31 -2 -13 -11 11 -6 32 -25 46
-42 24 -27 30 -30 51 -20 29 13 58 0 58 -26 0 -10 9 -29 21 -42 11 -13 18 -31
16 -41 -3 -10 -2 -20 2 -22 4 -3 8 10 9 27 3 34 22 64 22 33 0 -9 4 -15 9 -11
5 3 12 1 16 -5 3 -5 15 -15 27 -21 15 -8 19 -8 14 0 -9 14 7 14 21 0 7 -7 12
-6 17 6 3 9 2 13 -4 10 -6 -3 -10 -2 -10 4 0 18 63 0 89 -26 21 -20 45 -27 88
-26 7 1 11 -3 8 -7 -3 -4 9 -10 26 -14 24 -5 30 -10 25 -23 -6 -17 -5 -17 8 0
7 9 22 16 32 16 17 -1 17 -2 2 -6 -31 -8 -19 -19 17 -17 25 2 35 -1 35 -11 0
-8 9 -15 20 -15 32 0 123 -40 138 -61 7 -10 22 -19 33 -19 28 0 36 -28 13 -45
-17 -13 -17 -14 -2 -15 9 0 19 -9 23 -20 3 -11 11 -19 17 -17 6 1 14 -11 19
-26 6 -22 4 -29 -9 -33 -9 -3 -27 -11 -39 -16 -26 -13 -143 -17 -143 -5 0 10
-48 9 -54 -2 -3 -5 -38 1 -78 12 -40 11 -81 20 -90 21 -9 0 -15 2 -13 5 6 5
-27 25 -67 42 -16 6 -28 15 -28 20 0 5 -8 9 -17 9 -9 0 -14 2 -11 5 8 8 -63
76 -73 69 -5 -3 -6 1 -3 9 3 8 -2 21 -10 30 -9 9 -14 21 -13 29 2 7 2 10 0 6
-6 -9 -33 2 -33 14 0 5 6 6 13 2 9 -5 9 -3 -1 7 -7 8 -18 14 -25 14 -6 0 -22
16 -35 35 -24 34 -24 34 -20 7 3 -15 1 -30 -3 -33 -5 -3 -9 -13 -9 -23 0 -10
-8 -25 -17 -32 -17 -13 -17 -13 -3 5 8 11 10 17 3 13 -7 -5 -24 0 -38 9 -16
11 -25 12 -25 5 0 -7 -4 -10 -10 -6 -16 10 -58 -6 -63 -24 -6 -26 -53 -32 -73
-10 -16 18 -11 44 7 34 5 -4 9 -1 9 4 0 18 -28 13 -39 -6 -9 -15 -10 -14 -11
10 0 16 5 38 12 50 20 37 29 128 14 143 -8 7 -16 10 -20 7 -3 -4 -6 3 -6 15 0
23 53 58 80 54 9 -2 11 0 5 5 -5 4 -10 15 -10 23 0 10 -8 14 -21 12 -15 -2
-23 4 -28 20 -10 38 -7 100 4 93 6 -4 8 -10 5 -14z m-305 -21 c0 -5 -5 -10
-11 -10 -5 0 -7 5 -4 10 3 6 8 10 11 10 2 0 4 -4 4 -10z m2340 -15 c0 -9 -8
-18 -17 -21 -10 -3 -26 -10 -35 -15 -9 -5 -26 -5 -37 -1 -29 10 -11 33 29 38
19 2 36 6 38 9 10 10 22 5 22 -10z m73 3 c-13 -6 -23 -15 -23 -20 0 -4 -4 -8
-10 -8 -5 0 -10 9 -10 20 0 16 6 20 33 19 30 0 31 -1 10 -11z m-498 -27 c-19
-14 -34 -29 -35 -33 0 -13 -34 -42 -64 -56 l-28 -13 26 46 c25 43 26 45 7 45
-11 0 -23 5 -27 11 -4 7 4 10 22 8 16 -1 40 3 53 8 13 5 37 10 52 10 l28 0
-34 -26z m245 19 c-15 -10 -10 -13 25 -12 17 1 17 0 3 -4 -10 -3 -18 -10 -18
-16 0 -6 -3 -9 -6 -5 -10 10 -62 -21 -68 -40 -3 -10 -3 -42 -1 -70 6 -73 -6
-100 -49 -108 -46 -9 -81 2 -66 20 6 8 18 11 26 8 19 -7 54 25 54 50 0 11 -3
17 -7 14 -3 -4 -15 1 -25 10 -17 15 -20 15 -28 3 -7 -11 -10 -11 -10 -2 0 7
10 16 23 21 20 8 43 46 61 104 3 9 15 17 28 17 13 0 30 5 38 10 8 5 20 10 25
10 6 0 3 -5 -5 -10z m744 -11 c-3 -5 -10 -7 -15 -3 -5 3 -7 10 -3 15 3 5 10 7
15 3 5 -3 7 -10 3 -15z m-1174 2 c0 -9 -24 -21 -42 -21 -6 0 -6 6 2 15 14 16
40 20 40 6z m-432 -83 c26 -4 32 -2 27 10 -4 12 -2 12 8 4 8 -7 16 -11 18 -9
2 1 -2 -4 -10 -10 -8 -7 -26 -13 -40 -13 -24 0 -24 -1 -5 -15 10 -8 14 -15 7
-15 -6 0 -18 -3 -26 -6 -11 -4 -15 1 -14 18 0 13 -3 32 -7 43 -5 11 -4 15 1 9
4 -6 23 -13 41 -16z m720 0 c-3 -7 -11 -13 -19 -13 -8 0 -22 -18 -33 -40 l-19
-40 -11 34 -12 33 -12 -26 c-7 -15 -12 -41 -13 -59 0 -18 -3 -26 -6 -19 -2 6
-9 10 -14 6 -5 -3 -9 4 -9 15 0 46 -10 52 -44 26 -39 -30 -46 -31 -46 -6 0 33
11 51 32 51 12 0 41 10 65 22 35 17 46 19 52 9 6 -10 10 -9 14 3 8 20 81 23
75 4z m-1272 -48 c8 0 14 -4 14 -10 0 -5 8 -10 17 -10 9 0 14 -3 10 -6 -3 -3
-19 -3 -36 1 -26 5 -31 11 -30 33 1 17 3 21 6 10 2 -10 11 -18 19 -18z m2054
20 c-8 -5 -24 -9 -35 -9 -16 1 -16 2 5 9 35 11 48 11 30 0z m-1743 -6 c-3 -3
-12 -4 -19 -1 -8 3 -5 6 6 6 11 1 17 -2 13 -5z m2128 -4 c-3 -5 -1 -10 5 -10
6 0 8 -4 5 -10 -4 -6 -11 -5 -19 3 -10 9 -11 14 -2 19 15 10 18 10 11 -2z
m-28 -56 c-6 -7 -37 7 -37 16 0 15 35 16 38 2 2 -7 2 -16 -1 -18z m-1127 12
c0 -15 -37 -32 -48 -22 -6 6 27 35 41 36 4 0 7 -6 7 -14z m728 -11 c2 -10 0
-15 -6 -11 -6 3 -13 0 -15 -6 -3 -7 -6 0 -6 15 -1 32 21 33 27 2z m-1468 0
c-33 -19 -50 -18 -26 0 11 8 27 15 35 15 10 -1 7 -6 -9 -15z m96 -18 c1 -9 -1
-17 -6 -17 -4 0 -10 -13 -13 -30 -5 -24 -12 -30 -31 -30 -13 0 -31 3 -40 6
-23 9 -19 26 4 19 14 -4 22 -1 28 12 22 56 52 77 58 40z m-69 -33 c-3 -4 -14
-3 -24 0 -15 6 -15 8 -3 16 16 10 39 -4 27 -16z m219 -11 c28 -30 33 -43 32
-79 -2 -40 -4 -43 -35 -46 -19 -2 -36 -2 -38 1 -11 10 -4 78 10 98 13 19 13
22 0 27 -14 5 -22 36 -9 36 4 0 21 -16 40 -37z m-76 18 c0 -5 -7 -14 -15 -21
-12 -10 -15 -10 -15 2 0 8 3 18 7 21 9 10 23 9 23 -2z m950 -37 c0 -22 -2 -24
-15 -14 -11 9 -12 15 -2 25 16 19 17 19 17 -11z m-553 -16 c15 9 20 8 20 -4 0
-7 -7 -14 -16 -14 -13 0 -13 -2 -3 -9 11 -6 7 -13 -13 -29 -15 -12 -31 -19
-36 -16 -5 3 -17 0 -28 -6 -13 -7 -22 -7 -26 0 -3 5 1 10 9 10 9 0 16 7 16 15
0 8 4 15 9 15 5 0 7 10 4 23 -3 16 -2 18 5 9 7 -11 11 -10 16 4 6 14 9 16 15
5 6 -10 13 -10 28 -3z m-531 -18 c35 0 37 -1 22 -16 -23 -23 -98 -10 -98 17 0
16 3 18 19 9 11 -5 37 -10 57 -10z m802 -44 c-13 -14 -28 -12 -28 5 0 5 9 9
20 9 17 0 19 -2 8 -14z m-1721 -53 c-4 -3 -2 -12 4 -20 8 -9 8 -13 1 -13 -6 0
-14 5 -17 10 -6 10 2 30 12 30 4 0 3 -3 0 -7z m1383 -13 c0 -5 -4 -10 -9 -10
-6 0 -13 5 -16 10 -3 6 1 10 9 10 9 0 16 -4 16 -10z m-689 -308 c8 13 77 0
117 -23 18 -10 44 -19 58 -19 14 0 34 -5 44 -10 10 -6 46 -12 78 -14 42 -4 70
-12 97 -30 21 -14 42 -26 47 -26 5 0 7 -3 4 -8 -2 -4 16 -7 42 -6 33 1 41 -1
29 -8 -10 -5 -21 -6 -27 -3 -5 3 -18 0 -28 -6 -26 -16 -6 -42 21 -27 10 5 27
6 39 2 17 -5 20 -3 15 10 -4 11 1 18 18 22 14 3 22 10 19 15 -3 5 2 6 10 3 21
-8 10 -24 -16 -24 -18 0 -19 -2 -7 -16 19 -23 20 -44 2 -37 -12 5 -12 7 -1 14
9 6 9 9 1 9 -21 0 -26 -21 -9 -39 16 -18 71 -18 82 0 9 15 21 10 27 -12 4 -15
2 -19 -9 -15 -9 3 -12 2 -9 -5 4 -6 20 -8 38 -4 24 5 28 4 17 -4 -13 -9 -13
-11 0 -11 9 0 22 6 29 13 10 10 11 9 5 -6 -5 -13 -2 -16 10 -11 9 3 16 2 16
-4 0 -18 -22 -19 -84 -5 -54 13 -60 13 -69 -3 -5 -9 -12 -12 -16 -7 -3 6 -16
13 -28 17 -26 8 -30 -4 -11 -33 12 -19 5 -51 -10 -51 -5 0 -7 11 -4 25 2 14 0
25 -5 25 -5 0 -9 -10 -10 -22 -1 -11 -8 -25 -15 -29 -8 -6 -1 -9 20 -9 26 0
34 5 42 26 6 14 7 30 4 36 -4 6 3 5 15 -2 12 -6 27 -9 34 -6 7 2 4 5 -6 5 -27
1 -10 21 18 21 27 0 42 -15 22 -23 -14 -5 -15 -73 -1 -87 16 -16 56 13 68 49
14 44 45 66 64 45 11 -12 9 -14 -13 -14 -14 0 -25 -2 -25 -4 0 -2 -3 -13 -6
-23 -5 -17 -5 -17 6 0 17 26 27 21 34 -18 4 -19 12 -35 18 -35 5 0 8 -6 5 -14
-5 -12 -1 -13 24 -4 36 12 39 18 41 63 1 23 8 39 19 46 31 16 44 10 21 -11
-12 -12 -22 -31 -22 -43 0 -17 2 -19 9 -7 6 8 8 17 5 21 -2 4 0 10 5 13 10 7
33 -49 24 -58 -4 -3 4 -6 17 -6 19 0 21 -3 12 -12 -15 -15 -16 -38 -1 -38 5 0
7 5 4 11 -4 5 7 15 25 22 29 11 31 15 29 52 -3 44 5 65 24 65 7 -1 6 -5 -4
-13 -17 -14 -11 -58 9 -65 7 -2 10 2 6 12 -3 9 -1 16 5 16 6 0 11 -7 11 -15 0
-8 6 -15 13 -15 9 0 9 -3 -1 -9 -10 -6 -6 -10 15 -16 15 -5 31 -8 36 -7 13 3
7 -11 -10 -24 -17 -13 -17 -13 -1 -14 16 0 16 -3 -2 -32 -11 -18 -20 -38 -20
-45 0 -13 40 -57 66 -71 8 -5 16 -16 18 -24 1 -9 8 -23 15 -32 16 -18 1 -22
-17 -4 -7 7 -12 8 -12 2 0 -6 5 -15 10 -20 7 -7 -6 -26 -40 -57 -28 -26 -53
-47 -55 -47 -11 0 -4 28 13 46 43 49 57 69 40 55 -10 -7 -18 -10 -18 -5 0 5
-4 2 -9 -5 -8 -12 -12 -9 -22 13 -10 22 -10 31 0 48 11 17 10 22 -1 29 -22 14
-26 11 -60 -46 -21 -36 -36 -51 -42 -45 -17 17 -26 11 -26 -17 0 -33 -26 -63
-55 -63 -16 0 -25 -8 -29 -24 -12 -50 -60 -43 -74 12 -6 20 -10 29 -11 18 -1
-10 -6 -16 -13 -13 -54 20 -60 20 -53 -3 6 -19 4 -21 -16 -15 -18 6 -21 4 -15
-10 5 -15 4 -16 -9 -5 -11 9 -18 10 -28 1 -8 -6 -17 -8 -20 -4 -4 3 -7 1 -7
-6 0 -7 -9 -9 -25 -5 -18 4 -27 1 -31 -10 -3 -9 -13 -16 -22 -16 -13 0 -12 -3
3 -14 11 -8 25 -11 33 -8 10 3 13 -1 10 -14 -4 -21 -36 -21 -51 -1 -6 8 -7 6
-4 -5 7 -19 -17 -31 -44 -23 -9 3 -20 1 -24 -5 -3 -5 -15 -10 -26 -10 -10 0
-19 -5 -19 -11 0 -5 -4 -7 -10 -4 -6 4 -4 17 6 36 19 37 4 63 -33 56 -17 -3
-23 0 -23 14 0 11 7 19 15 19 23 0 18 16 -15 43 -25 22 -35 24 -61 17 -33 -10
-56 -24 -76 -48 -10 -12 -15 -13 -27 -3 -8 7 -19 10 -25 7 -13 -8 -42 4 -35
15 3 5 0 9 -5 9 -6 0 -11 7 -11 15 0 17 -9 19 -29 6 -10 -6 -11 -13 -2 -29 24
-45 15 -55 -43 -50 -46 4 -53 2 -49 -11 4 -13 2 -13 -10 2 -8 9 -22 17 -31 17
-20 0 -21 14 -1 30 12 10 13 16 4 27 -10 11 -9 12 5 7 12 -4 15 -2 10 9 -3 9
-13 13 -26 9 -19 -5 -20 -2 -14 30 6 31 3 39 -23 61 -23 19 -27 27 -18 36 7 7
8 11 2 9 -16 -5 -61 32 -50 40 10 7 19 32 11 32 -2 0 -22 -7 -44 -14 -25 -9
-44 -11 -47 -5 -4 5 -19 7 -35 4 -27 -5 -30 -2 -40 34 -8 32 -7 47 11 90 12
28 26 51 30 51 5 0 9 15 9 33 0 54 29 149 57 187 14 19 46 56 70 81 37 39 42
47 28 53 -13 5 -15 9 -6 20 8 10 22 11 54 6 25 -5 44 -4 48 2z m449 -92 c0
-13 -30 -13 -50 0 -11 7 -7 10 18 10 17 0 32 -4 32 -10z m1120 -100 c0 -5 -4
-10 -10 -10 -5 0 -10 5 -10 10 0 6 5 10 10 10 6 0 10 -4 10 -10z m-956 -6 c9
-3 13 -10 10 -15 -8 -14 -21 -11 -28 6 -6 17 -4 18 18 9z m911 -4 c-3 -5 -12
-10 -18 -10 -7 0 -6 4 3 10 19 12 23 12 15 0z m-735 -32 c0 -11 -7 -18 -17
-18 -16 0 -16 2 -3 11 12 8 9 10 -12 6 -16 -2 -25 0 -22 7 7 19 54 13 54 -6z
m524 -128 c-6 -5 -24 21 -24 34 0 6 6 1 14 -10 8 -10 12 -21 10 -24z m-617 8
c-3 -8 -6 -5 -6 6 -1 11 2 17 5 13 3 -3 4 -12 1 -19z m506 -26 l32 -9 -38 -12
c-21 -7 -41 -10 -44 -7 -4 3 1 6 11 6 13 0 15 4 6 19 -5 11 -9 28 -9 38 1 13
3 12 6 -4 3 -15 15 -26 36 -31z m12 9 c-6 -5 -25 10 -25 20 0 5 6 4 14 -3 8
-7 12 -15 11 -17z m255 -30 c16 -30 12 -36 -10 -16 -21 19 -26 35 -10 35 5 0
14 -9 20 -19z m158 -29 c8 -4 13 -10 13 -14 -1 -5 -1 -22 -1 -39 0 -17 -4 -28
-10 -24 -5 3 -7 18 -4 33 4 24 0 29 -35 46 -23 11 -41 23 -41 27 0 6 33 -6 78
-29z m172 2 c0 -8 -4 -12 -10 -9 -5 3 -10 13 -10 21 0 8 5 12 10 9 6 -3 10
-13 10 -21z m-512 -19 c-5 -22 -2 -25 16 -20 14 4 17 3 8 -3 -10 -7 -7 -16 17
-40 32 -31 37 -47 23 -70 -6 -9 -12 -6 -20 13 -6 14 -7 25 -3 25 5 0 12 -8 14
-17 4 -16 5 -16 6 -1 2 27 -21 33 -38 11 -64 -81 -61 -78 -61 -58 0 17 -4 16
-26 -10 -14 -16 -23 -24 -19 -17 4 7 -11 30 -34 53 -35 37 -39 44 -29 63 7 11
11 30 9 42 -2 18 4 21 43 22 25 1 48 -2 51 -8 11 -18 25 -10 25 15 0 14 5 25
11 25 7 0 9 -10 7 -25z m132 8 c0 -15 2 -16 10 -3 8 13 10 12 10 -2 0 -10 5
-18 11 -18 5 0 7 5 3 12 -4 6 -3 8 3 5 14 -9 10 -75 -7 -112 l-14 -30 -6 40
c-4 22 -8 32 -9 23 0 -10 -7 -15 -15 -12 -8 3 -11 15 -8 29 2 14 -3 36 -12 49
-14 23 -14 25 2 29 30 8 32 7 32 -10z m-240 -3 c0 -5 -2 -10 -4 -10 -3 0 -8 5
-11 10 -3 6 -1 10 4 10 6 0 11 -4 11 -10z m328 -70 c-7 -11 -16 -20 -20 -20
-11 0 -10 9 5 25 18 21 29 18 15 -5z m80 -111 c-12 -22 -24 -36 -26 -30 -2 5
2 20 9 33 8 13 14 26 15 31 1 4 2 10 3 13 0 3 6 2 11 -1 7 -4 2 -21 -12 -46z
m-190 10 c11 -18 8 -26 -25 -71 -42 -58 -55 -51 -23 12 13 26 19 51 16 66 -7
28 13 24 32 -7z m472 8 c0 -5 6 -7 13 -4 10 4 13 -2 9 -21 -4 -22 -6 -23 -17
-8 -17 22 -45 10 -45 -20 0 -14 -6 -24 -14 -24 -18 0 -27 35 -13 49 8 8 8 11
-1 11 -6 0 -9 6 -7 13 6 14 75 18 75 4z m-2141 -11 c10 -12 8 -13 -8 -9 -12 3
-21 9 -21 14 0 14 16 11 29 -5z m89 -24 c10 -10 18 -27 16 -36 -2 -16 -1 -16
14 -3 35 29 41 29 37 -7 -2 -28 0 -33 15 -29 12 3 20 -2 25 -17 4 -12 4 -24 1
-27 -3 -4 -6 -1 -6 6 0 7 -4 9 -10 6 -6 -3 -7 1 -4 10 5 11 2 14 -10 9 -9 -3
-16 -10 -16 -15 0 -17 -62 15 -70 37 -5 12 -21 30 -35 40 -22 15 -38 43 -16
29 5 -3 12 -1 16 5 9 15 23 12 43 -8z m1969 -44 c-3 -8 -6 -5 -6 6 -1 11 2 17
5 13 3 -3 4 -12 1 -19z m13 -22 c0 -2 -8 -13 -19 -24 -23 -27 -53 -30 -44 -4
4 9 10 19 14 22 9 6 49 11 49 6z m-290 -25 c0 -5 -7 -11 -14 -14 -10 -4 -13
-1 -9 9 6 15 23 19 23 5z m-264 -46 c-7 -20 1 -19 22 1 10 11 17 13 20 5 2 -6
9 -11 15 -11 7 0 22 -15 35 -33 l23 -32 -27 -21 c-26 -21 -27 -21 -45 -3 -23
23 -45 24 -53 4 -3 -8 -10 -15 -16 -15 -15 0 -8 58 7 65 8 3 12 15 9 30 -3 14
0 25 6 25 5 0 8 -7 4 -15z m-1292 -10 c3 -9 0 -15 -9 -15 -9 0 -12 6 -9 15 4
8 7 15 9 15 2 0 5 -7 9 -15z m1514 9 c35 -10 22 -36 -31 -61 -27 -13 -50 -23
-52 -23 -2 0 -6 12 -10 27 -3 15 -12 31 -18 35 -6 3 4 11 24 16 42 12 58 13
87 6z m292 -9 c0 -12 -19 -12 -23 0 -4 9 -1 12 9 8 7 -3 14 -7 14 -8z m-90
-46 c0 -14 -26 -39 -39 -39 -6 0 -11 7 -11 15 0 8 7 15 15 15 8 0 15 7 15 16
0 8 5 12 10 9 6 -3 10 -11 10 -16z m-1463 -5 c-10 -11 -47 -12 -53 -2 -5 7 0
9 14 6 12 -4 22 -2 22 4 0 5 5 6 11 3 6 -4 8 -9 6 -11z m516 -51 c-6 -16 -20
-17 -29 -1 -4 7 -3 8 4 4 8 -5 12 2 13 21 0 24 1 25 8 8 5 -11 6 -26 4 -32z
m-764 14 c-2 -1 -13 -9 -24 -17 -19 -14 -19 -14 -6 3 7 9 18 17 24 17 6 0 8
-1 6 -3z m191 -29 c11 3 12 2 4 -8 -15 -15 -58 5 -48 22 5 8 11 6 18 -4 6 -8
18 -13 26 -10z m1031 -12 c8 -28 8 -28 -28 -23 -50 8 -64 24 -38 43 29 22 57
14 66 -20z m-811 20 c0 -3 -4 -8 -10 -11 -5 -3 -10 -1 -10 4 0 6 5 11 10 11 6
0 10 -2 10 -4z m437 -38 c-3 -8 -6 -5 -6 6 -1 11 2 17 5 13 3 -3 4 -12 1 -19z
m-166 -51 c-15 -15 -24 -2 -16 24 7 20 8 21 17 5 7 -12 7 -21 -1 -29z m-426
24 c7 -12 -31 -24 -47 -15 -8 5 -6 10 8 15 26 10 32 10 39 0z m280 -29 c-11
-2 -23 -9 -27 -16 -5 -8 -8 -7 -8 3 0 7 -6 11 -14 8 -11 -4 -11 -1 -2 18 10
22 12 23 41 7 26 -14 28 -16 10 -20z m513 16 c3 -16 -24 -32 -39 -22 -13 8 10
46 24 41 7 -2 13 -11 15 -19z m49 0 c-3 -8 -6 -5 -6 6 -1 11 2 17 5 13 3 -3 4
-12 1 -19z m-256 -11 c-10 -9 -11 -8 -5 6 3 10 9 15 12 12 3 -3 0 -11 -7 -18z
m138 -23 c23 15 10 -4 -15 -20 -22 -15 -27 -15 -35 -3 -6 10 -9 10 -9 2 0 -7
-6 -13 -12 -13 -7 1 0 12 17 25 19 16 32 20 36 13 4 -6 12 -7 18 -4z m-641
-12 c4 -14 0 -15 -22 -6 -9 3 -16 10 -16 14 0 12 33 5 38 -8z m242 8 c0 -5 -2
-10 -4 -10 -3 0 -8 5 -11 10 -3 6 -1 10 4 10 6 0 11 -4 11 -10z m-223 -33 c7
0 13 -12 13 -26 0 -20 3 -22 9 -11 6 8 8 17 5 21 -9 15 29 18 66 6 40 -12 63
-37 35 -37 -11 0 -15 -9 -13 -31 3 -40 18 -49 18 -11 0 17 6 32 13 35 9 3 12
16 9 36 -4 27 -2 31 19 30 17 -1 19 -3 7 -6 -17 -4 -26 -24 -10 -22 18 3 32
-2 32 -12 0 -5 -4 -7 -10 -4 -5 3 -10 1 -10 -4 0 -6 7 -11 16 -11 8 0 13 -4
10 -9 -3 -5 0 -9 7 -8 6 0 23 -1 36 -1 24 -2 24 -3 6 -16 -17 -12 -18 -18 -7
-40 11 -26 34 -37 30 -14 -2 6 8 15 22 19 l25 7 -25 2 c-25 1 -25 1 -3 10 15
6 37 4 68 -7 42 -14 44 -16 28 -29 -17 -13 -17 -14 1 -7 13 4 17 3 12 -5 -5
-8 -2 -10 9 -6 11 5 14 2 8 -12 -4 -11 -3 -15 4 -11 6 4 16 0 23 -8 10 -13 16
-11 40 12 16 15 27 30 24 35 -3 4 0 8 5 8 18 0 12 -22 -11 -49 l-23 -24 40 23
40 23 -29 -31 c-16 -17 -33 -29 -37 -26 -4 2 -10 0 -14 -6 -3 -5 -16 -10 -28
-10 -17 0 -19 -2 -7 -10 9 -5 19 -5 27 2 9 7 13 7 13 -1 0 -16 14 -13 40 9 12
11 31 22 41 25 10 3 16 12 13 19 -3 7 2 16 10 19 11 4 13 1 9 -10 -5 -12 -2
-15 8 -11 10 4 15 -2 17 -20 3 -32 6 -35 41 -35 21 0 26 -3 18 -12 -7 -7 -51
-12 -115 -12 -75 -1 -107 -5 -113 -15 -7 -10 -9 -9 -9 4 0 24 -38 17 -97 -18
-31 -18 -42 -29 -32 -32 9 -1 21 -13 27 -25 l11 -22 0 21 c1 14 7 21 19 20 11
-1 17 6 17 19 0 13 7 20 20 20 14 0 20 -7 19 -23 0 -12 3 -22 8 -22 5 0 4 -8
-1 -19 -10 -18 -6 -31 10 -31 4 0 9 10 11 22 2 12 9 23 16 26 11 3 12 0 3 -16
-15 -28 -14 -37 4 -22 10 9 23 9 47 1 18 -5 68 -8 110 -6 43 2 80 1 82 -3 6
-10 -73 -16 -212 -17 -67 0 -122 -3 -122 -6 0 -4 20 -12 45 -18 25 -6 43 -16
40 -21 -3 -6 1 -10 9 -10 17 0 22 -16 7 -22 -6 -1 -11 -71 -13 -155 -2 -83 0
-146 3 -141 4 6 10 72 14 147 7 146 11 171 26 171 6 0 8 -4 5 -9 -3 -5 -7
-102 -10 -217 -2 -115 0 -200 4 -188 5 11 13 101 19 199 6 98 13 181 16 183 3
3 5 -62 6 -144 2 -201 7 -276 20 -288 8 -8 10 -4 9 14 -1 14 -1 115 0 225 l3
200 12 -188 c12 -171 17 -199 50 -303 20 -63 41 -114 46 -114 12 0 13 -6 -21
96 -22 63 -33 122 -40 204 -17 198 -10 243 11 75 18 -140 22 -156 64 -240 25
-49 45 -95 45 -101 0 -7 7 -14 15 -18 22 -8 19 2 -20 75 -36 68 -66 165 -64
209 1 21 2 19 10 -10 14 -52 41 -110 51 -110 4 0 7 -4 5 -9 -1 -5 13 -23 30
-40 18 -17 29 -31 25 -31 -4 0 1 -5 11 -11 9 -6 15 -14 12 -20 -4 -5 -1 -9 5
-9 6 0 9 -4 5 -9 -8 -13 15 -25 26 -14 6 6 -10 33 -40 71 -45 56 -78 128 -66
141 8 7 18 -7 20 -28 2 -24 73 -94 87 -85 6 4 8 0 4 -12 -3 -11 -1 -26 5 -34
8 -12 9 -10 4 8 -8 27 6 29 30 2 17 -19 17 -20 1 -20 -9 0 -15 -4 -12 -8 6
-10 66 -14 66 -5 0 2 -30 34 -67 69 -36 35 -63 67 -59 71 3 4 20 -8 37 -25 17
-18 36 -32 41 -32 17 0 58 -44 58 -63 0 -15 3 -16 23 -6 20 11 21 11 9 -4 -7
-9 -27 -19 -44 -22 -19 -5 -26 -10 -18 -15 8 -5 7 -9 -5 -14 -11 -4 -14 -12
-10 -26 4 -14 2 -20 -9 -20 -24 0 -29 19 -11 46 l16 25 -38 -20 c-34 -17 -108
-37 -123 -34 -3 1 -3 -20 -1 -45 3 -42 2 -45 -13 -33 -9 7 -16 21 -16 30 0 31
-15 42 -41 32 l-24 -10 28 0 c15 -1 27 -5 27 -11 0 -5 -13 -7 -32 -3 -21 4
-29 3 -24 -5 4 -6 4 -23 0 -37 -6 -26 -7 -26 -21 -5 -8 11 -11 25 -7 31 4 8 0
9 -15 4 -14 -4 -23 -2 -27 9 -8 20 -34 9 -34 -14 0 -10 -6 -21 -12 -23 -10 -4
-9 -8 2 -16 8 -5 11 -13 7 -17 -9 -9 -36 26 -37 47 0 10 -11 20 -26 23 -32 8
-34 7 -37 -31 -2 -25 -6 -30 -25 -29 -19 1 -22 6 -19 24 3 16 -4 29 -22 43
l-26 21 -3 -21 c-2 -12 -8 -21 -13 -21 -14 0 -11 -17 6 -33 12 -12 12 -17 1
-26 -7 -6 -11 -21 -9 -34 4 -25 -12 -55 -23 -44 -4 4 -2 13 4 19 19 19 14 33
-6 15 -10 -10 -24 -17 -30 -17 -7 0 -12 -5 -12 -11 0 -5 5 -7 11 -4 6 4 17 -2
25 -13 9 -14 23 -19 41 -17 16 2 34 -2 42 -9 11 -8 13 -8 8 0 -4 7 5 14 24 18
26 5 30 10 26 28 -6 22 7 48 25 48 5 0 7 -13 3 -29 -5 -23 -2 -32 13 -40 20
-11 40 -10 60 3 7 4 12 4 11 -1 -5 -27 21 -63 44 -63 7 0 6 4 -3 10 -11 8 -2
10 32 8 27 -1 53 4 63 12 12 10 19 10 27 2 15 -15 52 -16 43 -2 -3 6 0 10 7
10 10 0 9 3 -2 11 -10 7 -11 9 -2 7 8 -2 12 -6 10 -10 -5 -10 48 -48 67 -48
15 0 15 1 1 16 -20 20 -20 25 1 17 11 -4 14 -3 9 5 -5 8 0 12 14 12 11 0 23 7
26 15 4 8 15 15 25 15 24 0 25 -20 2 -21 -12 0 -13 -2 -5 -6 19 -7 39 13 46
49 8 39 20 29 21 -17 1 -23 -3 -35 -11 -35 -8 0 -11 -6 -8 -15 4 -8 2 -15 -2
-16 -5 0 -26 -2 -46 -3 -47 -2 -62 -16 -17 -16 30 0 93 16 140 35 12 4 18 -1
21 -20 3 -14 1 -28 -4 -31 -5 -4 -8 -15 -5 -25 3 -11 0 -19 -6 -20 -7 0 -4 -4
6 -8 10 -4 19 -11 19 -16 0 -6 4 -16 10 -22 14 -17 -13 -18 -30 -1 -10 10 -15
10 -22 -2 -7 -10 -10 -11 -10 -2 0 6 -5 12 -11 12 -7 0 -9 -9 -6 -23 l6 -22
-19 22 c-10 13 -24 23 -31 23 -9 0 -9 -4 2 -17 22 -28 40 -63 32 -63 -5 0 -23
23 -41 50 -30 47 -61 69 -48 35 3 -8 1 -15 -5 -15 -6 0 -9 -6 -6 -12 2 -7 11
-12 21 -10 10 2 16 -4 16 -18 0 -31 -29 -24 -82 21 -31 26 -48 35 -48 25 0 -8
11 -23 25 -34 32 -25 32 -34 1 -30 -27 3 -105 -40 -106 -58 0 -21 44 -24 103
-7 39 11 54 19 45 24 -7 5 -8 9 -2 9 6 0 14 -3 18 -7 4 -4 23 -9 43 -10 46 -3
90 -21 97 -39 4 -10 22 -14 57 -14 50 0 51 -1 45 -25 -5 -21 -3 -25 16 -26 22
0 22 -1 5 -12 -10 -7 -26 -18 -35 -25 -16 -13 -16 -13 0 -9 20 7 30 -23 16
-47 -14 -26 -17 -70 -6 -77 11 -7 -11 -69 -24 -69 -4 0 -5 -7 -2 -15 5 -13 3
-13 -22 0 -16 8 -53 20 -83 26 -51 10 -54 12 -36 25 13 9 21 11 25 4 4 -7 11
-5 20 5 7 8 20 15 29 14 10 0 6 -4 -9 -10 -20 -8 -22 -12 -10 -19 24 -15 60
-12 60 5 0 17 -35 55 -50 55 -5 0 -10 4 -10 9 0 5 10 7 23 5 12 -2 16 -2 10 2
-7 3 -22 23 -34 44 -15 27 -31 40 -53 45 -17 4 -25 9 -18 12 7 3 26 0 43 -6
26 -9 30 -8 25 4 -4 11 3 15 27 16 18 1 38 1 45 0 6 -1 12 5 12 14 0 12 -15
15 -75 17 -41 1 -85 2 -97 2 -13 1 -26 6 -30 11 -5 6 -8 5 -8 -2 0 -9 -7 -10
-26 -3 -35 14 -77 12 -93 -2 -9 -8 -11 -8 -8 -2 4 7 1 14 -6 16 -6 3 -136 4
-289 4 -152 -1 -275 1 -273 4 2 3 -5 7 -16 7 -11 1 -17 -2 -14 -7 3 -6 -1 -7
-9 -4 -9 3 -14 9 -12 13 2 3 -20 6 -49 6 -29 0 -51 -3 -48 -7 2 -5 -3 -8 -11
-8 -9 0 -16 5 -16 11 0 8 -5 7 -15 -1 -19 -16 -42 1 -30 20 6 9 29 11 79 7 39
-3 62 -2 51 2 -14 6 -6 10 33 15 28 4 52 10 52 15 0 12 62 10 105 -4 66 -22
115 -28 115 -13 0 7 3 24 7 37 6 23 4 24 -28 19 -21 -4 -45 -1 -59 8 -14 7
-20 13 -15 14 6 0 10 13 10 29 1 27 -4 31 -42 41 -31 7 -49 7 -63 0 -14 -7
-20 -7 -20 0 0 18 -28 11 -35 -9 -3 -10 -15 -27 -27 -37 l-22 -19 17 25 c24
35 30 50 24 57 -3 3 -13 -2 -22 -10 -12 -12 -22 -14 -40 -7 -18 7 -23 6 -19
-3 2 -7 -9 -28 -26 -47 l-31 -35 22 44 c20 43 20 45 3 58 -17 12 -17 13 4 13
29 0 32 49 3 57 -21 5 -34 27 -35 58 -1 11 -10 21 -22 25 -13 3 -20 12 -18 23
1 9 -2 17 -7 17 -5 0 -9 -9 -9 -19 0 -11 -3 -21 -7 -24 -5 -2 -3 -2 4 -1 7 2
20 -4 29 -13 15 -15 15 -18 -2 -30 -19 -14 -28 -43 -13 -43 5 0 9 -7 9 -15 0
-14 12 -19 32 -16 5 0 7 -2 7 -7 -1 -4 0 -9 1 -12 9 -24 3 -54 -17 -77 -14
-15 -22 -22 -18 -15 4 7 0 12 -9 12 -9 0 -23 11 -32 25 -10 15 -26 25 -40 25
-13 0 -24 5 -24 11 0 5 -4 8 -9 4 -5 -3 -12 -1 -16 5 -3 5 -19 10 -34 10 -25
0 -32 -7 -59 -69 -17 -37 -38 -71 -46 -74 -17 -7 -22 8 -6 18 6 3 10 11 10 16
0 6 -7 4 -15 -5 -8 -8 -15 -19 -15 -24 0 -6 -6 -13 -12 -15 -8 -4 -4 -8 10
-13 l23 -7 -23 -12 c-28 -15 -55 0 -37 21 6 7 8 23 4 36 -4 16 -3 19 3 10 7
-11 10 -9 15 8 4 16 2 20 -12 15 -13 -4 -17 0 -16 15 1 11 4 23 8 26 4 4 7 16
7 26 0 10 7 18 16 18 8 0 13 4 10 9 -3 5 8 15 25 23 27 13 28 16 14 28 -14 12
-21 9 -51 -24 -19 -20 -34 -46 -34 -56 0 -11 -9 -28 -21 -39 -12 -11 -18 -24
-15 -30 4 -6 1 -9 -7 -5 -17 6 -16 36 1 42 6 2 8 10 5 19 -4 10 -2 14 5 9 6
-3 14 3 18 16 4 15 2 25 -8 32 -12 7 -13 17 -5 52 9 37 8 47 -8 64 -10 11 -14
20 -8 20 6 0 8 11 5 25 -3 17 1 27 12 31 12 5 14 15 9 52 -3 26 -9 52 -14 58
-5 6 0 27 10 50 10 21 23 52 30 68 l12 30 18 -28 c16 -25 19 -26 26 -9 18 43
15 75 -7 93 -22 18 -23 18 -4 39 19 21 56 29 56 12 0 -5 6 -11 13 -14 20 -7
19 34 -1 49 -16 12 -15 13 4 14 12 0 27 -7 34 -15 7 -8 20 -15 29 -15 14 1 14
2 -1 14 -24 18 -23 29 1 21 13 -4 23 0 30 12 8 15 13 16 30 5 18 -10 24 -9 42
9 11 11 27 18 35 15 8 -3 20 -9 28 -12 9 -3 19 3 26 16 6 12 17 19 25 17 7 -3
25 1 40 9 15 8 42 14 60 14 69 0 103 58 129 219 l13 83 -24 9 c-14 5 -35 6
-47 3 -15 -3 -36 3 -61 20 -21 14 -50 26 -66 26 -15 0 -31 5 -35 11 -3 6 -30
26 -59 45 -29 18 -64 48 -76 66 -28 39 -29 96 -2 115 11 9 14 16 7 21 -6 4 -9
26 -6 49 4 41 6 43 30 36 15 -3 32 -6 39 -6z m500 -132 c0 -8 -3 -13 -6 -10
-3 3 -11 -5 -18 -17 l-14 -23 7 24 c4 17 3 21 -6 16 -9 -5 -11 -4 -6 4 4 6 11
9 16 6 5 -3 11 -1 15 5 9 14 12 13 12 -5z m280 -47 c7 -12 17 -57 10 -47 -21
28 -35 59 -28 59 5 0 13 -6 18 -12z m-20 -64 c-3 -3 -12 -4 -19 -1 -8 3 -5 6
6 6 11 1 17 -2 13 -5z m-166 -78 c-14 -17 2 -31 22 -20 8 5 8 2 -2 -9 -19 -24
-57 -22 -57 2 0 11 5 19 11 18 5 -1 9 4 8 11 -2 6 4 12 13 12 13 0 14 -3 5
-14z m196 -9 c-3 -8 -1 -20 4 -28 9 -14 -10 -27 -41 -28 -11 0 -10 4 5 15 11
8 21 19 21 24 1 6 2 15 3 20 0 6 4 10 7 10 3 0 4 -6 1 -13z m161 -418 c13 -10
30 -15 38 -12 8 3 14 -1 14 -8 0 -7 8 -21 18 -32 18 -22 2 -16 -28 9 -8 6 -42
26 -75 43 -51 26 -55 30 -25 24 19 -3 45 -14 58 -24z m150 -40 c2 -12 -4 -15
-28 -11 -25 4 -28 7 -19 19 15 17 43 13 47 -8z m72 -36 c0 -7 -39 17 -46 28
-3 6 5 3 20 -6 14 -10 26 -19 26 -22z m70 2 c0 -8 5 -15 10 -15 7 0 7 -6 0
-19 -10 -19 -11 -19 -40 -3 -16 9 -30 22 -30 29 0 10 9 14 53 22 4 0 7 -6 7
-14z m80 -86 c0 -8 -47 -2 -63 8 -5 3 2 11 15 18 19 10 25 9 36 -3 6 -9 12
-19 12 -23z m-343 -20 c17 -11 34 -27 38 -37 4 -12 0 -11 -18 6 -13 12 -28 22
-33 22 -6 0 -23 14 -40 32 -26 29 -26 30 -4 15 14 -10 39 -27 57 -38z m258
-19 c3 -5 1 -10 -4 -10 -6 0 -11 5 -11 10 0 6 2 10 4 10 3 0 8 -4 11 -10z m45
6 c0 -2 -7 -6 -15 -10 -8 -3 -15 -1 -15 4 0 6 7 10 15 10 8 0 15 -2 15 -4z
m-3297 -50 c4 -10 1 -13 -9 -9 -7 3 -14 9 -14 14 0 14 17 10 23 -5z m-85 -10
c-7 -8 -16 -12 -21 -9 -11 7 2 23 19 23 12 0 12 -2 2 -14z m3212 4 c0 -5 -2
-10 -4 -10 -3 0 -8 5 -11 10 -3 6 -1 10 4 10 6 0 11 -4 11 -10z m-3170 -20 c0
-5 -2 -10 -4 -10 -3 0 -8 5 -11 10 -3 6 -1 10 4 10 6 0 11 -4 11 -10z m3130
-11 c0 -5 -4 -9 -10 -9 -5 0 -10 7 -10 16 0 8 5 12 10 9 6 -3 10 -10 10 -16z
m-3060 -3 c0 -8 5 -16 12 -18 15 -5 1 -28 -18 -28 -9 0 -14 11 -14 30 0 17 5
30 10 30 6 0 10 -6 10 -14z m3018 -35 c3 -8 -1 -12 -9 -9 -7 2 -15 10 -17 17
-3 8 1 12 9 9 7 -2 15 -10 17 -17z m-174 -36 c7 -19 -3 -47 -15 -39 -6 3 -7
15 -3 27 5 18 4 20 -7 10 -7 -7 -18 -13 -23 -13 -12 1 23 30 35 30 4 0 9 -7
13 -15z m251 -45 c3 -5 1 -10 -4 -10 -6 0 -11 5 -11 10 0 6 2 10 4 10 3 0 8
-4 11 -10z m-35 -14 c0 -3 -4 -8 -10 -11 -5 -3 -10 -1 -10 4 0 6 5 11 10 11 6
0 10 -2 10 -4z m-80 -20 c0 -3 -7 -12 -16 -20 -22 -23 -37 -20 -16 3 16 18 32
26 32 17z m-566 -58 c-4 -7 -3 -8 4 -4 8 5 12 -2 12 -18 0 -14 -5 -26 -11 -26
-5 0 -7 5 -3 12 4 7 3 8 -4 4 -8 -4 -16 3 -22 19 -15 39 -13 47 10 35 11 -6
17 -16 14 -22z m376 13 c0 -10 -7 -24 -15 -31 -12 -10 -15 -10 -15 3 0 23 11
47 21 47 5 0 9 -8 9 -19z m80 5 c0 -8 -4 -18 -10 -21 -5 -3 -10 3 -10 14 0 12
5 21 10 21 6 0 10 -6 10 -14z m45 4 c3 -5 1 -10 -4 -10 -6 0 -11 5 -11 10 0 6
2 10 4 10 3 0 8 -4 11 -10z m-345 -29 c0 -22 -19 -41 -42 -41 -15 0 -17 4 -9
18 7 13 7 22 -1 30 -8 8 -5 9 11 5 13 -3 21 -1 21 6 0 7 5 9 10 6 6 -3 10 -14
10 -24z m140 -1 c0 -5 -4 -10 -10 -10 -5 0 -10 5 -10 10 0 6 5 10 10 10 6 0
10 -4 10 -10z m-60 -16 c0 -8 -4 -12 -10 -9 -5 3 -10 10 -10 16 0 5 5 9 10 9
6 0 10 -7 10 -16z m450 -29 c0 -14 -4 -25 -10 -25 -11 0 -14 33 -3 43 11 11
13 8 13 -18z m131 -7 c8 -15 8 -18 0 -14 -6 4 -16 16 -22 28 -8 15 -8 18 0 14
6 -4 16 -16 22 -28z m98 7 c20 -19 -4 -15 -44 9 l-30 17 30 -6 c17 -4 36 -12
44 -20z m-929 -6 c0 -4 -7 -6 -15 -3 -8 4 -15 10 -15 15 0 4 7 6 15 3 8 -4 15
-10 15 -15z m495 11 c3 -5 1 -10 -4 -10 -6 0 -11 5 -11 10 0 6 2 10 4 10 3 0
8 -4 11 -10z m-890 -40 c-3 -5 -12 -10 -18 -10 -7 0 -6 4 3 10 19 12 23 12 15
0z m7 -32 c-7 -7 -12 -8 -12 -2 0 14 12 26 19 19 2 -3 -1 -11 -7 -17z m1163 2
c3 -6 -1 -7 -9 -4 -18 7 -21 14 -7 14 6 0 13 -4 16 -10z m140 -52 c29 -13 31
-21 10 -38 -12 -10 -15 -10 -15 3 0 24 -26 27 -64 9 -33 -16 -34 -18 -16 -30
29 -18 51 -67 42 -92 -7 -20 -10 -18 -27 20 -22 50 -60 70 -80 43 -7 -9 -11
-23 -8 -29 7 -19 -12 -25 -33 -10 -15 12 -16 16 -5 30 7 9 20 16 27 16 8 0 14
6 14 14 0 8 21 24 48 36 26 12 54 25 62 30 8 5 16 9 17 9 1 1 14 -4 28 -11z
m60 -8 c3 -5 1 -10 -4 -10 -6 0 -11 5 -11 10 0 6 2 10 4 10 3 0 8 -4 11 -10z
m-1325 -14 c0 -3 -4 -8 -10 -11 -5 -3 -10 -1 -10 4 0 6 5 11 10 11 6 0 10 -2
10 -4z m1320 -38 l0 -33 -15 29 c-18 35 -18 36 0 36 10 0 15 -10 15 -32z
m-1505 2 c-1 -11 -4 -22 -7 -26 -4 -3 -4 -13 -1 -22 4 -15 3 -15 -6 -2 -14 20
-14 43 1 58 15 15 15 16 13 -8z m1430 11 c-3 -6 3 -14 12 -20 10 -6 14 -10 8
-10 -12 0 -45 24 -45 33 0 3 7 6 16 6 8 0 13 -4 9 -9z m-1392 -26 c-3 -9 -8
-14 -10 -11 -3 3 -2 9 2 15 9 16 15 13 8 -4z m197 6 c0 -6 -4 -13 -10 -16 -5
-3 -10 1 -10 9 0 9 5 16 10 16 6 0 10 -4 10 -9z m1096 -67 c-3 -8 -10 -12 -16
-9 -5 3 -10 2 -10 -2 0 -5 -11 -9 -25 -9 -38 0 -13 14 33 18 6 1 12 11 13 22
0 12 3 15 6 8 3 -7 2 -20 -1 -28z m-220 -1 c-7 -7 -26 7 -26 19 0 6 6 6 15 -2
9 -7 13 -15 11 -17z m-1391 7 c-3 -5 -10 -10 -16 -10 -5 0 -9 5 -9 10 0 6 7
10 16 10 8 0 12 -4 9 -10z m242 -22 c2 -12 8 -27 14 -35 8 -9 8 -13 1 -13 -15
0 -32 33 -32 61 0 27 13 17 17 -13z m1573 22 c0 -5 -5 -10 -11 -10 -5 0 -7 5
-4 10 3 6 8 10 11 10 2 0 4 -4 4 -10z m-352 -18 c6 -18 -15 -14 -22 4 -4 10
-1 14 6 12 6 -2 14 -10 16 -16z m-1138 -34 c0 -17 -17 -14 -38 7 l-23 24 31
-12 c16 -6 30 -15 30 -19z m-367 5 c-4 -11 -3 -14 5 -9 7 4 12 2 12 -3 0 -6
-4 -11 -9 -11 -14 0 -23 18 -16 30 10 16 15 12 8 -7z m1547 -5 c0 -6 -6 -5
-15 2 -8 7 -15 14 -15 16 0 2 7 1 15 -2 8 -4 15 -11 15 -16z m182 -53 c-2 -19
-10 -35 -16 -35 -7 0 -17 -15 -24 -33 -6 -18 -19 -42 -27 -52 -11 -14 -10 -8
3 20 11 22 27 66 37 98 19 61 34 62 27 2z m29 22 c-10 -9 -11 -8 -5 6 3 10 9
15 12 12 3 -3 0 -11 -7 -18z m-1641 3 c0 -7 6 -7 19 0 29 15 35 12 15 -7 -28
-29 -69 -27 -57 2 6 17 23 20 23 5z m81 -20 c6 0 7 -4 4 -10 -3 -5 -14 -10
-25 -10 -19 0 -65 -66 -61 -87 1 -7 -7 -31 -18 -53 -10 -22 -16 -40 -12 -40 4
0 23 31 42 70 38 77 53 89 43 33 -15 -82 -41 -158 -52 -156 -7 2 -21 -6 -32
-17 -11 -11 -26 -20 -32 -20 -8 0 -9 3 -3 8 6 4 12 23 13 41 3 31 2 33 -12 22
-9 -7 -22 -11 -31 -7 -8 3 -14 2 -14 -2 4 -28 -3 -40 -20 -35 -16 4 -18 9 -11
29 8 19 6 22 -8 17 -15 -6 -16 -5 -2 12 14 17 13 18 -7 13 -16 -4 -23 -2 -23
9 0 8 4 12 9 9 12 -8 81 57 81 76 0 11 5 15 15 12 8 -4 15 -1 15 6 0 7 7 10
15 6 10 -3 15 1 15 13 0 24 25 45 45 37 8 -3 15 -1 15 4 0 6 8 10 18 10 15 0
15 2 2 11 -12 9 -12 10 3 5 10 -3 23 -6 28 -6z m-131 -35 c0 -8 -4 -15 -10
-15 -5 0 -7 7 -4 15 4 8 8 15 10 15 2 0 4 -7 4 -15z m-29 -16 c7 -13 7 -19 1
-15 -6 3 -13 -3 -17 -14 -9 -29 -25 -24 -25 8 0 46 21 57 41 21z m279 7 c-7
-7 -13 -7 -20 0 -6 6 -3 10 10 10 13 0 16 -4 10 -10z m285 4 c-44 -4 -91 -12
-105 -17 -35 -14 -86 -26 -79 -19 22 22 121 45 189 44 l75 -1 -80 -7z m-352
-20 c3 -11 1 -20 -4 -20 -5 0 -9 2 -9 4 0 2 -3 11 -6 20 -3 9 -2 16 4 16 5 0
12 -9 15 -20z m722 10 c-3 -5 -11 -10 -16 -10 -6 0 -7 5 -4 10 3 6 11 10 16
10 6 0 7 -4 4 -10z m-55 -4 c0 -3 -4 -8 -10 -11 -5 -3 -10 -1 -10 4 0 6 5 11
10 11 6 0 10 -2 10 -4z m445 -6 c17 -4 -13 -5 -65 -2 -77 4 -102 1 -128 -12
-36 -19 -53 -51 -46 -87 3 -16 -1 -13 -12 10 -18 40 -7 71 30 89 24 12 175 13
221 2z m-1158 -21 c-3 -12 -3 -18 0 -15 4 3 15 -2 26 -11 12 -11 17 -12 12 -4
-5 9 -4 12 2 8 6 -4 13 -16 16 -27 5 -18 3 -19 -10 -8 -15 12 -16 9 -10 -25 5
-33 4 -37 -9 -26 -12 10 -13 9 -8 -5 3 -9 1 -16 -5 -16 -6 0 -11 14 -11 30 0
42 0 43 -12 57 -10 13 -3 63 8 63 4 0 4 -9 1 -21z m683 -24 c0 -29 -3 -33 -21
-30 -27 5 -33 11 -24 24 10 17 28 13 21 -5 -3 -8 -2 -12 4 -9 14 9 13 32 -2
37 -6 2 -8 10 -4 16 12 20 26 3 26 -33z m-180 31 c0 -3 -4 -8 -10 -11 -5 -3
-10 -1 -10 4 0 6 5 11 10 11 6 0 10 -2 10 -4z m500 -10 c0 -2 -7 -9 -15 -16
-13 -11 -14 -10 -9 4 5 14 24 23 24 12z m-750 -16 c0 -5 -5 -10 -11 -10 -5 0
-7 5 -4 10 3 6 8 10 11 10 2 0 4 -4 4 -10z m150 0 c0 -5 -6 -10 -14 -10 -8 0
-18 5 -21 10 -3 6 3 10 14 10 12 0 21 -4 21 -10z m687 -22 c-3 -8 -6 -5 -6 6
-1 11 2 17 5 13 3 -3 4 -12 1 -19z m-782 2 c-3 -5 -21 -12 -40 -16 -20 -3 -38
-10 -41 -15 -7 -11 -24 -12 -24 -1 0 8 75 40 98 41 7 1 11 -3 7 -9z m856 0 c5
0 9 -4 9 -9 0 -5 -8 -8 -17 -6 -10 2 -21 4 -25 4 -5 1 -8 6 -8 12 0 6 7 8 16
5 9 -3 20 -6 25 -6z m-1031 -14 c0 -3 -4 -8 -10 -11 -5 -3 -10 -1 -10 4 0 6 5
11 10 11 6 0 10 -2 10 -4z m438 -32 c-7 -16 -20 -34 -28 -41 -23 -18 -93 -33
-119 -26 -22 6 -22 6 9 20 18 7 38 12 44 11 16 -4 85 39 92 57 4 9 8 14 11 12
2 -3 -2 -17 -9 -33z m87 6 c3 -6 -1 -7 -9 -4 -18 7 -21 14 -7 14 6 0 13 -4 16
-10z m531 -5 c-1 -8 -6 -18 -11 -22 -4 -4 -5 -2 -1 5 12 21 -11 13 -28 -10
-12 -16 -16 -18 -12 -5 7 23 -3 22 -32 -5 -22 -20 -24 -21 -18 -4 6 16 4 17
-9 6 -15 -12 -14 -15 7 -26 13 -7 29 -9 37 -4 9 5 20 2 28 -6 17 -16 13 -29
-7 -29 -30 0 -135 42 -132 53 1 7 -5 12 -13 12 -8 0 -15 5 -15 10 0 12 2 12
36 -1 18 -6 36 -7 49 -1 24 11 107 40 117 41 3 1 5 -6 4 -14z m-346 1 c0 -2
-8 -10 -17 -17 -16 -13 -17 -12 -4 4 13 16 21 21 21 13z m30 -26 c0 -5 -5 -10
-11 -10 -5 0 -7 5 -4 10 3 6 8 10 11 10 2 0 4 -4 4 -10z m-181 -23 c0 -9 -2
-8 -6 1 -2 6 -10 9 -15 6 -7 -4 -8 -2 -4 5 9 13 26 5 25 -12z m271 -10 c0 -9
-50 -1 -60 9 -2 3 2 9 9 14 15 9 51 -8 51 -23z m-355 13 c-3 -5 -14 -10 -23
-10 -15 0 -15 2 -2 10 20 13 33 13 25 0z m-623 -18 c-7 -2 -10 -8 -7 -13 8
-13 -5 -79 -16 -79 -11 0 -12 54 -1 64 7 7 8 11 11 37 0 5 6 7 13 3 9 -6 9 -9
0 -12z m39 -45 c-13 -13 -21 5 -14 33 l6 24 9 -24 c5 -14 5 -27 -1 -33z m841
31 c-7 -7 -12 -8 -12 -2 0 14 12 26 19 19 2 -3 -1 -11 -7 -17z m-229 -11 c3
-7 -3 -13 -14 -14 -12 -1 -16 3 -12 13 6 18 19 18 26 1z m-134 -7 c-27 -16
-102 -29 -117 -21 -9 5 -1 8 20 9 19 1 45 6 59 11 13 5 31 10 39 10 13 0 13
-1 -1 -9z m441 -6 c0 -2 -7 -4 -15 -4 -8 0 -15 4 -15 10 0 5 7 7 15 4 8 -4 15
-8 15 -10z m620 -70 c0 -14 -4 -22 -10 -19 -5 3 -10 0 -10 -7 0 -9 -3 -9 -10
2 -5 8 -10 38 -10 65 l0 50 20 -33 c11 -18 20 -44 20 -58z m-1212 64 c-2 -6
-12 -12 -21 -14 -33 -5 -132 -37 -146 -48 -11 -9 -13 -8 -9 4 2 8 17 21 31 28
15 7 27 18 27 25 0 8 3 7 9 -2 5 -8 14 -10 22 -5 7 4 26 9 43 11 16 2 32 5 34
8 9 9 14 5 10 -7z m319 -10 c-3 -8 -6 -5 -6 6 -1 11 2 17 5 13 3 -3 4 -12 1
-19z m83 13 c0 -5 -7 -11 -15 -15 -15 -5 -20 5 -8 17 9 10 23 9 23 -2z m142
-13 c-7 -7 -12 -8 -12 -2 0 14 12 26 19 19 2 -3 -1 -11 -7 -17z m524 -24 c18
7 18 -3 0 -23 -24 -27 -23 -43 4 -48 18 -3 31 3 46 22 20 25 20 26 38 6 10
-11 16 -26 13 -33 -3 -8 -8 -4 -14 11 l-9 23 -28 -25 c-29 -27 -61 -28 -115
-3 -31 14 -40 57 -11 49 11 -3 20 -14 20 -25 0 -11 5 -16 10 -13 6 4 10 14 9
23 0 10 3 28 7 42 7 21 9 22 12 7 2 -11 9 -16 18 -13z m238 -23 c-35 -74 -55
-78 -70 -16 -7 28 -6 29 10 15 16 -12 19 -12 27 2 13 23 38 48 49 48 4 0 -2
-22 -16 -49z m-514 27 c0 -11 -12 -10 -30 2 -12 7 -10 9 8 7 12 0 22 -5 22 -9z
m80 -3 c8 -2 25 -4 38 -4 12 -1 22 -6 22 -12 0 -8 -11 -9 -32 -4 -18 4 -44 7
-57 6 -29 -1 -43 7 -35 21 3 5 16 7 28 3 11 -3 28 -8 36 -10z m90 -15 c0 -5
-4 -10 -10 -10 -5 0 -10 5 -10 10 0 6 5 10 10 10 6 0 10 -4 10 -10z m-1214
-12 c4 -6 3 -8 -4 -4 -5 3 -13 0 -15 -6 -3 -8 -6 -6 -6 5 -1 19 14 23 25 5z
m-1706 -108 c0 -5 -8 -10 -17 -10 -15 0 -16 2 -3 10 19 12 20 12 20 0z"/>
<path d="M590 5174 c0 -9 -5 -12 -12 -8 -10 5 -10 4 -1 -6 6 -7 16 -9 22 -6
14 9 14 36 1 36 -5 0 -10 -7 -10 -16z"/>
<path d="M652 5115 c-25 -28 -50 -32 -58 -10 -9 21 -32 19 -39 -5 -3 -11 -12
-21 -18 -22 -7 0 -16 -2 -22 -2 -5 -1 -15 -5 -22 -9 -6 -4 -19 -4 -30 -1 -13
4 -14 3 -5 -4 10 -7 0 -12 -35 -21 -52 -13 -93 -36 -93 -51 0 -13 37 -13 45 0
3 5 16 15 28 22 20 10 21 10 9 -5 -8 -9 -10 -22 -6 -28 4 -8 3 -9 -4 -5 -7 4
-12 2 -12 -4 0 -6 -4 -8 -10 -5 -5 3 -10 0 -10 -9 0 -21 22 -14 60 17 18 16
39 26 47 23 9 -4 11 -2 7 6 -5 8 -2 9 10 5 10 -4 15 -3 11 3 -3 5 11 13 32 18
93 23 121 29 139 27 37 -3 89 -18 94 -26 3 -5 16 -10 27 -12 29 -4 145 -106
140 -122 -3 -6 -1 -18 5 -26 7 -11 8 -9 3 6 -3 11 -3 16 2 12 7 -8 32 -93 32
-112 0 -5 -7 3 -15 18 -20 37 -30 28 -15 -14 16 -45 14 -70 -6 -85 -21 -15
-49 -18 -57 -5 -3 5 2 8 11 7 9 0 18 5 21 13 3 9 0 11 -8 6 -9 -5 -11 -4 -6 3
4 7 2 20 -3 29 -7 12 -10 14 -11 4 0 -10 -3 -11 -13 -3 -18 15 -57 4 -50 -14
3 -8 0 -14 -6 -14 -6 0 -10 -12 -10 -27 1 -22 2 -23 6 -8 4 16 8 13 17 -15 8
-26 18 -36 36 -39 25 -3 25 -3 5 19 l-19 21 28 -10 c35 -14 39 -14 30 1 -5 8
-2 9 12 4 33 -13 35 -12 55 24 19 34 20 56 4 123 -10 38 9 34 23 -6 16 -46 15
-88 -4 -115 -10 -15 -11 -22 -3 -22 8 0 8 -4 -1 -15 -7 -8 -9 -15 -4 -15 5 0
16 11 25 23 12 17 16 45 16 117 0 52 -3 86 -7 75 -6 -17 -8 -16 -14 8 -3 15
-10 26 -14 23 -4 -2 -8 5 -9 17 0 12 1 16 4 10 3 -7 9 -13 15 -13 6 0 3 9 -7
20 -10 11 -20 18 -23 15 -2 -2 -13 6 -24 18 -13 15 -21 18 -24 10 -6 -14 -38
3 -84 42 -14 12 -33 25 -42 28 -10 4 -18 11 -18 18 0 6 7 9 14 6 10 -4 13 -1
10 7 -3 8 0 17 6 21 6 3 9 1 8 -6 -2 -6 3 -14 10 -16 19 -7 14 12 -9 38 -11
13 -18 18 -14 12 4 -9 -1 -13 -15 -13 -11 0 -23 7 -26 15 -4 8 -10 15 -15 15
-5 0 -2 -11 6 -24 16 -23 15 -24 -4 -19 -12 3 -18 10 -14 17 4 8 3 8 -6 0 -9
-9 -10 -17 -2 -31 10 -20 10 -20 -29 -1 -38 19 -46 48 -13 48 8 0 11 5 8 10
-10 17 -30 11 -53 -15z m-117 -65 c-28 -12 -45 -12 -45 0 0 6 15 10 33 9 27 0
29 -2 12 -9z m434 -135 c6 -3 11 -12 11 -18 0 -7 -9 -1 -20 13 -11 14 -19 32
-19 40 0 9 4 6 9 -6 5 -12 13 -25 19 -29z m-12 -241 c-3 -3 -12 -4 -19 -1 -8
3 -5 6 6 6 11 1 17 -2 13 -5z"/>
<path d="M852 5122 c-9 -7 -8 -13 8 -27 11 -10 17 -23 13 -29 -3 -6 -3 -8 1
-4 9 8 72 -53 68 -65 -1 -5 2 -6 7 -3 5 4 11 -2 13 -11 3 -15 5 -14 10 5 4 15
2 22 -9 22 -8 0 -11 5 -7 13 4 6 4 9 0 5 -10 -8 -36 14 -30 24 3 4 -3 20 -13
35 l-17 28 30 -27 c36 -33 40 -34 47 -8 4 16 2 20 -12 15 -10 -3 -24 1 -31 10
-14 17 -40 20 -40 4 0 -6 -6 -9 -12 -6 -7 2 -12 10 -10 16 2 13 1 13 -16 3z"/>
<path d="M370 5089 c-34 -14 -60 -39 -59 -58 0 -11 3 -10 11 6 12 24 67 55 82
46 5 -3 6 -1 2 5 -4 7 -8 12 -9 11 -1 0 -13 -5 -27 -10z"/>
<path d="M435 5090 c-19 -8 -19 -9 3 -9 12 -1 22 4 22 9 0 6 -1 10 -2 9 -2 0
-12 -4 -23 -9z"/>
<path d="M5088 5079 c-29 -11 -46 -39 -23 -39 8 0 15 -5 15 -11 0 -5 4 -8 9
-4 5 3 12 1 16 -5 3 -5 11 -10 16 -10 6 0 8 4 5 9 -7 11 15 30 63 53 l36 18
-39 -6 c-21 -3 -51 -13 -65 -22 l-26 -16 19 22 c21 24 16 26 -26 11z"/>
<path d="M5210 5039 c0 -20 1 -21 24 -5 14 9 32 13 40 10 9 -3 16 -1 16 5 0 6
-17 11 -40 11 -34 0 -40 -3 -40 -21z"/>
<path d="M4985 5040 c-3 -5 -2 -10 4 -10 5 0 13 5 16 10 3 6 2 10 -4 10 -5 0
-13 -4 -16 -10z"/>
<path d="M870 5021 c0 -5 5 -13 10 -16 6 -3 10 -2 10 4 0 5 -4 13 -10 16 -5 3
-10 2 -10 -4z"/>
<path d="M911 5001 c-7 -5 -10 -14 -7 -20 11 -18 25 -13 23 9 -1 11 -1 20 -2
20 0 0 -6 -4 -14 -9z"/>
<path d="M1073 4785 c0 -27 2 -38 4 -22 2 15 2 37 0 50 -2 12 -4 0 -4 -28z"/>
<path d="M1066 4713 c-3 -10 -9 -25 -12 -33 -3 -8 4 -4 15 10 22 27 26 40 12
40 -5 0 -11 -8 -15 -17z"/>
<path d="M1296 4666 c-33 -5 -69 -17 -80 -27 -18 -17 -20 -17 -32 -1 -10 12
-16 14 -21 5 -5 -6 -15 -11 -23 -10 -8 1 -34 -5 -58 -12 -46 -15 -62 -10 -42
14 19 23 6 18 -26 -10 -46 -40 -53 -45 -64 -45 -5 0 -2 -8 8 -19 9 -10 22 -18
27 -17 6 1 9 -11 7 -26 -2 -19 3 -28 18 -33 19 -6 34 -18 101 -80 9 -8 21 -15
27 -15 7 0 12 -4 12 -8 0 -21 270 -129 291 -116 4 2 6 11 2 19 -3 10 1 15 12
15 11 0 15 5 11 16 -3 8 -2 12 3 9 5 -3 13 -1 16 5 4 6 15 8 26 5 13 -4 17 -2
14 7 -3 8 8 21 27 32 18 11 54 37 81 59 26 21 47 36 47 32 0 -3 7 0 15 9 20
20 19 42 -5 66 -11 11 -22 20 -25 20 -2 0 -15 10 -28 23 -13 12 -32 27 -43 34
-16 10 -17 13 -5 22 11 7 3 8 -26 4 -23 -3 -58 1 -79 8 -22 7 -45 12 -52 10
-8 -1 -20 3 -29 10 -12 11 -17 10 -26 -6 -8 -16 -11 -16 -16 -4 -5 12 -17 13
-65 5z m9 -26 c-28 -12 -37 -12 -30 0 3 6 16 10 28 9 21 0 21 -1 2 -9z m-275
-44 c0 -8 -7 -16 -15 -20 -17 -6 -18 -4 -9 18 8 20 24 21 24 2z"/>
<path d="M168 4653 c7 -3 16 -2 19 1 4 3 -2 6 -13 5 -11 0 -14 -3 -6 -6z"/>
<path d="M820 4643 c0 -6 6 -18 13 -25 8 -7 16 -20 20 -28 5 -13 5 -13 6 0 0
8 -8 26 -19 40 -11 14 -20 20 -20 13z"/>
<path d="M5056 4579 c-12 -23 -12 -28 -2 -20 12 11 29 51 21 51 -2 0 -10 -14
-19 -31z"/>
<path d="M871 4584 c0 -11 3 -14 6 -6 3 7 2 16 -1 19 -3 4 -6 -2 -5 -13z"/>
<path d="M156 4552 c-3 -6 -1 -14 5 -17 15 -10 25 3 12 16 -7 7 -13 7 -17 1z"/>
<path d="M852 4521 c-11 -6 -9 -9 6 -13 15 -4 19 -2 15 8 -6 16 -4 16 -21 5z"/>
<path d="M2580 4500 c-91 -4 -184 -13 -208 -19 -23 -6 -75 -13 -114 -16 -40
-3 -97 -9 -128 -14 -30 -5 -87 -15 -127 -21 -81 -13 -272 -84 -252 -94 8 -3
-1 -4 -19 -1 -39 6 -150 -27 -186 -56 -13 -10 -29 -19 -35 -19 -6 0 -11 -4
-11 -9 0 -9 95 -31 165 -37 27 -3 34 -1 21 4 -14 6 -16 11 -8 16 17 10 5 26
-20 26 -29 0 -17 9 15 12 18 2 27 8 27 20 0 25 14 23 33 -4 15 -21 16 -22 16
-4 1 19 1 19 15 1 17 -24 86 -30 86 -8 0 8 -4 12 -9 8 -6 -3 -15 3 -21 14 -9
17 -8 20 6 14 11 -4 15 -3 10 5 -9 15 14 26 27 13 9 -9 8 -11 -6 -5 -13 5 -16
2 -11 -11 6 -15 9 -15 27 3 l20 20 43 -21 c33 -16 47 -18 56 -9 8 8 8 15 -2
27 -14 17 -30 20 -30 6 0 -5 8 -12 18 -14 12 -3 13 -5 2 -6 -8 0 -22 4 -30 9
-23 15 3 27 61 29 42 0 49 -2 49 -19 0 -10 5 -22 10 -25 6 -3 10 1 10 9 0 9 9
16 20 16 12 0 20 7 20 16 0 27 27 44 74 48 25 2 43 0 41 -4 -5 -8 71 -4 86 5
5 4 9 2 9 -4 0 -6 11 -6 33 0 17 5 44 7 60 3 15 -3 27 -1 27 4 0 7 73 11 200
12 111 0 215 3 233 6 72 12 79 15 73 29 -6 18 30 20 84 5 19 -5 121 -11 225
-14 147 -4 232 -12 379 -35 103 -17 192 -34 197 -37 5 -3 48 -12 96 -20 49 -7
122 -21 163 -29 41 -8 88 -14 104 -15 16 0 45 -10 65 -22 l36 -21 -23 25 c-22
24 -158 78 -197 78 -9 0 -33 9 -53 19 -21 11 -83 27 -138 35 -54 9 -121 20
-149 26 -60 11 -119 18 -245 25 -52 4 -158 11 -235 16 -193 14 -488 18 -685 9z
m-903 -256 c-3 -3 -12 -4 -19 -1 -8 3 -5 6 6 6 11 1 17 -2 13 -5z"/>
<path d="M850 4480 c0 -15 -5 -18 -27 -14 -23 4 -25 3 -13 -11 10 -13 9 -15
-6 -16 -11 -1 -25 -1 -32 0 -10 2 -11 -2 -4 -16 8 -13 6 -23 -6 -37 -16 -18
-16 -19 9 -14 27 5 34 -11 14 -29 -4 -4 -5 -2 -1 5 4 6 2 12 -3 12 -6 0 -11
-6 -11 -13 0 -19 -76 -88 -92 -83 -7 2 -32 7 -55 10 -39 6 -43 4 -43 -14 0
-17 3 -19 19 -11 15 8 18 7 17 -5 -2 -23 86 -55 108 -39 9 7 30 11 48 9 17 -2
36 0 43 6 6 5 26 8 44 5 17 -2 46 1 63 7 24 8 32 8 39 -3 6 -10 9 -11 9 -1 0
6 4 12 10 12 5 0 9 -5 7 -11 -1 -6 4 -14 12 -17 8 -3 11 0 7 7 -4 6 -3 11 2
11 14 0 24 -29 15 -43 -4 -7 1 -6 10 2 11 9 17 10 17 2 0 -6 5 -11 10 -11 19
0 -9 40 -36 52 -15 7 -27 23 -31 39 -3 15 -12 30 -20 33 -11 4 -13 2 -10 -9 4
-8 2 -17 -2 -19 -9 -6 -91 54 -91 67 0 4 4 6 9 3 5 -3 8 2 7 12 -1 11 5 16 17
14 16 -3 17 0 7 18 -6 12 -17 23 -24 26 -7 3 -10 18 -8 38 3 24 -1 35 -12 39
-11 5 -16 1 -16 -13z m30 -79 c0 -5 -7 -14 -15 -21 -8 -7 -12 -16 -9 -21 3 -5
0 -9 -5 -9 -15 0 -14 33 1 48 14 14 28 16 28 3z"/>
<path d="M1599 4343 c-13 -15 -12 -15 9 -4 23 12 28 21 13 21 -5 0 -15 -7 -22
-17z"/>
<path d="M1545 4320 c-13 -6 -15 -9 -5 -9 8 0 22 4 30 9 18 12 2 12 -25 0z"/>
<path d="M1482 4293 c-29 -35 -20 -42 12 -10 14 14 22 28 17 31 -4 3 -17 -7
-29 -21z"/>
<path d="M2049 4293 c-1 -5 -1 -11 -1 -14 2 -10 -55 -19 -72 -13 -8 3 -25 -1
-38 -9 -13 -8 -38 -13 -55 -12 -23 2 -33 -2 -33 -11 0 -8 7 -14 15 -14 8 0 15
-4 15 -9 0 -14 52 -20 77 -8 13 5 23 16 23 24 0 15 17 18 22 4 5 -16 73 3 76
22 2 9 -1 17 -7 17 -6 0 -8 7 -5 15 4 8 1 15 -5 15 -6 0 -12 -3 -12 -7z"/>
<path d="M2096 4255 c4 -8 11 -15 16 -15 6 0 5 6 -2 15 -7 8 -14 15 -16 15 -2
0 -1 -7 2 -15z"/>
<path d="M540 4250 c0 -5 5 -10 10 -10 6 0 10 5 10 10 0 6 -4 10 -10 10 -5 0
-10 -4 -10 -10z"/>
<path d="M1745 4230 c-4 -6 3 -10 14 -10 25 0 27 6 6 13 -8 4 -17 2 -20 -3z"/>
<path d="M930 4206 c0 -7 11 -21 25 -30 30 -20 31 -20 39 -1 3 10 -5 20 -24
30 -36 18 -40 19 -40 1z"/>
<path d="M678 4153 c7 -3 16 -2 19 1 4 3 -2 6 -13 5 -11 0 -14 -3 -6 -6z"/>
<path d="M620 4147 c0 -2 6 -10 14 -16 11 -9 16 -9 22 1 4 7 4 10 -1 6 -4 -4
-14 -3 -22 3 -7 6 -13 9 -13 6z"/>
<path d="M1520 4071 c0 -5 7 -12 16 -15 8 -3 12 -11 8 -17 -4 -8 -3 -9 5 -5 6
4 14 0 17 -8 3 -9 16 -16 28 -15 11 0 15 3 8 6 -10 4 -10 8 -1 19 9 11 8 14
-5 14 -9 0 -30 7 -46 15 -17 9 -30 11 -30 6z"/>
<path d="M1461 4056 c-8 -9 -8 -16 -2 -20 6 -4 15 3 21 14 12 23 -2 27 -19 6z"/>
<path d="M1650 4036 c0 -8 -6 -17 -12 -19 -7 -3 -4 -6 7 -6 14 -1 21 6 22 19
1 11 -2 20 -8 20 -5 0 -9 -6 -9 -14z"/>
<path d="M1814 4037 c-12 -7 -19 -17 -17 -24 3 -9 11 -6 26 7 25 24 20 33 -9
17z"/>
<path d="M1998 4033 c7 -3 16 -2 19 1 4 3 -2 6 -13 5 -11 0 -14 -3 -6 -6z"/>
<path d="M2210 4020 c0 -5 5 -10 10 -10 6 0 10 5 10 10 0 6 -4 10 -10 10 -5 0
-10 -4 -10 -10z"/>
<path d="M1504 3937 c-12 -14 -27 -67 -20 -67 3 0 15 10 27 23 21 22 21 22 10
0 -15 -29 -15 -29 13 -28 29 0 67 32 60 49 -3 8 -15 11 -30 8 -17 -3 -24 0
-24 12 0 19 -20 21 -36 3z"/>
<path d="M1898 3943 c6 -2 18 -2 25 0 6 3 1 5 -13 5 -14 0 -19 -2 -12 -5z"/>
<path d="M1447 3934 c-8 -8 1 -24 14 -24 5 0 9 7 9 15 0 15 -12 20 -23 9z"/>
<path d="M1885 3860 c-3 -5 -2 -10 4 -10 5 0 13 5 16 10 3 6 2 10 -4 10 -5 0
-13 -4 -16 -10z"/>
<path d="M5660 4677 c0 -7 -8 -17 -19 -24 -13 -8 -17 -19 -13 -39 l5 -27 15
36 c8 21 18 37 23 37 5 0 9 7 9 15 0 8 -4 15 -10 15 -5 0 -10 -6 -10 -13z"/>
<path d="M5577 4513 c-4 -6 -3 -22 2 -35 5 -13 5 -33 0 -46 -5 -13 -7 -27 -4
-32 9 -14 -24 -32 -47 -25 -18 5 -20 4 -8 -4 40 -28 89 8 84 62 -4 49 -19 93
-27 80z"/>
<path d="M5529 4465 c-11 -18 -9 -79 2 -68 6 6 9 26 7 44 -2 19 -6 30 -9 24z"/>
<path d="M5485 4420 c-3 -5 1 -10 10 -10 9 0 13 5 10 10 -3 6 -8 10 -10 10 -2
0 -7 -4 -10 -10z"/>
<path d="M5470 4349 c-7 -11 -9 -23 -6 -26 8 -9 36 17 36 33 0 21 -18 17 -30
-7z"/>
<path d="M1370 3786 c0 -4 9 -21 21 -37 11 -16 18 -36 15 -44 -3 -8 -2 -15 2
-16 4 0 24 -2 45 -5 28 -4 37 -1 37 11 0 8 -6 15 -14 15 -8 0 -16 7 -20 15 -3
8 -11 15 -18 15 -6 0 -25 12 -40 27 -15 15 -28 23 -28 19z"/>
<path d="M1575 3690 c-3 -5 -1 -10 4 -10 6 0 11 5 11 10 0 6 -2 10 -4 10 -3 0
-8 -4 -11 -10z"/>
<path d="M1411 3644 c0 -11 3 -14 6 -6 3 7 2 16 -1 19 -3 4 -6 -2 -5 -13z"/>
<path d="M2054 3147 c3 -12 6 -30 6 -40 0 -10 4 -16 10 -12 5 3 7 12 4 19 -3
8 -1 17 5 21 18 11 12 31 -10 32 -17 2 -20 -2 -15 -20z"/>
<path d="M2230 3160 c0 -5 5 -10 10 -10 6 0 10 5 10 10 0 6 -4 10 -10 10 -5 0
-10 -4 -10 -10z"/>
<path d="M2097 3105 c-20 -42 -20 -45 -7 -45 6 0 10 9 10 20 0 11 7 20 15 20
9 0 12 6 8 17 -4 11 -3 14 5 9 7 -4 12 -2 12 3 0 24 -27 9 -43 -24z"/>
<path d="M2377 3133 c-11 -10 -8 -33 3 -33 6 0 10 6 10 14 0 8 6 17 13 19 8 4
6 6 -4 6 -9 1 -19 -2 -22 -6z"/>
<path d="M2156 3094 c-9 -23 -8 -24 15 -24 19 0 20 2 8 17 -10 11 -10 14 -1 9
6 -4 12 -2 12 3 0 17 -27 13 -34 -5z"/>
<path d="M2338 3083 c7 -3 16 -2 19 1 4 3 -2 6 -13 5 -11 0 -14 -3 -6 -6z"/>
<path d="M2220 3061 c-14 -27 -13 -29 16 -23 19 3 22 7 12 13 -10 7 -10 9 0 9
6 0 12 5 12 10 0 18 -29 11 -40 -9z"/>
<path d="M2428 3063 c6 -2 18 -2 25 0 6 3 1 5 -13 5 -14 0 -19 -2 -12 -5z"/>
<path d="M2136 3051 c-4 -7 -5 -15 -2 -18 9 -9 19 4 14 18 -4 11 -6 11 -12 0z"/>
<path d="M2560 3050 c-8 -5 -11 -12 -8 -16 4 -3 14 1 23 10 18 17 9 21 -15 6z"/>
<path d="M2307 3033 c-14 -14 -6 -29 21 -39 23 -9 29 -8 29 2 0 12 -17 19 -39
15 -17 -2 -7 10 15 19 21 8 21 9 1 9 -11 1 -24 -2 -27 -6z"/>
<path d="M2385 3010 c-3 -6 1 -7 9 -4 18 7 21 14 7 14 -6 0 -13 -4 -16 -10z"/>
<path d="M2430 3010 c-12 -8 -11 -10 8 -10 12 0 22 5 22 10 0 13 -11 13 -30 0z"/>
<path d="M2486 2992 c-3 -5 1 -18 10 -28 14 -18 14 -17 3 5 -9 20 -9 23 2 19
34 -13 64 -19 49 -10 -26 16 -58 23 -64 14z"/>
<path d="M2538 2948 c-9 -5 -6 -8 9 -8 12 0 24 4 27 8 7 11 -19 11 -36 0z"/>
<path d="M2665 2811 c-6 -11 9 -23 19 -14 9 9 7 23 -3 23 -6 0 -12 -4 -16 -9z"/>
<path d="M3050 2808 c1 -15 70 -62 70 -48 0 5 -9 14 -20 20 -11 6 -20 17 -20
25 0 8 -7 15 -15 15 -8 0 -15 -6 -15 -12z"/>
<path d="M2870 2772 c0 -12 19 -26 26 -19 2 2 -2 10 -11 17 -9 8 -15 8 -15 2z"/>
<path d="M2510 2760 c-8 -5 -12 -12 -9 -15 4 -3 12 1 19 10 14 17 11 19 -10 5z"/>
<path d="M2742 2750 c-26 -25 -26 -26 -1 -70 11 -19 17 -26 13 -15 -17 51 -16
56 12 80 20 17 24 25 13 25 -8 0 -25 -9 -37 -20z"/>
<path d="M2957 2734 l-29 -34 47 -47 c26 -27 42 -39 37 -28 -6 11 -20 28 -31
37 -27 23 -26 31 4 64 14 15 25 31 25 35 0 19 -27 6 -53 -27z"/>
<path d="M2400 2671 c-28 -24 -33 -32 -22 -42 10 -11 12 -10 12 1 0 7 15 26
33 41 17 16 27 28 22 29 -6 0 -26 -13 -45 -29z"/>
<path d="M2621 2636 c-33 -34 -33 -35 -16 -58 12 -16 16 -18 11 -5 -3 10 0 24
7 32 63 67 62 94 -2 31z"/>
<path d="M2850 2600 c-29 -36 -30 -41 -16 -56 15 -14 16 -14 16 2 0 9 11 32
25 50 27 35 30 44 16 44 -5 0 -24 -18 -41 -40z"/>
<path d="M2061 2568 c-1 -10 -7 -18 -15 -18 -8 0 -16 -6 -19 -14 -4 -10 0 -12
15 -8 22 5 33 24 25 44 -4 8 -6 6 -6 -4z"/>
<path d="M2508 2522 c-32 -32 -34 -39 -11 -39 21 0 63 36 63 54 0 21 -23 14
-52 -15z"/>
<path d="M1927 2567 c-3 -8 1 -14 9 -14 16 0 19 13 5 21 -5 3 -11 0 -14 -7z"/>
<path d="M2323 2082 c-7 -4 -9 -13 -4 -21 6 -9 10 -7 14 8 3 12 4 21 4 21 -1
0 -7 -4 -14 -8z"/>
<path d="M2545 2060 c-16 -11 -25 -20 -20 -20 6 0 24 9 40 20 17 11 26 20 20
20 -5 0 -23 -9 -40 -20z"/>
<path d="M2350 2059 c0 -4 9 -11 20 -14 11 -4 18 -10 15 -15 -7 -11 5 -40 17
-40 6 0 8 6 5 14 -8 20 4 28 20 15 10 -9 13 -7 13 6 0 10 -3 15 -7 12 -3 -4
-15 1 -25 10 -19 17 -58 25 -58 12z"/>
<path d="M2708 2026 c-21 -11 -38 -24 -38 -29 0 -9 89 36 90 46 0 11 -11 7
-52 -17z"/>
<path d="M2974 1995 c-4 -8 -9 -13 -13 -11 -4 3 -13 0 -21 -6 -12 -8 -12 -9 3
-4 9 3 17 2 17 -3 0 -4 11 -6 25 -3 24 4 24 5 8 18 -17 13 -17 14 0 8 9 -3 17
-1 17 5 0 16 -30 13 -36 -4z"/>
<path d="M2416 1981 c-16 -18 -16 -18 9 -14 13 3 22 9 20 13 -3 5 7 11 22 13
28 4 27 4 -3 6 -19 0 -37 -6 -48 -18z"/>
<path d="M2502 1985 c-7 -8 -9 -15 -3 -15 5 0 7 -10 4 -22 -3 -13 -1 -19 4
-13 9 12 20 12 46 0 21 -9 46 8 28 19 -6 4 -11 2 -11 -4 0 -7 -11 -4 -29 6
-17 10 -27 23 -24 31 7 17 1 16 -15 -2z"/>
<path d="M2608 1970 c17 -6 32 -14 32 -19 0 -5 7 -11 14 -14 10 -4 13 -1 9 9
-3 7 0 14 7 14 6 0 8 -4 5 -10 -3 -5 -2 -10 4 -10 12 0 25 20 14 21 -4 1 -17
3 -28 4 -11 2 -36 6 -55 9 l-35 6 33 -10z"/>
<path d="M2716 1952 c-2 -4 4 -8 15 -8 10 0 19 4 19 8 0 4 -6 8 -14 8 -8 0
-17 -4 -20 -8z"/>
<path d="M2632 1919 c-12 -5 -8 -8 17 -14 23 -5 37 -3 47 7 12 12 10 14 -16
13 -17 0 -38 -3 -48 -6z"/>
<path d="M2735 1800 c4 -6 11 -8 16 -5 14 9 11 15 -7 15 -8 0 -12 -5 -9 -10z"/>
<path d="M2837 1733 c-3 -5 -5 -57 -5 -118 l0 -110 9 95 c4 52 10 105 12 118
4 21 -7 31 -16 15z"/>
<path d="M2802 1705 c0 -16 2 -22 5 -12 2 9 2 23 0 30 -3 6 -5 -1 -5 -18z"/>
<path d="M2802 1645 c0 -16 2 -22 5 -12 2 9 2 23 0 30 -3 6 -5 -1 -5 -18z"/>
<path d="M2320 1389 c0 -5 5 -7 10 -4 6 3 10 8 10 11 0 2 -4 4 -10 4 -5 0 -10
-5 -10 -11z"/>
<path d="M2270 1320 c0 -5 5 -10 10 -10 6 0 10 5 10 10 0 6 -4 10 -10 10 -5 0
-10 -4 -10 -10z"/>
<path d="M2280 1275 c-7 -9 -10 -18 -6 -22 3 -3 6 -1 6 6 0 7 4 10 9 6 5 -3
12 -1 15 4 11 17 -11 21 -24 6z"/>
<path d="M2337 1260 c3 -11 9 -17 15 -14 5 3 4 12 -3 20 -16 19 -18 18 -12 -6z"/>
<path d="M2972 1240 c0 -14 2 -19 5 -12 2 6 2 18 0 25 -3 6 -5 1 -5 -13z"/>
<path d="M2296 1242 c-3 -4 4 -9 15 -9 23 -2 25 3 4 10 -8 4 -16 3 -19 -1z"/>
<path d="M2271 1225 c1 -11 -3 -31 -6 -45 -6 -19 -5 -22 4 -14 16 14 21 48 11
65 -7 10 -9 9 -9 -6z"/>
<path d="M2375 1231 c3 -5 -2 -16 -10 -25 -8 -8 -11 -17 -6 -20 5 -4 17 1 26
10 12 12 13 19 4 30 -13 16 -23 19 -14 5z"/>
<path d="M2210 1225 c0 -5 5 -17 10 -25 5 -8 10 -10 10 -5 0 6 -5 17 -10 25
-5 8 -10 11 -10 5z"/>
<path d="M2090 1190 c0 -5 5 -10 11 -10 5 0 7 5 4 10 -3 6 -8 10 -11 10 -2 0
-4 -4 -4 -10z"/>
<path d="M2434 1178 c-5 -8 -16 -18 -24 -21 -8 -3 0 -6 18 -6 33 -1 38 4 23
28 -7 11 -10 11 -17 -1z"/>
<path d="M2228 1158 c2 -10 6 -18 7 -18 1 0 5 8 7 18 3 11 0 19 -7 19 -7 0
-10 -8 -7 -19z"/>
<path d="M2991 1148 c-1 -15 4 -30 9 -33 12 -7 12 12 0 40 -8 18 -9 17 -9 -7z"/>
<path d="M2493 1135 c-10 -23 -9 -25 11 -25 30 0 37 9 25 31 -13 25 -22 24
-36 -6z"/>
<path d="M2577 1109 c-4 -14 -10 -18 -19 -13 -7 4 -4 -2 6 -14 14 -17 22 -19
32 -11 8 6 11 15 8 20 -3 5 0 9 7 9 8 0 8 4 -1 15 -17 21 -27 19 -33 -6z"/>
<path d="M2365 1100 c-8 -13 4 -32 16 -25 12 8 12 35 0 35 -6 0 -13 -4 -16
-10z"/>
<path d="M2665 1101 c4 -7 2 -18 -4 -25 -9 -11 -8 -18 4 -30 24 -23 40 -20 41
9 1 14 -2 22 -8 19 -5 -3 -8 2 -6 12 2 11 -4 20 -16 22 -12 3 -16 0 -11 -7z"/>
<path d="M2324 1082 c-9 -5 -8 -11 2 -20 8 -7 14 -11 14 -8 0 2 3 11 6 20 6
17 -3 21 -22 8z"/>
<path d="M2470 1048 c0 -9 -6 -19 -12 -21 -10 -4 -10 -6 0 -6 14 -1 28 26 18
36 -3 4 -6 -1 -6 -9z"/>
<path d="M2539 1023 c-5 -14 -9 -31 -9 -39 0 -8 -7 -14 -15 -14 -18 0 -20 -16
-4 -26 7 -4 16 1 21 10 8 14 12 15 26 4 12 -9 11 -5 -2 10 -15 18 -16 21 -4
17 12 -5 17 2 20 28 4 40 -19 47 -33 10z"/>
<path d="M2648 1023 c7 -3 16 -2 19 1 4 3 -2 6 -13 5 -11 0 -14 -3 -6 -6z"/>
<path d="M2688 1013 c6 -2 18 -2 25 0 6 3 1 5 -13 5 -14 0 -19 -2 -12 -5z"/>
<path d="M2100 999 c0 -5 5 -7 10 -4 6 3 10 8 10 11 0 2 -4 4 -10 4 -5 0 -10
-5 -10 -11z"/>
<path d="M2495 999 c-11 -17 1 -21 15 -4 8 9 8 15 2 15 -6 0 -14 -5 -17 -11z"/>
<path d="M2610 1000 c0 -5 5 -10 11 -10 5 0 7 5 4 10 -3 6 -8 10 -11 10 -2 0
-4 -4 -4 -10z"/>
<path d="M2310 988 c0 -6 3 -8 7 -5 3 4 12 2 20 -5 11 -8 12 -7 7 6 -7 18 -34
22 -34 4z"/>
<path d="M2652 983 c-11 -11 -10 -14 3 -19 21 -9 37 8 21 22 -8 8 -15 7 -24
-3z"/>
<path d="M2239 963 c-13 -16 -12 -17 3 -5 9 8 22 11 28 7 5 -3 10 -1 10 4 0
17 -26 13 -41 -6z"/>
<path d="M2596 961 c-3 -5 1 -12 10 -15 20 -8 29 -1 19 13 -8 13 -22 14 -29 2z"/>
<path d="M2195 950 c3 -5 8 -10 11 -10 2 0 4 5 4 10 0 6 -5 10 -11 10 -5 0 -7
-4 -4 -10z"/>
<path d="M3135 850 c-3 -5 -1 -10 4 -10 6 0 11 5 11 10 0 6 -2 10 -4 10 -3 0
-8 -4 -11 -10z"/>
<path d="M3230 766 c0 -2 9 -6 20 -9 11 -3 18 -1 14 4 -5 9 -34 13 -34 5z"/>
<path d="M2085 740 c-10 -11 -15 -20 -11 -20 4 0 16 9 28 20 12 11 17 20 11
20 -5 0 -18 -9 -28 -20z"/>
<path d="M2100 715 c-7 -9 -11 -17 -9 -20 3 -2 10 5 17 15 14 24 10 26 -8 5z"/>
<path d="M2380 590 c0 -5 5 -10 11 -10 5 0 7 5 4 10 -3 6 -8 10 -11 10 -2 0
-4 -4 -4 -10z"/>
<path d="M3158 583 c7 -3 16 -2 19 1 4 3 -2 6 -13 5 -11 0 -14 -3 -6 -6z"/>
<path d="M3438 428 c5 -5 16 -8 23 -6 8 3 3 7 -10 11 -17 4 -21 3 -13 -5z"/>
<path d="M2054 349 c-3 -6 -2 -15 3 -20 5 -5 9 -1 10 11 2 22 -2 25 -13 9z"/>
<path d="M3785 239 c-4 -6 -5 -12 -2 -15 2 -3 7 2 10 11 7 17 1 20 -8 4z"/>
</g>
</svg>
