<?xml version="1.0" standalone="no"?>
<!DOCTYPE svg PUBLIC "-//W3C//DTD SVG 20010904//EN"
 "http://www.w3.org/TR/2001/REC-SVG-20010904/DTD/svg10.dtd">
<svg version="1.0" xmlns="http://www.w3.org/2000/svg"
 width="600.000000pt" height="600.000000pt" viewBox="0 0 600.000000 600.000000"
 preserveAspectRatio="xMidYMid meet">

<g transform="translate(0.000000,600.000000) scale(0.100000,-0.100000)"
fill="#000000" stroke="none">
<path d="M0 3191 c0 -2289 2 -2809 13 -2807 7 1 30 12 50 24 21 12 46 22 55
22 9 0 53 12 97 25 44 14 121 35 170 46 88 19 195 52 225 68 23 13 122 39 155
42 49 4 72 -8 79 -43 4 -21 2 -37 -8 -46 -12 -13 -93 -32 -199 -47 -23 -4 -69
-13 -102 -20 -33 -8 -109 -23 -170 -35 -60 -12 -119 -24 -130 -27 -11 -3 -63
-9 -115 -15 -52 -6 -101 -12 -107 -14 -10 -2 -13 -48 -13 -184 l0 -180 1003 0
1002 0 32 48 c51 73 110 130 182 171 83 49 229 106 304 120 148 28 168 33 183
48 24 24 60 0 72 -48 5 -21 7 -41 4 -44 -10 -10 -22 -5 -22 10 0 21 -32 35
-53 24 -10 -6 -26 -8 -36 -4 -11 3 -26 -1 -34 -10 -9 -8 -27 -15 -41 -15 -18
0 -24 -4 -20 -15 7 -17 54 -21 54 -5 0 6 11 10 24 10 14 0 28 4 31 10 3 5 11
10 16 10 6 0 8 -4 4 -9 -3 -5 -1 -12 5 -16 5 -3 10 -1 10 4 0 6 5 11 11 11 17
0 4 -24 -19 -36 l-21 -11 20 -34 c11 -19 22 -42 25 -51 5 -13 17 -18 41 -18
22 0 32 4 27 11 -3 6 0 15 7 20 8 4 15 19 15 31 3 58 0 56 59 51 44 -3 55 -1
55 10 0 15 56 42 75 37 6 -1 31 -2 58 -1 27 1 47 -2 47 -9 0 -5 5 -10 10 -10
6 0 10 6 10 14 0 16 -60 29 -115 25 -24 -3 -39 1 -45 11 -5 8 -15 15 -22 15
-7 1 -12 6 -11 13 2 7 -9 12 -26 12 -17 0 -33 5 -36 10 -3 6 -16 10 -29 10
-12 0 -31 7 -42 15 -10 8 -29 15 -40 15 -12 0 -27 7 -34 15 -7 8 -16 12 -21 9
-5 -3 -9 2 -9 11 0 12 -6 15 -22 10 -16 -4 -19 -3 -10 3 11 7 5 14 -22 31 -41
26 -106 89 -106 103 0 5 -7 16 -15 24 -8 9 -15 24 -15 35 0 10 -5 19 -11 19
-16 0 -41 68 -31 87 5 9 7 23 5 32 -3 12 6 20 30 29 43 16 62 15 100 -2 51
-23 199 -65 248 -70 144 -15 179 -17 179 -9 0 4 -21 9 -48 10 -26 1 -71 11
-100 22 -30 11 -60 17 -68 14 -8 -3 -14 0 -14 7 0 6 -5 8 -10 5 -6 -4 -16 -3
-23 2 -7 5 -21 9 -32 8 -24 -1 -55 13 -55 24 0 14 46 19 67 7 10 -5 36 -13 58
-17 22 -4 49 -10 60 -13 11 -3 40 -10 65 -16 61 -14 121 -41 114 -51 -3 -5 2
-9 10 -9 9 0 13 6 10 13 -5 15 -116 67 -142 67 -10 0 -26 7 -37 16 -30 22 -4
33 65 27 33 -3 65 -1 78 6 14 7 23 8 27 1 9 -15 76 -12 107 4 16 9 28 10 28 5
0 -6 5 -7 10 -4 6 4 55 9 110 12 88 5 100 3 100 -11 0 -9 -7 -16 -15 -16 -8 0
-15 -4 -15 -10 0 -5 16 -9 35 -8 19 1 32 5 29 10 -3 4 7 8 22 8 26 0 27 0 9
-20 -10 -11 -26 -20 -37 -20 -10 0 -18 -4 -18 -10 0 -5 -10 -10 -22 -11 -17
-1 -14 -3 10 -9 36 -8 72 -3 72 11 0 5 7 9 16 9 8 0 35 13 59 30 24 16 52 30
62 30 28 0 63 -60 63 -108 0 -45 -36 -152 -51 -152 -5 0 -9 -6 -9 -14 0 -17
-68 -76 -87 -76 -7 0 -13 -5 -13 -10 0 -6 -12 -15 -27 -21 -22 -8 -25 -12 -13
-20 11 -7 6 -8 -17 -4 -29 6 -31 4 -29 -19 3 -19 -1 -26 -15 -26 -10 0 -44 -7
-76 -16 -32 -9 -82 -20 -111 -23 -67 -8 -68 -26 -2 -22 31 1 50 -2 50 -8 0 -6
-18 -11 -39 -11 -40 0 -62 -13 -39 -24 7 -3 2 -3 -11 0 -14 4 -27 1 -32 -7
-13 -21 10 -40 39 -32 17 4 29 1 37 -10 18 -25 65 -40 81 -26 10 8 14 8 14 0
0 -6 -4 -11 -10 -11 -5 0 -10 -13 -10 -30 0 -20 5 -30 15 -30 9 0 18 -7 21
-15 8 -21 40 -19 64 5 21 21 27 60 10 60 -5 0 -7 7 -4 15 4 10 0 15 -15 15
-16 0 -21 6 -21 25 0 16 6 25 16 25 8 0 12 5 9 10 -4 6 -10 8 -14 6 -4 -3 -13
-1 -20 3 -22 14 6 54 32 47 12 -4 64 -17 114 -31 51 -13 112 -33 135 -44 24
-10 60 -26 80 -34 111 -46 250 -147 313 -229 l29 -38 483 0 c425 0 482 2 477
15 -4 8 -2 15 4 15 5 0 15 -7 22 -15 11 -13 76 -15 471 -15 l459 0 0 688 c0
488 -3 691 -11 699 -8 8 -8 25 0 63 8 36 11 607 11 1967 l0 1916 -29 -6 c-28
-6 -71 17 -71 39 0 5 -16 25 -35 44 -31 30 -35 40 -35 85 0 28 7 58 15 69 18
24 19 50 3 76 -9 14 -10 29 -2 59 10 37 9 41 -10 47 -12 4 -41 21 -66 38 -25
17 -46 31 -48 32 -9 5 -8 55 2 63 31 24 149 14 226 -21 35 -15 41 -53 12 -84
-18 -18 -18 -19 4 -36 12 -10 25 -18 28 -18 3 0 6 63 6 140 l0 140 -442 0
c-244 0 -453 -3 -466 -6 -17 -5 -20 -10 -12 -19 18 -22 15 -133 -3 -153 -9 -9
-26 -27 -37 -40 -24 -27 -44 -25 -48 5 -4 27 -56 39 -84 19 -21 -15 -51 -11
-83 11 -11 7 -36 13 -57 13 -43 0 -56 14 -34 39 27 30 18 32 -24 6 -65 -41
-254 -85 -450 -105 -58 -6 -166 -18 -240 -26 -221 -24 -843 -29 -1160 -10
-613 38 -1152 142 -1222 237 l-22 29 -808 0 -808 0 0 -2809z m5613 2748 c7
-11 20 -19 29 -19 10 0 18 -4 18 -9 0 -5 7 -17 16 -25 17 -18 11 -36 -13 -36
-8 0 -24 -11 -35 -25 -15 -19 -26 -24 -42 -19 -27 9 -37 24 -32 48 3 11 0 28
-5 39 -6 10 -8 29 -5 42 7 28 52 31 69 4z m-3573 -229 c0 -5 -4 -10 -10 -10
-5 0 -10 5 -10 10 0 6 5 10 10 10 6 0 10 -4 10 -10z m75 -10 c17 -4 42 -13 57
-18 82 -33 267 -65 375 -66 62 -1 113 -5 113 -9 0 -5 4 -6 9 -2 5 3 17 -3 27
-12 17 -17 17 -18 -1 -22 -10 -2 -25 -9 -33 -17 -7 -8 -20 -14 -28 -14 -8 0
-14 -4 -14 -10 0 -5 -6 -10 -14 -10 -8 0 -18 -5 -21 -10 -4 -7 12 -8 48 -4 30
4 77 2 103 -4 27 -6 73 -14 103 -17 30 -3 70 -10 90 -15 20 -5 77 -19 126 -31
50 -12 94 -26 100 -30 5 -5 18 -9 29 -9 20 0 20 0 1 13 -11 7 -40 21 -65 31
-25 10 -54 22 -65 27 -11 4 -54 20 -95 34 -41 14 -85 33 -97 41 -27 17 -31 52
-5 54 9 0 161 2 337 4 301 4 532 -7 562 -27 6 -4 14 -1 16 5 4 9 6 7 6 -3 1
-23 -13 -32 -99 -67 -90 -35 -173 -74 -180 -82 -9 -12 -85 -37 -97 -33 -8 3
-13 -4 -13 -16 0 -12 -4 -21 -10 -21 -5 0 -10 4 -10 9 0 5 -14 12 -30 16 -36
8 -61 -8 -54 -33 5 -15 4 -15 -9 1 -18 21 -27 22 -27 2 0 -9 6 -18 14 -21 8
-3 12 -13 9 -25 -3 -12 -9 -16 -12 -10 -8 12 -51 3 -51 -11 0 -5 -4 -7 -9 -3
-5 3 -31 -7 -58 -21 -41 -22 -43 -25 -18 -21 102 17 155 30 155 39 0 5 7 2 16
-7 24 -23 102 -7 87 18 -5 9 -3 9 8 2 8 -6 28 -12 44 -13 29 -2 29 -1 -9 16
-26 12 -36 21 -28 26 7 4 12 16 12 26 0 20 44 45 134 76 22 8 44 20 48 27 6 9
8 9 8 -2 0 -9 4 -10 13 -4 12 10 105 35 140 38 9 1 17 -2 17 -6 0 -15 71 -22
94 -9 26 13 107 9 128 -7 20 -16 66 -24 73 -13 3 5 -7 12 -22 16 -15 4 -37 17
-48 29 -11 11 -28 24 -38 28 -9 3 -17 12 -17 19 0 10 2 10 9 -1 12 -18 23 2
14 26 -5 14 -2 13 14 -5 17 -19 23 -20 34 -10 23 22 79 39 194 60 61 11 118
24 128 29 11 6 17 5 17 -1 0 -7 6 -8 19 0 44 23 32 6 -47 -70 -64 -61 -88 -78
-100 -72 -43 21 -66 9 -94 -50 -22 -46 -38 -64 -83 -92 -30 -20 -58 -36 -61
-36 -11 0 -134 -94 -134 -102 0 -12 6 -10 42 12 24 14 35 16 45 8 10 -8 17 -7
26 4 7 9 29 21 50 28 20 6 37 15 37 19 0 4 8 8 18 9 57 6 92 16 92 25 0 6 6 4
13 -5 6 -9 31 -19 55 -23 40 -6 42 -6 42 19 0 14 -5 26 -11 26 -5 0 -8 4 -4 9
3 6 -1 15 -8 22 -7 7 -11 24 -9 37 4 19 2 23 -8 17 -8 -5 -11 -4 -6 3 4 6 13
9 21 5 8 -3 15 0 15 6 0 6 4 11 9 11 5 0 26 16 47 35 20 19 39 34 40 32 2 -1
-5 -38 -15 -82 -19 -80 -43 -138 -69 -164 -7 -8 -11 -22 -9 -32 5 -17 -21 -69
-49 -96 -16 -17 -19 -43 -3 -43 6 0 19 5 30 11 16 8 23 7 33 -6 10 -14 9 -39
-4 -126 -9 -60 -21 -114 -28 -121 -14 -14 -16 -84 -2 -93 5 -3 1 -25 -11 -52
-21 -49 -19 -64 6 -43 12 10 15 10 15 -1 0 -8 6 -5 15 7 13 17 14 17 15 2 0
-21 20 -24 20 -4 0 21 21 31 31 15 13 -21 11 -32 -6 -25 -18 6 -21 -24 -4 -41
6 -6 14 -50 19 -99 5 -49 12 -108 16 -131 4 -30 3 -43 -5 -43 -6 0 -11 -4 -11
-10 0 -5 7 -10 16 -10 8 0 13 -4 9 -10 -3 -5 -12 -7 -20 -4 -9 4 -19 -4 -26
-19 -12 -27 -6 -62 9 -53 5 3 7 -7 5 -22 l-5 -27 21 25 c11 14 21 34 22 45 l1
20 5 -20 c8 -29 31 -60 46 -60 6 0 13 -12 15 -27 2 -16 -1 -28 -7 -28 -6 0
-11 3 -11 8 0 16 -48 63 -55 53 -3 -6 -1 -11 4 -11 6 0 11 -7 11 -16 0 -9 5
-12 12 -8 8 5 9 2 5 -9 -3 -10 -2 -17 4 -17 6 0 7 -5 3 -12 -4 -6 -3 -8 4 -5
5 4 17 4 26 1 15 -6 16 -22 10 -133 -4 -85 -2 -135 5 -155 8 -19 8 -32 2 -35
-5 -4 -16 -19 -25 -35 -13 -26 -13 -32 7 -69 l21 -41 12 30 c9 22 9 31 1 37
-9 5 -8 10 3 17 11 7 19 5 29 -10 7 -11 20 -20 27 -20 17 0 16 3 4 -39 -6 -23
-6 -39 1 -47 17 -21 28 -242 19 -388 -1 -21 3 -43 9 -49 6 -6 11 -16 11 -21 0
-6 -5 -4 -10 4 -6 9 -10 10 -10 3 0 -6 -6 -18 -14 -26 -8 -8 -21 -31 -30 -51
-15 -37 -15 -37 7 -30 12 3 27 11 33 15 8 6 14 4 18 -7 17 -44 -4 -355 -25
-362 -6 -3 -6 -8 1 -17 12 -15 3 -45 -14 -45 -8 0 -12 -29 -13 -92 -1 -51 -8
-138 -17 -194 -20 -126 -38 -171 -103 -246 -18 -21 -34 -53 -38 -75 -3 -21
-10 -46 -16 -55 -5 -10 -13 -47 -18 -82 -9 -65 -34 -126 -51 -126 -5 0 -14 18
-20 40 -11 39 -19 47 -34 32 -8 -7 -13 -8 -41 -11 -8 0 -15 -6 -15 -12 0 -5 5
-7 10 -4 6 3 10 1 10 -5 0 -13 -48 -32 -61 -25 -5 4 -6 -1 -3 -9 7 -18 -18
-42 -137 -134 -131 -102 -151 -121 -143 -133 4 -8 3 -9 -5 -5 -6 4 -19 2 -27
-5 -8 -6 -28 -13 -45 -14 -30 -3 -109 -48 -109 -64 0 -8 -119 -71 -134 -71 -7
0 -148 -63 -198 -89 -27 -14 -46 -17 -76 -11 -23 4 -55 2 -80 -5 -33 -10 -45
-10 -60 1 -24 17 -93 42 -245 90 -107 33 -118 39 -113 57 5 20 -8 47 -23 47
-3 0 -7 -14 -7 -32 -1 -18 -6 -34 -13 -36 -6 -2 -11 -10 -11 -18 0 -11 -5 -10
-22 5 -11 11 -26 18 -31 14 -6 -3 -7 -1 -3 5 6 10 -6 17 -16 10 -2 -1 -14 5
-28 12 -29 16 -84 14 -184 -5 -46 -9 -76 -10 -88 -4 -12 6 -18 6 -18 -1 0 -5
-4 -10 -10 -10 -5 0 -10 7 -10 16 0 11 -6 15 -19 11 -14 -3 -18 -1 -14 9 3 8
-3 17 -13 20 -11 4 -38 27 -60 51 -32 34 -43 40 -47 28 -4 -8 -1 -15 5 -15 9
0 9 -3 0 -12 -8 -8 -2 -21 28 -51 44 -43 44 -52 3 -60 -35 -6 -59 20 -110 123
-21 41 -40 77 -43 80 -3 3 -18 26 -33 52 l-28 48 25 -11 c14 -7 24 -15 22 -18
-3 -3 2 -15 10 -26 21 -28 17 -5 -7 39 -11 21 -17 42 -12 46 4 4 33 1 63 -7
30 -9 63 -16 73 -16 9 -1 17 -7 17 -15 0 -7 4 -11 9 -7 5 3 26 -6 47 -20 20
-14 44 -25 53 -25 9 0 27 -7 39 -16 13 -9 31 -13 45 -9 15 4 18 3 8 -3 -7 -5
-9 -12 -5 -15 49 -29 105 -57 116 -57 7 0 41 -13 75 -29 46 -22 62 -35 65 -53
4 -22 4 -22 9 3 8 35 -4 48 -81 96 -36 22 -103 64 -150 93 -47 29 -95 56 -107
61 -15 6 -23 17 -23 33 0 18 -14 34 -49 60 -27 20 -56 36 -65 36 -8 0 -23 12
-33 28 -20 32 -119 150 -148 175 -61 54 -95 91 -95 103 0 8 -4 14 -10 14 -5 0
-12 16 -16 35 -6 32 -14 40 -36 36 -5 0 -8 10 -8 24 0 13 -18 69 -39 122 -40
101 -69 209 -58 219 3 3 12 2 19 -2 7 -5 18 -9 23 -9 27 -2 63 -29 57 -43 -4
-12 -1 -14 12 -9 13 5 21 -2 32 -28 14 -35 31 -50 20 -18 -3 10 12 -2 33 -27
25 -28 36 -49 30 -56 -10 -13 43 -74 65 -74 21 0 20 12 -4 38 -11 12 -20 25
-20 30 0 4 -21 30 -46 57 -25 28 -64 74 -86 103 -36 47 -40 55 -30 77 7 15 8
25 2 25 -6 0 -10 9 -10 21 0 12 -8 23 -19 26 -12 3 -17 11 -14 19 6 17 -26 31
-36 15 -10 -16 -1 -71 12 -71 14 0 36 -32 37 -52 0 -27 -18 -21 -39 12 -16 27
-20 29 -31 15 -7 -8 -16 -12 -21 -9 -5 3 -9 -1 -9 -8 0 -9 -3 -9 -10 2 -5 8
-10 28 -10 43 0 21 4 27 17 25 12 -2 21 8 30 32 18 53 15 99 -12 202 -13 51
-27 116 -30 143 -3 28 -8 66 -11 86 -5 30 -3 37 14 41 16 5 28 29 53 108 30
99 31 106 21 184 -6 46 -12 87 -13 92 -1 5 1 21 5 37 8 26 20 31 59 28 18 -2
23 10 10 23 -5 4 -8 12 -8 17 0 11 -5 12 -27 4 -10 -4 -15 -11 -12 -16 3 -5
-4 -9 -14 -9 -16 0 -19 5 -14 23 3 12 14 28 24 35 10 7 30 34 44 60 15 26 38
59 52 74 24 26 24 29 17 135 -4 59 -13 119 -19 133 -8 16 -10 38 -5 58 8 41
29 66 29 37 1 -15 16 -3 58 44 55 61 59 63 83 51 13 -7 19 -15 13 -17 -9 -3
-9 -10 0 -28 14 -31 24 -32 32 -1 10 40 1 71 -19 69 -15 -1 -17 4 -13 22 3 13
1 25 -5 27 -8 3 -7 21 1 66 6 35 8 72 5 82 -4 12 -2 20 4 20 13 0 13 46 1 75
-7 17 -9 17 -9 3 -2 -34 -21 -18 -21 17 0 19 5 35 10 35 6 0 10 9 10 20 0 11
5 20 12 20 6 0 8 3 5 7 -4 3 -1 11 7 17 8 6 28 49 45 95 34 88 34 100 4 194
-18 56 -24 135 -12 143 4 2 6 10 3 17 -2 7 2 28 9 46 l14 33 5 -26 c3 -15 1
-29 -3 -32 -16 -9 -9 -43 10 -53 27 -15 90 -21 96 -10 4 5 -1 9 -9 9 -19 0
-21 16 -3 23 8 4 9 8 1 14 -13 10 -28 44 -25 57 4 18 -22 65 -39 71 -11 4 -27
34 -44 89 -15 46 -39 100 -53 121 -13 20 -23 38 -21 40 2 2 26 -1 53 -7 40 -8
58 -19 92 -55 23 -25 46 -42 52 -39 7 5 11 -7 11 -33 l0 -41 44 6 c26 4 52 2
66 -6 16 -9 25 -9 33 -1 19 19 28 12 25 -16 -2 -23 -8 -29 -35 -31 -31 -3 -32
-3 -13 -22 16 -16 28 -18 64 -14 43 6 77 -3 138 -36 22 -12 38 -13 38 -1 0 10
-128 74 -147 74 -7 0 -13 10 -13 21 0 43 -13 65 -51 90 -21 14 -52 26 -68 26
-20 0 -36 9 -52 30 -13 16 -61 58 -106 92 -54 40 -83 69 -83 81 0 14 4 17 18
12 9 -4 31 -11 47 -15z m2920 -43 c10 -52 6 -97 -13 -131 -31 -57 -64 -63 -81
-13 -7 17 -19 45 -27 60 -19 39 -18 54 6 62 11 3 20 11 20 16 0 5 5 9 10 9 6
0 20 9 32 19 26 25 44 18 53 -22z m-2187 14 c37 0 62 -4 62 -11 0 -13 -44 -31
-90 -36 -19 -3 -50 -7 -67 -10 -22 -4 -33 -2 -33 5 0 7 4 10 9 7 5 -3 11 0 14
8 6 16 -13 26 -49 26 -13 0 -24 4 -24 9 0 5 26 8 58 6 31 -2 85 -3 120 -4z
m1133 -22 c-19 -11 -48 -22 -65 -24 -17 -1 -56 -6 -86 -10 -42 -5 -66 -3 -98
10 -24 10 -40 20 -37 23 3 3 51 7 107 9 56 2 103 5 105 6 1 2 26 4 55 6 l53 2
-34 -22z m-71 -60 c0 -5 -4 -9 -8 -9 -5 0 -9 7 -9 15 0 8 4 12 9 9 4 -3 8 -9
8 -15z m-55 -49 c8 0 17 -4 20 -10 3 -6 -1 -7 -9 -4 -9 3 -16 1 -16 -5 0 -9
-5 -9 -20 -1 -11 6 -20 20 -20 31 0 19 1 19 16 5 8 -9 22 -16 29 -16z m-3677
4 c17 -3 40 -15 51 -25 22 -21 56 -25 66 -8 4 6 33 8 76 5 54 -3 82 -11 127
-37 49 -28 68 -33 136 -35 49 -2 98 -10 130 -23 28 -10 86 -22 128 -24 91 -6
145 -29 211 -86 40 -37 47 -48 47 -80 0 -46 -37 -105 -68 -109 -12 -2 -22 -10
-22 -17 0 -19 -83 -43 -145 -41 -43 1 -50 4 -55 25 -8 33 -70 65 -110 56 -16
-4 -30 -10 -30 -15 0 -11 -39 -20 -56 -13 -8 3 -14 15 -15 27 0 20 -1 20 -9 1
-7 -16 -9 -13 -7 15 1 19 7 41 14 48 7 7 10 19 6 28 -5 13 -9 12 -28 -6 l-22
-20 -29 32 c-16 18 -35 45 -43 61 -17 31 -21 32 -87 12 -42 -12 -51 -19 -59
-47 -13 -42 -61 -70 -123 -70 -69 0 -72 1 -72 17 0 8 -7 15 -15 15 -11 0 -13
8 -8 33 3 17 7 34 9 35 1 2 -2 17 -8 32 -6 20 -28 39 -66 61 -31 17 -60 36
-64 42 -4 6 2 23 13 38 10 15 19 30 19 34 0 13 43 45 60 45 10 0 31 -3 48 -6z
m4339 -78 c10 -13 27 -42 37 -64 12 -26 29 -45 47 -52 16 -7 26 -16 23 -21 -3
-5 9 -6 26 -3 22 5 36 1 51 -12 12 -11 24 -19 28 -18 3 0 14 -10 24 -23 10
-13 26 -23 35 -23 19 0 92 78 92 98 0 7 5 18 10 25 6 7 16 20 23 30 7 10 22
19 35 20 17 1 21 6 16 22 -6 17 -5 18 10 6 9 -7 16 -22 16 -32 0 -10 4 -20 10
-24 16 -10 0 -206 -20 -242 -18 -30 -18 -32 1 -49 14 -12 35 -17 81 -16 134 2
188 -34 188 -125 0 -58 24 -99 48 -84 17 10 64 2 56 -11 -3 -5 0 -16 7 -24 11
-13 9 -19 -11 -34 l-23 -17 22 -37 c14 -22 21 -47 19 -60 -3 -13 3 -34 13 -47
l18 -24 23 21 c13 12 31 24 41 27 15 6 17 14 12 50 -5 33 -3 46 9 56 9 7 14
17 11 21 -7 12 22 33 35 25 6 -4 8 -15 5 -26 -5 -15 -2 -18 12 -13 17 5 17 5
0 -9 -15 -13 -16 -15 -2 -21 14 -5 14 -9 -1 -37 -14 -27 -14 -38 -3 -78 6 -25
19 -54 27 -64 12 -13 16 -46 18 -129 1 -61 6 -113 11 -117 5 -3 10 -25 12 -48
2 -38 0 -43 -19 -43 -22 0 -173 71 -166 78 2 2 -9 17 -25 35 -16 17 -32 39
-35 49 -3 10 -22 22 -43 28 -21 6 -44 17 -51 25 -7 8 -18 15 -25 15 -6 0 -23
13 -38 29 -20 23 -41 33 -88 42 -68 13 -95 34 -123 96 -17 38 -57 69 -75 59
-16 -10 -114 70 -144 118 -11 16 -19 43 -19 61 0 27 -5 36 -28 45 -16 7 -33 9
-38 6 -15 -9 -42 4 -42 21 0 9 -11 4 -32 -16 -17 -16 -37 -27 -45 -24 -9 4 -4
13 17 33 17 16 30 38 30 52 0 13 5 29 12 36 9 9 9 12 0 12 -22 0 63 75 87 77
13 1 26 4 28 7 7 6 -16 42 -46 73 -12 12 -21 29 -21 37 0 17 -21 26 -65 26
-26 0 -39 -7 -55 -30 -30 -42 -75 -52 -120 -27 -67 36 -71 50 -52 169 10 68
19 84 57 106 31 18 52 14 72 -12z m-2187 4 c0 -5 -9 -10 -21 -10 -11 0 -17 5
-14 10 3 6 13 10 21 10 8 0 14 -4 14 -10z m1885 -10 c3 -5 -1 -10 -9 -10 -9 0
-16 5 -16 10 0 6 4 10 9 10 6 0 13 -4 16 -10z m-35 -81 c0 -12 -37 -12 -45 0
-3 5 3 11 12 13 21 5 33 0 33 -13z m-855 -9 c-3 -5 1 -10 11 -10 11 0 15 -6
11 -19 -3 -13 0 -18 8 -15 7 3 16 1 20 -5 3 -6 1 -11 -5 -11 -6 0 -9 -4 -6 -8
3 -5 -7 -8 -22 -6 -15 1 -33 2 -40 3 -14 1 -7 46 11 69 11 14 21 16 12 2z
m-1180 -90 c3 -5 1 -10 -4 -10 -6 0 -11 5 -11 10 0 6 2 10 4 10 3 0 8 -4 11
-10z m-7 -68 c6 -18 -15 -14 -22 4 -4 10 -1 14 6 12 6 -2 14 -10 16 -16z
m-2078 -77 c7 -9 10 -26 6 -42 -4 -16 -7 -38 -7 -50 1 -13 -3 -23 -7 -23 -19
0 -32 28 -32 70 0 61 14 76 40 45z m4220 -269 c0 -2 -7 -9 -15 -16 -13 -11
-14 -10 -9 4 5 14 24 23 24 12z m267 -28 c-3 -8 -6 -5 -6 6 -1 11 2 17 5 13 3
-3 4 -12 1 -19z m28 3 c3 -5 1 -12 -5 -16 -5 -3 -10 1 -10 9 0 18 6 21 15 7z
m-4097 -34 c11 -8 16 -7 23 6 14 24 36 21 61 -8 17 -20 22 -37 21 -80 -1 -32
4 -59 12 -65 27 -22 -11 -100 -49 -100 -7 0 -16 -14 -20 -31 -8 -42 -28 -59
-71 -59 -31 0 -44 7 -75 42 -53 58 -64 145 -24 189 19 21 14 32 -16 34 -13 1
-20 -5 -20 -16 0 -27 -35 -12 -38 17 -2 22 11 30 41 25 4 -1 10 12 13 29 6 29
34 43 34 18 0 -8 4 -7 10 3 10 17 75 15 98 -4z m3804 -49 c-7 -7 -12 -8 -12
-2 0 6 3 14 7 17 3 4 9 5 12 2 2 -3 -1 -11 -7 -17z m1018 -823 c-7 -8 -9 -15
-4 -16 5 0 -2 -5 -15 -10 -16 -6 -28 -6 -35 1 -7 7 -4 10 8 10 9 0 15 4 12 9
-3 5 -16 7 -28 3 -14 -3 -19 -2 -14 6 4 7 25 12 48 12 35 0 39 -2 28 -15z
m-840 -162 c-12 -8 -24 -12 -28 -8 -9 9 28 36 40 29 5 -4 0 -13 -12 -21z
m-3019 -16 c36 -30 54 -85 35 -106 -15 -16 -16 -20 -16 -46 0 -8 -25 -40 -55
-71 -38 -40 -60 -55 -73 -52 -11 3 -26 1 -35 -3 -9 -6 -33 -5 -60 3 l-45 11 5
51 c4 45 10 56 53 97 26 26 51 55 54 65 3 11 19 28 36 39 16 11 30 23 30 28 0
16 46 6 71 -16z m3932 -47 c-3 -11 -7 -20 -9 -20 -2 0 -4 9 -4 20 0 11 4 20 9
20 5 0 7 -9 4 -20z m-528 -355 c1 -16 -4 -39 -11 -49 -11 -16 -10 -24 2 -49
21 -39 11 -46 -71 -52 -11 0 -27 10 -37 23 -17 27 -16 31 29 77 13 12 26 37
29 54 6 27 11 32 32 29 20 -2 26 -9 27 -33z m-3488 -646 c10 -16 13 -34 9 -45
-4 -11 -7 -20 -7 -21 1 -2 -7 -11 -18 -22 -10 -10 -20 -24 -23 -31 -6 -18 -85
-21 -99 -4 -14 17 -14 75 0 101 13 26 69 54 99 51 13 -2 31 -15 39 -29z m4153
-444 c0 -30 -28 -43 -64 -29 -19 7 -22 60 -3 67 10 4 67 -28 67 -38z m-3732
-98 c-3 -27 1 -32 30 -39 30 -8 45 -28 22 -28 -6 0 -1 -10 10 -22 12 -13 22
-21 24 -18 2 3 10 -1 19 -9 9 -7 14 -18 11 -23 -3 -5 3 -12 14 -15 12 -3 22
-15 24 -27 2 -14 9 -20 21 -18 12 2 17 -4 17 -18 0 -16 4 -20 19 -15 11 3 23
0 27 -6 4 -8 3 -9 -4 -5 -20 12 -13 -12 10 -39 25 -29 40 -33 31 -8 -4 11 -3
14 5 9 7 -4 12 -16 12 -27 0 -10 5 -18 11 -17 18 4 33 -63 17 -73 -23 -15
-134 -11 -148 5 -6 8 -18 12 -25 9 -9 -3 -16 5 -21 24 -4 15 -26 67 -50 114
-23 48 -50 113 -60 145 -9 33 -24 68 -34 79 -13 15 -16 26 -9 43 12 32 31 17
27 -21z m2472 -368 c0 -6 -4 -7 -10 -4 -5 3 -10 11 -10 16 0 6 5 7 10 4 6 -3
10 -11 10 -16z m-54 -35 c-3 -9 -6 -20 -6 -25 0 -5 -12 -9 -26 -9 -14 0 -23
-4 -19 -10 7 -11 33 -3 58 18 9 8 17 12 17 7 0 -4 6 -3 13 3 8 7 18 7 27 1 10
-6 11 -12 5 -16 -6 -5 -23 -26 -38 -48 -15 -22 -43 -59 -62 -83 -19 -24 -35
-52 -35 -62 0 -20 -28 -90 -36 -90 -3 0 -14 4 -24 10 -25 13 -50 3 -43 -18 5
-11 2 -14 -10 -9 -9 3 -27 3 -39 -2 -17 -6 -30 -3 -50 12 -23 17 -36 19 -88
14 -58 -7 -60 -6 -50 13 6 11 15 18 20 15 6 -4 7 1 3 11 -5 13 -2 16 9 12 10
-4 29 8 53 33 21 22 41 36 44 31 3 -6 18 0 34 14 16 13 23 24 18 24 -6 0 -11
4 -11 10 0 5 7 7 16 3 9 -3 26 5 42 20 15 14 36 27 47 29 11 2 19 10 17 17 -1
7 2 10 7 7 5 -3 19 -2 31 2 21 8 21 9 5 26 -20 20 -16 26 28 42 45 16 50 16
43 -2z m-1996 -29 c0 -8 -6 -15 -14 -15 -20 0 -29 17 -14 23 22 9 28 7 28 -8z
m2702 -193 c7 -7 8 -12 3 -12 -6 0 -3 -5 5 -10 13 -8 12 -10 -2 -10 -10 0 -18
-6 -18 -12 0 -7 -12 0 -25 15 -14 16 -23 33 -20 38 8 11 42 6 57 -9z m123 -48
c-16 -12 -21 -12 -35 1 -13 14 -13 17 -1 25 9 5 23 4 35 -2 19 -10 19 -11 1
-24z m-1309 -74 c24 10 29 4 25 -28 -2 -10 3 -10 21 2 13 8 52 17 88 21 35 3
66 8 68 10 9 8 29 -20 25 -35 -2 -9 -25 -29 -51 -45 -46 -29 -57 -38 -154
-125 -26 -23 -62 -46 -80 -51 -18 -4 -54 -14 -80 -20 -28 -7 -44 -17 -42 -24
7 -17 -14 -31 -66 -45 -25 -7 -87 -33 -138 -60 -86 -44 -96 -47 -128 -37 -26
8 -44 7 -68 -1 -29 -11 -40 -9 -87 11 -56 25 -83 34 -181 62 -60 16 -78 41
-35 49 95 20 209 35 299 39 32 1 58 6 58 11 0 5 6 3 14 -3 7 -6 21 -9 30 -5
10 4 16 1 16 -7 1 -10 4 -9 10 3 9 14 27 16 143 13 113 -4 129 -2 114 9 -16
13 -71 25 -184 42 -26 3 -43 11 -43 19 0 14 97 55 131 55 11 0 18 4 15 8 -3 5
8 6 25 4 17 -3 29 0 29 7 0 6 11 11 25 11 15 0 25 6 25 14 0 7 14 16 31 20 17
3 28 10 24 16 -3 5 -2 10 4 10 5 0 12 -4 15 -9 3 -5 15 -7 26 -4 11 3 17 9 14
14 -3 5 0 9 5 9 6 0 11 -5 11 -11 0 -5 5 -7 10 -4 6 4 8 11 5 16 -4 5 0 9 7 9
8 0 6 5 -4 11 -10 5 -18 15 -18 21 0 9 3 9 11 1 8 -8 20 -8 35 -3z m-1131 -45
c75 -9 179 -40 196 -58 7 -7 28 -11 50 -9 22 2 39 0 39 -6 0 -5 20 -8 45 -6
31 2 43 -1 39 -8 -4 -6 -3 -8 3 -5 19 12 163 -36 163 -55 0 -12 -30 -23 -141
-53 -53 -13 -113 -32 -134 -41 -30 -12 -43 -13 -65 -4 -15 6 -34 10 -41 9 -19
-4 -81 24 -101 45 -16 15 -44 31 -213 121 -100 54 -114 68 -77 79 17 5 163 0
237 -9z m1465 -1 c0 -3 -47 -56 -105 -117 -81 -86 -102 -113 -94 -124 13 -15
14 -14 -61 -15 -106 -1 -120 1 -114 17 4 8 12 15 19 15 7 0 15 7 19 15 3 8 11
13 18 10 17 -6 98 67 98 88 0 21 38 47 58 40 10 -4 13 -2 8 5 -4 7 -1 12 8 12
9 0 16 4 16 10 0 5 7 6 17 3 11 -4 14 -3 9 5 -5 8 -2 10 8 6 10 -4 16 -1 16 9
0 14 19 22 63 26 9 0 17 -2 17 -5z m1938 -62 l4 -62 -57 -56 c-52 -52 -58 -55
-83 -45 -15 5 -46 15 -69 21 -32 8 -44 17 -49 35 -12 49 -3 60 53 63 49 3 55
6 89 48 26 31 42 43 54 39 11 -3 20 1 24 11 13 34 31 6 34 -54z m-3698 37 c0
-5 -7 -9 -15 -9 -8 0 -15 7 -15 15 0 9 6 12 15 9 8 -4 15 -10 15 -15z m-18
-27 c25 -11 49 -18 52 -15 3 4 6 2 6 -4 0 -6 15 -16 33 -24 17 -7 47 -25 65
-41 24 -20 40 -27 54 -22 13 4 18 2 14 -5 -7 -11 50 -44 99 -55 61 -15 78 -55
21 -48 -18 2 -44 -1 -56 -8 -22 -12 -128 -21 -143 -13 -5 3 0 11 10 19 17 13
17 13 -4 14 -29 0 -202 148 -237 203 -28 43 -15 42 86 -1z m3228 -69 c0 -22
-4 -25 -30 -21 -16 3 -30 1 -30 -4 0 -4 -11 -8 -23 -8 -22 0 -23 -3 -17 -37
13 -72 -26 -106 -98 -87 -68 19 -14 165 57 151 20 -4 39 2 71 23 49 32 70 27
70 -17z m-5104 -3 c72 -18 112 -32 229 -77 62 -25 127 -53 157 -69 89 -48 211
-63 224 -29 3 7 14 15 26 18 15 4 18 11 13 26 -4 13 -2 21 5 21 6 0 8 -4 5
-10 -3 -5 -1 -10 4 -10 6 0 11 -6 11 -14 0 -8 15 -24 33 -35 19 -11 42 -35 51
-54 18 -32 18 -34 -3 -77 -11 -25 -59 -85 -106 -133 -47 -48 -85 -93 -85 -99
0 -6 -11 -1 -25 12 -14 13 -25 32 -25 42 0 10 -7 18 -15 18 -8 0 -15 9 -15 20
0 16 -7 20 -33 20 -18 0 -37 -4 -42 -9 -16 -15 -59 -25 -51 -12 4 6 2 12 -3
12 -6 1 -15 3 -21 4 -5 1 -16 3 -23 4 -8 0 -24 10 -37 21 -13 11 -27 20 -32
20 -5 0 -17 17 -26 38 -32 70 -87 103 -120 70 -9 -9 -12 -9 -12 1 0 7 -6 11
-15 8 -8 -4 -17 -2 -20 3 -3 4 -26 8 -51 8 -26 0 -51 5 -57 11 -6 6 -21 11
-34 11 -13 0 -26 6 -29 14 -3 8 -13 13 -22 11 -15 -2 -62 37 -62 51 0 3 8 35
17 71 15 54 24 70 53 89 42 29 38 29 136 4z m3409 -9 c-3 -6 -11 -11 -17 -11
-6 0 -6 6 2 15 14 17 26 13 15 -4z m-627 -35 c6 1 21 2 32 3 13 1 20 8 21 24
0 21 1 21 9 2 14 -32 12 -33 -32 -42 -35 -7 -46 -5 -61 10 -15 15 -16 21 -5
34 12 14 14 13 18 -8 3 -13 11 -24 18 -23z m-1318 -25 c0 -4 -3 -11 -7 -14 -9
-9 -33 12 -33 30 0 11 4 11 20 3 11 -6 20 -14 20 -19z m1790 -31 c0 -5 -5 -10
-11 -10 -5 0 -7 5 -4 10 3 6 8 10 11 10 2 0 4 -4 4 -10z m-952 -28 c-10 -2
-18 -11 -18 -20 0 -15 -2 -15 -10 -2 -11 18 16 44 34 32 7 -4 5 -8 -6 -10z
m2369 -31 c30 -31 53 -83 53 -123 0 -19 -36 -48 -60 -48 -9 0 -40 -11 -68 -25
-63 -30 -103 -32 -127 -5 -10 11 -24 20 -30 20 -15 0 -28 28 -19 41 3 5 14 9
25 9 10 0 19 7 19 15 0 22 38 94 63 121 42 43 100 41 144 -5z m-1490 -7 c-9
-9 -28 6 -21 18 4 6 10 6 17 -1 6 -6 8 -13 4 -17z m-797 -14 c0 -4 -6 -10 -14
-13 -19 -7 -57 3 -51 14 3 4 12 6 19 3 8 -3 17 0 21 5 7 12 25 6 25 -9z m940
-2 c0 -17 -29 -40 -41 -32 -8 5 -10 1 -7 -14 4 -13 -1 -27 -13 -39 -11 -10
-27 -26 -37 -35 -9 -10 -23 -18 -32 -18 -12 1 -12 3 3 11 9 5 17 16 17 24 0 8
11 17 25 21 14 3 25 10 25 14 0 16 -41 -3 -77 -36 -20 -19 -41 -34 -45 -34 -4
0 -8 -7 -8 -15 0 -20 -17 -19 -29 3 -8 14 -12 15 -22 5 -17 -17 -44 -16 -99 2
-25 8 -58 17 -74 20 -37 8 -20 21 36 30 21 4 44 13 51 20 22 21 81 49 100 46
9 -1 17 3 17 10 0 10 3 10 12 1 17 -17 28 -15 21 6 -5 14 -3 15 8 5 7 -7 22
-13 34 -13 17 0 18 2 5 11 -12 8 -9 10 13 6 15 -2 30 -1 33 4 2 4 11 6 19 2 8
-3 15 -1 15 5 0 5 11 7 25 4 14 -2 25 -9 25 -14z m-1457 -10 c25 -24 42 -78
25 -78 -6 0 -8 -6 -5 -14 3 -8 -4 -18 -19 -24 -13 -6 -26 -24 -30 -39 -10 -43
-21 -51 -56 -44 -27 6 -32 12 -35 39 -3 18 0 32 6 32 6 0 12 8 12 18 1 16 2
16 6 0 2 -10 8 -18 11 -18 12 0 55 97 48 108 -6 9 2 42 10 42 1 0 14 -10 27
-22z m380 -15 c6 -3 7 -1 3 5 -5 9 0 9 17 3 14 -6 28 -7 32 -3 3 3 10 0 15 -8
7 -11 10 -12 10 -2 0 8 5 10 12 6 13 -8 149 -38 243 -54 63 -11 105 -28 105
-42 0 -4 -10 -8 -22 -8 -13 0 -59 -11 -103 -25 -66 -21 -86 -23 -112 -14 -18
6 -38 7 -44 3 -6 -3 -14 -2 -18 3 -18 26 -118 87 -173 105 -72 24 -89 35 -69
47 12 8 83 -3 104 -16z m-153 -23 c0 -5 -5 -10 -11 -10 -5 0 -7 5 -4 10 3 6 8
10 11 10 2 0 4 -4 4 -10z m68 -51 c-5 -3 0 -9 11 -12 12 -3 21 -10 21 -16 0
-10 -46 13 -60 29 -3 4 -13 9 -23 13 -10 4 -16 11 -12 17 3 5 19 2 39 -8 19
-9 29 -20 24 -23z m2734 -6 c43 -42 48 -65 16 -87 -36 -25 -52 -19 -66 24 -15
51 -16 100 0 100 7 0 29 -17 50 -37z m-2177 -44 c4 -6 13 -8 21 -5 8 3 14 1
14 -4 0 -6 -6 -10 -14 -10 -8 0 -21 -2 -28 -5 -9 -4 -14 2 -14 15 0 22 11 26
21 9z m-476 -12 c6 -8 8 -17 5 -20 -9 -8 -44 11 -44 23 0 15 26 12 39 -3z
m545 -2 c-7 -16 -24 -21 -24 -6 0 8 7 13 27 20 1 1 0 -6 -3 -14z m2016 -77 c0
-3 3 -15 6 -25 5 -15 4 -15 -5 -3 -9 12 -11 10 -11 -11 0 -19 -6 -28 -22 -33
-33 -8 -61 23 -53 57 6 23 11 26 46 24 21 -1 39 -5 39 -9z m-1646 -360 c-2 -3
-13 -6 -24 -5 -24 2 -18 13 9 13 11 0 18 -4 15 -8z m-61 -25 c-7 -2 -19 -2
-25 0 -7 3 -2 5 12 5 14 0 19 -2 13 -5z"/>
<path d="M2630 5570 c-8 -5 -10 -10 -5 -10 6 0 17 5 25 10 8 5 11 10 5 10 -5
0 -17 -5 -25 -10z"/>
<path d="M2260 5372 c-21 -22 -21 -25 -5 -18 11 5 26 9 33 9 13 0 17 23 5 30
-5 2 -19 -7 -33 -21z"/>
<path d="M2216 5341 c-4 -7 -5 -15 -2 -18 9 -9 19 4 14 18 -4 11 -6 11 -12 0z"/>
<path d="M3468 5263 c7 -3 16 -2 19 1 4 3 -2 6 -13 5 -11 0 -14 -3 -6 -6z"/>
<path d="M2646 5231 c-3 -5 5 -11 19 -13 20 -4 23 -3 14 8 -13 16 -25 18 -33
5z"/>
<path d="M3045 5219 l-40 -18 55 6 c65 7 63 6 42 19 -13 8 -27 6 -57 -7z"/>
<path d="M3771 5201 c18 -24 19 -31 8 -49 -7 -12 -9 -25 -5 -29 5 -4 11 -2 13
5 3 6 9 10 14 6 5 -3 9 4 9 15 0 11 7 26 15 35 8 8 15 18 15 22 0 5 -5 3 -12
-4 -8 -8 -17 -6 -36 8 -36 29 -46 24 -21 -9z"/>
<path d="M2747 5202 c-24 -27 -21 -46 4 -21 11 11 19 25 17 30 -2 6 -11 2 -21
-9z"/>
<path d="M2819 5203 c-1 -5 -1 -11 0 -15 0 -5 -12 -8 -28 -8 -21 0 -30 -6 -34
-21 -4 -16 -2 -19 10 -15 10 4 13 2 10 -8 -3 -8 0 -17 8 -20 10 -3 12 0 8 11
-4 11 -2 14 8 11 8 -3 13 -10 12 -15 -1 -5 5 -10 13 -10 9 0 18 13 21 29 7 36
19 44 26 18 3 -11 -1 -27 -9 -34 -20 -20 -17 -36 6 -36 31 0 28 63 -5 95 -24
25 -44 32 -46 18z"/>
<path d="M3700 5156 c0 -14 5 -26 10 -26 6 0 10 7 10 15 0 8 0 18 1 22 0 4 -4
9 -10 11 -6 2 -11 -8 -11 -22z"/>
<path d="M3745 5169 c-10 -15 1 -23 20 -15 9 3 13 10 10 16 -8 13 -22 13 -30
-1z"/>
<path d="M2210 5156 c0 -8 5 -18 10 -21 6 -3 10 1 10 9 0 8 -4 18 -10 21 -5 3
-10 -1 -10 -9z"/>
<path d="M3670 5112 c0 -24 14 -35 52 -39 l29 -3 -23 24 c-13 13 -25 22 -27
20 -2 -2 -10 1 -18 7 -10 9 -13 7 -13 -9z"/>
<path d="M2246 5111 c-6 -9 2 -41 11 -41 2 0 11 6 18 14 10 10 11 16 2 25 -13
13 -24 14 -31 2z m24 -11 c0 -5 -4 -10 -10 -10 -5 0 -10 5 -10 10 0 6 5 10 10
10 6 0 10 -4 10 -10z"/>
<path d="M3640 5089 c0 -5 5 -7 10 -4 6 3 10 8 10 11 0 2 -4 4 -10 4 -5 0 -10
-5 -10 -11z"/>
<path d="M2355 5030 c-3 -5 -12 -7 -19 -4 -8 3 -12 -3 -10 -18 1 -13 3 -27 3
-32 1 -5 10 3 21 17 21 27 56 29 72 5 5 -9 8 -10 8 -1 0 14 -38 43 -57 43 -6
0 -14 -4 -18 -10z"/>
<path d="M2362 4998 c-16 -16 -15 -29 1 -27 28 3 37 -2 38 -23 1 -22 1 -22 8
2 4 15 3 26 -3 29 -6 2 -16 9 -22 17 -8 10 -13 11 -22 2z"/>
<path d="M4060 4990 c-8 -5 -2 -10 15 -14 21 -5 25 -10 16 -19 -9 -9 -16 -9
-31 1 -11 7 -19 9 -18 5 0 -5 -4 -21 -11 -38 -15 -36 -6 -75 16 -75 13 0 14 3
5 12 -14 14 -16 32 -3 23 5 -3 12 -1 16 5 4 6 11 8 16 5 5 -3 6 2 2 11 -3 10
-2 15 3 12 5 -3 15 0 22 8 7 8 9 14 5 14 -4 0 -2 4 6 9 21 13 4 49 -23 49 -13
0 -29 -4 -36 -8z"/>
<path d="M3240 4921 c-9 -3 -15 -10 -15 -16 1 -16 24 -51 25 -37 0 7 5 10 10
7 6 -3 10 3 10 14 0 27 6 26 35 -5 18 -19 25 -23 25 -11 0 8 6 18 13 20 9 4 9
6 0 6 -7 1 -10 7 -7 14 3 9 -8 13 -38 14 -24 0 -50 -2 -58 -6z"/>
<path d="M3333 4854 c-7 -16 -8 -26 -1 -30 11 -7 28 13 28 33 0 23 -15 21 -27
-3z"/>
<path d="M2100 4861 c0 -5 9 -13 20 -16 20 -6 38 -50 26 -62 -3 -4 -6 2 -6 13
0 11 -11 24 -26 31 -24 11 -25 10 -22 -15 2 -15 8 -26 14 -25 16 3 27 -57 13
-73 -9 -11 -5 -16 16 -24 14 -5 23 -14 20 -20 -3 -5 -1 -10 6 -10 7 0 9 9 4
28 -9 34 -9 70 0 102 5 20 0 32 -21 53 -27 28 -44 34 -44 18z"/>
<path d="M3748 4718 c24 -12 31 -34 7 -24 -9 3 -25 -4 -36 -15 -22 -22 -22
-60 0 -67 10 -3 12 0 7 14 -13 34 -11 38 14 42 14 2 28 9 33 16 5 8 10 7 17
-4 8 -13 10 -13 10 1 0 18 -41 49 -62 48 -7 0 -3 -5 10 -11z"/>
<path d="M2760 4705 c0 -8 16 -22 36 -30 48 -20 52 -19 20 6 -14 11 -31 17
-38 13 -8 -5 -9 -2 -5 9 3 10 2 17 -3 17 -6 0 -10 -7 -10 -15z"/>
<path d="M4085 4520 c-4 -6 5 -10 20 -10 15 0 24 4 20 10 -3 6 -12 10 -20 10
-8 0 -17 -4 -20 -10z"/>
<path d="M2299 4503 c-13 -15 -12 -16 6 -8 11 4 30 8 43 8 12 -1 22 3 22 8 0
16 -57 10 -71 -8z"/>
<path d="M4064 4493 c2 -12 0 -23 -6 -25 -5 -2 -7 -15 -3 -30 7 -29 35 -29 35
0 0 8 7 24 17 34 17 20 5 26 -15 6 -9 -9 -14 -6 -22 13 -9 22 -10 22 -6 2z"/>
<path d="M2310 4481 c0 -10 30 -24 37 -17 3 3 2 9 -2 15 -8 13 -35 15 -35 2z"/>
<path d="M2386 4453 c-4 -5 -12 -9 -17 -9 -5 -1 -13 -2 -19 -3 -5 0 -10 -8
-10 -16 0 -9 6 -12 17 -8 13 5 15 2 11 -15 -8 -29 8 -28 17 1 16 52 17 65 1
50z m-1 -31 c-3 -3 -11 0 -18 7 -9 10 -8 11 6 5 10 -3 15 -9 12 -12z"/>
<path d="M3223 4365 c-23 -20 -25 -26 -14 -34 18 -11 41 -3 41 14 0 8 8 11 19
8 23 -6 39 16 20 28 -22 14 -36 11 -66 -16z"/>
<path d="M3290 4340 c0 -5 5 -10 10 -10 6 0 10 5 10 10 0 6 -4 10 -10 10 -5 0
-10 -4 -10 -10z"/>
<path d="M1952 4248 c2 -6 10 -14 16 -16 7 -2 10 2 6 12 -7 18 -28 22 -22 4z"/>
<path d="M3750 4138 c0 -15 4 -18 18 -13 9 5 25 8 35 9 30 1 12 20 -21 22 -26
1 -32 -2 -32 -18z"/>
<path d="M2720 4121 c0 -5 7 -11 15 -15 9 -3 15 0 15 9 0 8 -7 15 -15 15 -8 0
-15 -4 -15 -9z"/>
<path d="M3734 4083 c2 -9 8 -19 14 -21 14 -4 15 0 6 22 -8 21 -23 20 -20 -1z"/>
<path d="M3750 4040 c-9 -6 -10 -10 -3 -10 6 0 15 5 18 10 8 12 4 12 -15 0z"/>
<path d="M4155 3947 c-12 -29 -11 -105 2 -118 8 -8 11 -6 10 7 -1 11 4 18 11
16 10 -2 10 2 2 17 -8 16 -6 23 11 34 12 9 16 18 10 21 -5 4 -8 13 -4 21 3 8
0 15 -7 15 -6 0 -8 -4 -5 -10 3 -5 2 -10 -4 -10 -5 0 -11 6 -14 13 -3 8 -7 6
-12 -6z m25 -27 c0 -5 -4 -10 -10 -10 -5 0 -10 5 -10 10 0 6 5 10 10 10 6 0
10 -4 10 -10z"/>
<path d="M2190 3935 c-19 -22 -8 -25 13 -3 9 10 13 18 8 18 -5 0 -14 -7 -21
-15z"/>
<path d="M2250 3941 c0 -5 7 -15 17 -22 15 -13 15 -12 4 9 -12 23 -21 28 -21
13z"/>
<path d="M2210 3911 c0 -5 7 -11 15 -15 8 -3 15 -12 15 -21 0 -8 5 -15 10 -15
16 0 11 26 -8 43 -21 19 -32 22 -32 8z"/>
<path d="M1850 3795 c0 -14 5 -25 10 -25 6 0 10 -9 10 -20 0 -11 5 -20 11 -20
6 0 8 -9 4 -22 -6 -22 -6 -22 9 -4 23 29 21 66 -4 66 -11 0 -20 2 -20 4 0 2
-3 12 -6 20 -5 12 -2 15 10 10 9 -3 16 -1 16 5 0 6 -9 11 -20 11 -15 0 -20 -7
-20 -25z"/>
<path d="M3222 3803 c3 -19 55 -49 65 -39 4 3 1 17 -5 31 -14 30 -66 37 -60 8z"/>
<path d="M3195 3780 c-3 -5 -2 -10 3 -10 6 0 9 -7 8 -16 0 -9 5 -19 12 -21 17
-6 15 32 -2 46 -10 8 -16 9 -21 1z"/>
<path d="M3220 3696 c0 -2 7 -6 15 -10 8 -3 15 -1 15 4 0 6 -7 10 -15 10 -8 0
-15 -2 -15 -4z"/>
<path d="M4487 3674 c-4 -4 -7 -16 -7 -26 0 -10 -7 -18 -15 -18 -8 0 -15 -4
-15 -10 0 -5 7 -10 15 -10 20 0 51 48 38 61 -5 5 -12 6 -16 3z"/>
<path d="M3810 3600 c0 -5 10 -10 23 -11 l22 0 -22 -9 c-31 -13 -29 -30 3 -30
14 0 23 4 19 10 -3 6 -1 10 4 10 6 0 11 -5 11 -11 0 -5 5 -7 12 -3 8 5 2 15
-16 31 -28 24 -56 30 -56 13z"/>
<path d="M2693 3549 c-13 -4 -23 -13 -23 -19 0 -13 47 -13 56 1 10 17 -9 28
-33 18z"/>
<path d="M3793 3516 c0 -14 3 -26 8 -26 11 0 11 21 0 39 -6 9 -8 5 -8 -13z"/>
<path d="M3868 3533 c6 -2 18 -2 25 0 6 3 1 5 -13 5 -14 0 -19 -2 -12 -5z"/>
<path d="M2641 3494 c0 -11 3 -14 6 -6 3 7 2 16 -1 19 -3 4 -6 -2 -5 -13z"/>
<path d="M4236 3358 c-9 -12 -16 -43 -16 -67 0 -32 -6 -51 -22 -68 -18 -20
-19 -23 -5 -23 9 0 17 5 17 11 0 7 9 9 21 6 19 -5 21 -2 15 24 -4 22 -2 29 10
29 11 0 13 6 9 21 -5 14 -1 25 11 33 12 10 14 15 5 20 -7 5 -18 0 -26 -10 -14
-18 -14 -18 -15 3 0 29 39 42 55 19 7 -9 16 -16 20 -16 5 0 0 9 -10 20 -24 26
-50 25 -69 -2z"/>
<path d="M2075 3330 c-3 -5 -4 -10 -1 -10 2 0 11 -3 20 -6 11 -4 16 -1 16 10
0 18 -25 22 -35 6z"/>
<path d="M2171 3294 c0 -11 3 -14 6 -6 3 7 2 16 -1 19 -3 4 -6 -2 -5 -13z"/>
<path d="M4335 3278 c11 -6 22 -14 25 -17 16 -19 40 -32 40 -22 0 12 -58 51
-75 51 -5 0 -1 -6 10 -12z"/>
<path d="M1736 3271 c-3 -5 3 -11 14 -14 13 -3 20 0 20 9 0 15 -26 19 -34 5z"/>
<path d="M2143 3235 c-7 -8 -9 -16 -4 -19 5 -3 12 1 15 10 8 22 4 25 -11 9z"/>
<path d="M1730 3226 c0 -8 9 -18 20 -21 12 -4 19 -14 18 -23 -4 -23 29 -28 34
-5 3 15 -2 32 -19 62 -2 2 -10 -2 -20 -10 -11 -9 -14 -10 -9 -1 4 7 1 12 -8
12 -9 0 -16 -6 -16 -14z"/>
<path d="M1915 3230 c-3 -5 -1 -10 4 -10 6 0 11 5 11 10 0 6 -2 10 -4 10 -3 0
-8 -4 -11 -10z"/>
<path d="M3239 3213 c-9 -10 -16 -28 -17 -40 -1 -22 0 -22 23 -7 19 12 28 13
45 4 30 -16 37 -4 19 28 -18 33 -50 39 -70 15z"/>
<path d="M1682 3164 c-28 -19 -28 -26 2 -40 20 -9 23 -8 19 6 -3 10 0 21 6 24
13 8 15 26 3 26 -4 0 -18 -7 -30 -16z"/>
<path d="M3320 3131 c-12 -24 -13 -31 -2 -31 5 0 14 11 20 25 14 29 -2 34 -18
6z"/>
<path d="M3221 3118 c-1 -23 18 -33 32 -18 9 10 8 12 -5 7 -11 -4 -18 0 -21
11 -4 16 -5 16 -6 0z"/>
<path d="M1806 3107 c3 -10 9 -15 12 -12 3 3 0 11 -7 18 -10 9 -11 8 -5 -6z"/>
<path d="M4049 3093 c-13 -16 -12 -17 4 -4 16 13 21 21 13 21 -2 0 -10 -8 -17
-17z"/>
<path d="M1770 3090 c0 -5 5 -10 10 -10 6 0 10 5 10 10 0 6 -4 10 -10 10 -5 0
-10 -4 -10 -10z"/>
<path d="M1818 3052 c9 -10 20 -14 23 -9 4 5 9 -3 13 -17 6 -24 26 -37 26 -17
0 15 -49 61 -65 61 -13 0 -12 -3 3 -18z"/>
<path d="M1887 2978 c-4 -11 12 -40 43 -82 60 -79 82 -95 40 -29 -17 26 -36
57 -43 68 -7 11 -15 22 -18 25 -3 3 -8 12 -11 19 -4 12 -5 12 -11 -1z"/>
<path d="M2587 2953 c-10 -10 -8 -33 2 -33 6 0 9 9 8 20 -1 23 -1 22 -10 13z"/>
<path d="M2627 2953 c-16 -15 -6 -33 18 -33 19 0 25 -5 25 -22 0 -16 3 -19 11
-11 9 9 6 19 -12 42 -25 32 -32 35 -42 24z"/>
<path d="M3920 2890 c0 -5 5 -10 11 -10 5 0 7 5 4 10 -3 6 -8 10 -11 10 -2 0
-4 -4 -4 -10z"/>
<path d="M3830 2873 c-29 -9 -100 -46 -97 -50 2 -2 17 3 33 12 16 8 44 18 62
21 18 3 35 10 38 15 6 10 -11 11 -36 2z"/>
<path d="M2580 2850 c0 -5 10 -10 23 -10 18 0 19 2 7 10 -19 13 -30 13 -30 0z"/>
<path d="M2694 2839 c-3 -6 0 -15 7 -20 8 -5 17 -3 21 4 6 9 8 9 8 0 0 -7 9
-13 19 -13 11 0 23 -4 26 -10 3 -5 14 -10 24 -10 9 0 28 -10 41 -22 12 -12 21
-15 18 -8 -4 12 -133 89 -150 90 -4 0 -10 -5 -14 -11z"/>
<path d="M4300 2794 c0 -8 5 -12 10 -9 6 3 10 4 10 0 0 -3 -11 -10 -25 -15
-17 -6 -27 -20 -32 -40 -3 -20 -19 -41 -42 -58 -20 -15 -49 -39 -66 -55 -25
-23 -28 -29 -15 -38 12 -8 10 -9 -8 -4 -18 5 -25 2 -29 -13 -2 -11 -13 -22
-24 -25 -13 -4 -17 -10 -13 -22 6 -16 8 -16 16 -1 5 9 19 16 31 16 24 1 57 22
57 37 0 9 129 73 148 73 4 0 13 9 20 21 7 12 16 18 19 15 3 -3 0 -12 -7 -21
-7 -8 -8 -15 -2 -15 17 0 33 27 26 44 -10 26 4 18 21 -11 9 -16 14 -20 11 -10
-7 21 -1 21 34 1 16 -10 35 -14 46 -10 15 6 11 11 -25 27 -24 10 -48 19 -53
19 -5 0 -16 7 -24 15 -21 21 -28 19 -40 -13 -12 -31 -64 -45 -64 -17 0 8 7 15
16 15 10 0 14 5 10 16 -3 8 -2 12 4 9 12 -7 43 53 36 71 -7 19 -46 18 -46 -2z
m-47 -153 c-4 -3 -11 -10 -15 -15 -4 -4 -6 1 -5 12 1 12 6 18 15 15 7 -3 10
-9 5 -12z m-43 -21 c0 -5 -5 -10 -11 -10 -5 0 -7 5 -4 10 3 6 8 10 11 10 2 0
4 -4 4 -10z"/>
<path d="M2053 2763 c-7 -2 -13 -13 -13 -23 0 -19 27 -47 36 -37 4 3 14 -3 23
-14 14 -17 19 -18 34 -7 12 9 16 20 11 31 -5 14 -9 15 -20 6 -11 -9 -18 -8
-32 3 -9 9 -23 13 -31 10 -8 -3 -11 0 -7 7 4 6 19 11 34 12 24 0 25 1 7 9 -23
10 -26 10 -42 3z"/>
<path d="M3596 2751 c-3 -5 3 -11 15 -14 16 -4 18 -3 8 9 -13 16 -16 17 -23 5z"/>
<path d="M3530 2720 c-12 -8 -11 -10 8 -10 12 0 22 5 22 10 0 13 -11 13 -30 0z"/>
<path d="M2985 2690 c3 -5 8 -10 11 -10 2 0 4 5 4 10 0 6 -5 10 -11 10 -5 0
-7 -4 -4 -10z"/>
<path d="M3480 2690 c-8 -5 -10 -10 -5 -10 6 0 17 5 25 10 8 5 11 10 5 10 -5
0 -17 -5 -25 -10z"/>
<path d="M1970 2670 c-8 -5 -10 -10 -5 -11 6 -1 -3 -5 -20 -9 l-30 -8 32 -1
c34 -1 83 17 83 31 0 11 -42 10 -60 -2z"/>
<path d="M3435 2661 c-3 -5 -2 -12 3 -15 5 -3 9 1 9 9 0 17 -3 19 -12 6z"/>
<path d="M1815 2650 c3 -5 13 -10 21 -10 8 0 14 5 14 10 0 6 -9 10 -21 10 -11
0 -17 -4 -14 -10z"/>
<path d="M2140 2650 c0 -5 -7 -15 -15 -24 -13 -13 -9 -15 39 -21 34 -5 61 -14
72 -26 21 -24 35 -25 27 -1 -5 14 -3 15 8 5 15 -15 29 -17 29 -5 0 5 -22 21
-50 36 -27 15 -50 24 -50 20 0 -3 -6 -2 -12 3 -20 16 -48 23 -48 13z"/>
<path d="M3306 2585 c1 -42 -2 -55 -17 -62 -16 -7 -16 -10 -3 -27 12 -17 14
-18 14 -3 0 22 9 22 27 0 8 -10 12 -13 9 -6 -4 6 -2 14 4 18 5 3 10 1 10 -6 0
-8 13 -10 44 -6 27 4 63 1 92 -8 44 -13 65 -13 52 1 -11 11 -144 54 -168 54
-40 1 -54 14 -41 39 8 14 8 21 1 21 -5 0 -10 6 -10 14 0 8 -3 17 -7 19 -5 3
-7 -19 -7 -48z"/>
<path d="M3250 2614 c-14 -8 -31 -12 -37 -9 -7 2 -13 0 -13 -5 0 -6 -7 -10
-16 -10 -12 0 -15 -6 -11 -21 5 -17 -7 -26 -84 -61 -65 -30 -86 -44 -76 -50
13 -7 58 4 117 29 27 11 55 11 69 -1 12 -9 13 -8 8 7 -7 19 -6 20 17 11 9 -3
13 -10 10 -15 -3 -5 2 -6 10 -3 18 7 21 24 5 24 -6 0 -9 6 -6 14 4 9 -3 16
-18 20 -12 3 -26 14 -29 23 -4 10 -4 14 0 10 4 -3 20 1 37 11 22 13 31 14 34
5 5 -15 33 -18 33 -4 0 16 -12 41 -19 40 -3 -1 -17 -7 -31 -15z"/>
<path d="M2145 2590 c-3 -5 -1 -10 4 -10 6 0 11 5 11 10 0 6 -2 10 -4 10 -3 0
-8 -4 -11 -10z"/>
<path d="M2290 2560 c-13 -8 -13 -10 2 -10 9 0 21 -7 26 -16 6 -12 11 -13 16
-5 4 6 1 18 -8 26 -17 18 -17 18 -36 5z"/>
<path d="M2350 2523 c0 -6 12 -16 28 -24 15 -8 30 -18 34 -24 5 -6 12 -5 20 3
9 9 9 12 -5 12 -9 0 -17 4 -17 9 0 5 -8 11 -17 15 -10 3 -24 9 -30 12 -7 3
-13 2 -13 -3z"/>
<path d="M4025 2500 c-3 -6 1 -7 9 -4 18 7 21 14 7 14 -6 0 -13 -4 -16 -10z"/>
<path d="M3560 2471 c0 -15 33 -22 44 -10 8 9 8 10 -1 5 -6 -3 -14 -2 -18 4
-8 12 -25 13 -25 1z"/>
<path d="M3980 2460 c-14 -11 -21 -20 -17 -20 5 0 20 9 34 20 14 11 22 20 17
20 -5 0 -20 -9 -34 -20z"/>
<path d="M2445 2460 c3 -5 8 -10 11 -10 2 0 4 5 4 10 0 6 -5 10 -11 10 -5 0
-7 -4 -4 -10z"/>
<path d="M2930 2434 c-39 -21 -41 -24 -15 -19 33 6 38 7 74 19 18 6 21 10 10
17 -18 11 -15 11 -69 -17z"/>
<path d="M1855 2440 c3 -5 8 -10 11 -10 2 0 4 5 4 10 0 6 -5 10 -11 10 -5 0
-7 -4 -4 -10z"/>
<path d="M3932 2414 c-7 -8 -8 -14 -3 -14 10 0 25 19 20 25 -2 1 -10 -3 -17
-11z"/>
<path d="M3868 2410 c32 -13 27 -30 -8 -25 -16 2 -30 0 -30 -5 0 -13 29 -32
42 -27 7 2 21 0 31 -5 14 -7 17 -4 17 15 0 28 -29 57 -56 56 -17 0 -16 -1 4
-9z"/>
<path d="M3809 2378 c-6 -12 -3 -56 2 -52 4 2 9 -2 12 -8 3 -7 5 2 4 20 0 18
-4 35 -9 38 -4 3 -9 4 -9 2z"/>
<path d="M2566 2345 c4 -8 11 -15 16 -15 6 0 5 6 -2 15 -7 8 -14 15 -16 15 -2
0 -1 -7 2 -15z"/>
<path d="M2625 2325 c22 -18 41 -33 42 -31 1 1 -1 15 -5 30 -6 24 -14 29 -42
32 l-35 3 40 -34z"/>
<path d="M3891 2324 c6 -8 10 -16 8 -17 -2 -1 -11 -8 -20 -15 -13 -10 -25 -9
-57 2 -40 14 -42 14 -114 -23 -40 -21 -98 -54 -129 -74 -31 -20 -97 -57 -148
-83 -50 -26 -91 -51 -91 -55 0 -8 12 -5 75 22 17 7 36 11 43 10 6 -1 12 3 12
9 0 5 8 10 17 10 9 0 13 3 10 6 -8 8 81 53 105 54 9 0 30 11 46 25 17 14 39
25 51 25 12 0 21 5 21 11 0 7 7 8 18 3 26 -11 110 -11 106 1 -3 6 -19 11 -37
12 -24 2 -28 0 -17 -7 8 -5 11 -10 5 -10 -5 0 -17 5 -25 10 -12 7 -8 11 18 16
24 5 30 9 20 15 -8 5 1 6 22 3 43 -8 48 -13 31 -23 -9 -6 -5 -8 13 -8 26 0 26
0 10 18 -21 24 -2 25 22 2 16 -16 16 -16 10 3 -7 22 -10 22 159 -1 29 -4 36
-2 25 5 -13 8 -13 10 3 10 9 0 17 -4 17 -10 0 -5 16 -10 36 -10 58 0 35 24
-37 37 -35 6 -89 18 -119 26 -30 8 -70 15 -88 15 -28 1 -31 -2 -21 -14z"/>
<path d="M2000 2316 c0 -9 5 -16 10 -16 6 0 10 4 10 9 0 6 -4 13 -10 16 -5 3
-10 -1 -10 -9z"/>
<path d="M2580 2306 c0 -10 -15 -17 -47 -21 -27 -4 -73 -14 -103 -22 -30 -9
-61 -16 -67 -16 -7 0 -13 -4 -13 -9 0 -10 78 -9 104 1 11 4 38 4 60 0 23 -4
46 -3 52 1 14 12 54 1 54 -16 0 -7 5 -16 10 -19 6 -4 10 5 10 19 0 14 -3 25
-7 25 -28 -5 -55 27 -34 40 5 3 3 12 -5 19 -12 10 -14 10 -14 -2z"/>
<path d="M2676 2269 c-36 -40 -24 -53 49 -56 50 -2 199 -45 219 -63 5 -5 14
-6 21 -4 7 3 16 1 20 -5 3 -6 17 -11 31 -11 13 0 24 -5 24 -11 0 -5 5 -7 10
-4 6 4 16 2 23 -3 16 -13 57 -22 57 -13 0 10 -6 13 -330 149 -47 19 -88 39
-91 44 -3 5 -18 -6 -33 -23z"/>
<path d="M2048 2279 c-19 -11 -25 -49 -8 -49 18 0 11 -16 -7 -17 -22 -2 -154
-41 -160 -47 -15 -14 16 -24 91 -28 46 -3 90 -10 98 -14 7 -5 15 -9 18 -10 21
-4 39 -18 34 -26 -4 -6 2 -8 15 -3 13 4 35 0 54 -8 64 -31 92 -40 115 -38 16
2 25 -4 29 -18 6 -22 130 -91 163 -91 10 0 23 -7 30 -15 7 -8 18 -15 25 -15 8
0 15 -5 17 -12 3 -7 7 -4 12 7 4 11 4 16 0 12 -4 -4 -14 3 -22 14 -28 40 -412
279 -412 256 0 -21 -38 -39 -59 -28 -33 18 -45 39 -31 56 14 17 45 21 35 5 -3
-6 2 -13 11 -17 10 -4 19 -2 22 5 2 7 8 10 12 7 5 -3 11 -1 14 4 9 14 -18 31
-57 33 -36 3 -48 13 -25 20 6 2 9 9 7 15 -3 8 -9 9 -21 2z m259 -215 c-3 -3
-12 -4 -19 -1 -8 3 -5 6 6 6 11 1 17 -2 13 -5z"/>
<path d="M4278 2268 c12 -6 22 -15 22 -20 0 -4 -10 -8 -22 -8 -27 0 -39 -8
-59 -36 -8 -12 -45 -47 -84 -79 -38 -32 -69 -64 -68 -72 0 -9 -5 -12 -14 -9
-8 3 -21 -1 -29 -9 -9 -8 -37 -29 -62 -47 -60 -40 -106 -78 -95 -78 4 0 22 9
38 20 17 11 38 17 48 14 9 -3 17 0 17 6 0 7 7 9 16 6 9 -3 12 -2 9 5 -9 14 25
38 55 39 20 0 22 2 10 10 -13 8 -12 10 3 10 9 0 17 4 17 10 0 16 101 91 132
97 25 5 29 9 23 30 -5 20 -1 24 25 30 17 3 37 15 45 27 11 14 15 16 15 5 0 -8
-8 -26 -17 -39 -12 -17 -13 -21 -3 -13 13 10 46 19 104 27 21 3 36 26 17 26
-5 0 -22 5 -38 12 -15 6 -33 10 -39 9 -7 -1 -14 8 -17 19 -4 15 -13 20 -39 19
-31 0 -32 -1 -10 -11z m-128 -158 c0 -5 -5 -10 -11 -10 -5 0 -7 5 -4 10 3 6 8
10 11 10 2 0 4 -4 4 -10z"/>
<path d="M3715 2210 c-3 -5 -15 -10 -26 -10 -10 0 -19 -4 -19 -8 0 -5 20 -4
45 2 25 6 45 14 45 18 0 12 -38 10 -45 -2z"/>
<path d="M3630 2170 c-8 -5 -10 -10 -5 -10 6 0 17 5 25 10 8 5 11 10 5 10 -5
0 -17 -5 -25 -10z"/>
<path d="M3195 2057 c-4 -20 -12 -37 -17 -37 -6 0 -8 13 -4 33 4 23 3 28 -4
17 -5 -8 -10 -27 -10 -42 0 -22 -6 -29 -27 -33 -16 -4 -35 -8 -43 -9 -61 -13
-271 -81 -304 -99 -34 -18 -37 -22 -20 -25 12 -2 50 4 85 13 72 18 133 33 167
40 15 4 20 10 15 18 -5 9 -4 9 8 0 15 -12 159 -22 159 -11 0 4 7 5 15 2 12 -5
14 0 8 26 -5 27 -3 32 8 25 8 -4 3 2 -10 15 -21 21 -22 24 -6 33 12 6 25 5 41
-4 20 -10 22 -14 10 -21 -11 -6 -12 -15 -3 -43 10 -33 12 -35 56 -35 25 0 41
4 34 8 -24 15 85 4 152 -16 39 -11 93 -23 120 -27 l50 -6 -40 19 c-55 27 -188
74 -260 92 -51 13 -60 19 -61 38 -1 25 -31 62 -48 61 -6 0 -6 -3 2 -6 6 -2 9
-10 6 -15 -4 -7 -2 -8 4 -4 8 5 12 -2 11 -21 0 -16 -3 -22 -6 -13 -9 21 -36
40 -50 35 -7 -2 -17 3 -22 13 -7 13 -11 9 -16 -21z"/>
<path d="M2300 2020 c-13 -8 -12 -10 3 -10 9 0 17 5 17 10 0 12 -1 12 -20 0z"/>
<path d="M3230 1953 c0 -5 4 -15 10 -23 11 -18 25 -7 17 15 -6 15 -27 21 -27
8z"/>
<path d="M3797 1909 c-34 -9 -88 -59 -64 -59 8 0 17 -7 21 -15 7 -20 26 -19
26 1 0 11 6 14 21 9 14 -5 25 -2 30 6 7 11 9 10 9 -3 0 -9 -12 -26 -27 -37
-16 -12 -33 -25 -40 -31 -8 -6 -14 -6 -18 0 -3 6 -4 10 -1 10 3 0 -6 12 -19
26 -23 24 -25 25 -54 10 -16 -9 -36 -16 -43 -16 -8 0 -63 -28 -123 -61 -61
-34 -132 -73 -158 -86 -27 -14 -46 -27 -43 -30 7 -8 99 28 112 44 10 11 13 12
17 1 3 -8 6 -9 6 -1 1 6 10 9 23 5 17 -4 20 -2 14 13 -5 14 -4 16 7 6 11 -8
24 -7 57 4 23 8 51 15 61 15 11 0 19 4 19 9 0 10 52 32 88 37 15 2 20 -1 15
-9 -4 -7 0 -6 10 2 9 7 17 10 17 6 0 -4 7 -2 16 6 13 10 17 10 24 -1 7 -11 11
-9 19 10 5 14 10 19 10 12 1 -8 6 -10 13 -6 7 4 48 9 93 11 149 7 158 8 162
19 2 6 -2 11 -9 12 -7 1 -44 8 -83 16 -38 8 -87 18 -107 21 -23 4 -38 11 -38
20 0 21 -31 33 -63 24z m28 -23 c18 -13 18 -14 -8 -9 -15 3 -30 9 -33 14 -8
14 20 10 41 -5z"/>
<path d="M4245 1890 c-3 -5 -1 -10 4 -10 6 0 11 5 11 10 0 6 -2 10 -4 10 -3 0
-8 -4 -11 -10z"/>
<path d="M2603 1873 c-3 -8 -12 -12 -19 -9 -8 3 -14 0 -14 -6 0 -7 14 -8 40
-4 33 5 41 3 50 -15 15 -27 24 -18 16 18 -5 23 -12 28 -37 29 -18 1 -33 -5
-36 -13z"/>
<path d="M2601 1823 c13 -15 12 -16 -8 -11 -13 3 -55 -2 -95 -12 -40 -10 -110
-24 -155 -31 -46 -7 -81 -15 -78 -18 3 -2 83 -5 178 -6 94 -1 192 -4 217 -7
139 -17 220 -29 260 -39 25 -6 52 -12 60 -13 8 -1 48 -14 88 -30 64 -26 72
-32 72 -56 0 -24 -5 -27 -77 -44 -91 -21 -244 -71 -282 -91 l-26 -14 25 0 c14
-1 68 8 120 19 52 11 113 20 135 20 53 0 85 10 85 24 0 7 7 13 15 13 10 0 12
-4 5 -13 -15 -18 26 -25 88 -15 29 4 52 5 52 2 0 -3 37 -7 83 -7 82 -1 183 -9
245 -20 17 -3 32 -3 32 1 0 12 -98 47 -217 77 -105 26 -123 33 -123 50 0 28
-39 57 -75 57 l-30 -1 35 -10 c43 -12 50 -23 39 -61 -11 -37 -10 -37 -52 -47
-28 -6 -34 -5 -30 6 2 7 11 10 19 7 8 -3 14 0 14 6 0 6 -6 10 -12 9 -8 -2 -12
7 -11 25 1 18 -3 27 -14 27 -12 0 -14 -7 -8 -37 6 -33 5 -35 -9 -24 -9 8 -16
26 -16 42 0 20 -9 35 -32 52 -37 27 -253 117 -340 141 -31 9 -58 22 -61 29 -3
7 -20 -3 -47 -28 -24 -22 -40 -34 -36 -27 4 7 1 15 -9 18 -9 4 -13 13 -10 24
3 11 -1 20 -11 24 -15 6 -15 4 -3 -11z"/>
<path d="M3208 1634 c-9 -8 3 -44 13 -39 4 3 12 -3 18 -12 10 -17 10 -17 10 2
0 11 -6 28 -13 38 -14 18 -19 20 -28 11z"/>
<path d="M2084 1569 c-4 -7 -3 -9 4 -5 6 3 12 -2 14 -11 2 -12 6 -14 11 -7 4
7 0 17 -7 23 -11 9 -16 9 -22 0z"/>
<path d="M2653 1468 c1 -7 -5 -12 -13 -13 -26 0 -17 -29 14 -43 36 -15 45 -7
39 36 -4 23 -11 32 -24 32 -11 0 -18 -5 -16 -12z"/>
<path d="M4744 5094 c-5 -18 0 -31 16 -49 14 -15 19 -28 14 -37 -13 -20 -12
-67 2 -72 14 -5 54 4 55 13 0 3 2 20 5 36 2 17 5 51 7 77 3 46 3 46 -32 52
-56 9 -60 8 -67 -20z"/>
<path d="M5265 4790 c3 -5 8 -10 11 -10 2 0 4 5 4 10 0 6 -5 10 -11 10 -5 0
-7 -4 -4 -10z"/>
<path d="M3310 5319 c0 -5 5 -7 10 -4 6 3 10 8 10 11 0 2 -4 4 -10 4 -5 0 -10
-5 -10 -11z"/>
<path d="M436 4683 c-6 -14 -5 -15 5 -6 7 7 10 15 7 18 -3 3 -9 -2 -12 -12z"/>
<path d="M3720 1399 c0 -5 5 -7 10 -4 6 3 10 8 10 11 0 2 -4 4 -10 4 -5 0 -10
-5 -10 -11z"/>
<path d="M1880 5996 c0 -2 7 -6 15 -10 8 -3 15 -1 15 4 0 6 -7 10 -15 10 -8 0
-15 -2 -15 -4z"/>
<path d="M1940 5985 c0 -8 7 -15 15 -15 8 0 15 7 15 15 0 8 -7 15 -15 15 -8 0
-15 -7 -15 -15z"/>
<path d="M2054 5993 c4 -5 12 -9 17 -9 22 -3 23 -5 9 -14 -17 -11 -7 -24 28
-35 22 -6 22 -5 10 16 -7 13 -20 29 -28 36 -16 13 -49 18 -36 6z"/>
<path d="M2478 5993 c7 -3 16 -2 19 1 4 3 -2 6 -13 5 -11 0 -14 -3 -6 -6z"/>
<path d="M2570 5996 c0 -2 7 -9 15 -16 12 -10 15 -10 15 4 0 9 -7 16 -15 16
-8 0 -15 -2 -15 -4z"/>
<path d="M4110 5990 c0 -5 4 -10 9 -10 6 0 13 5 16 10 3 6 -1 10 -9 10 -9 0
-16 -4 -16 -10z"/>
<path d="M4195 5990 c3 -5 8 -10 11 -10 2 0 4 5 4 10 0 6 -5 10 -11 10 -5 0
-7 -4 -4 -10z"/>
<path d="M4464 5988 c-4 -7 -3 -8 4 -4 7 4 12 1 12 -8 0 -8 -5 -16 -12 -18 -7
-3 -9 -11 -4 -24 8 -18 9 -17 19 6 6 14 16 28 21 31 5 4 -1 12 -12 18 -15 8
-23 8 -28 -1z"/>
<path d="M4520 5968 c0 -19 4 -28 13 -25 6 2 12 11 11 19 -1 8 5 15 12 15 9 0
14 -11 14 -29 0 -15 5 -28 10 -28 6 0 10 9 10 21 0 11 5 29 10 39 9 18 7 19
-35 18 -43 0 -45 -2 -45 -30z"/>
<path d="M4617 5993 c-11 -10 -8 -51 4 -59 8 -4 7 -9 -2 -15 -11 -7 -10 -9 4
-9 20 0 23 25 5 34 -10 5 -10 7 -1 12 7 3 9 12 6 21 -5 12 -1 14 17 8 15 -5
20 -4 16 4 -8 12 -39 15 -49 4z"/>
<path d="M2012 5974 c1 -9 9 -19 16 -22 9 -3 13 2 10 14 -1 9 -9 19 -16 22 -9
3 -13 -2 -10 -14z"/>
<path d="M2695 5980 c3 -5 8 -10 11 -10 2 0 4 5 4 10 0 6 -5 10 -11 10 -5 0
-7 -4 -4 -10z"/>
<path d="M3002 5981 c4 -13 18 -16 19 -4 0 4 -5 9 -11 12 -7 2 -11 -2 -8 -8z"/>
<path d="M3130 5975 c0 -8 4 -15 10 -15 5 0 7 7 4 15 -4 8 -8 15 -10 15 -2 0
-4 -7 -4 -15z"/>
<path d="M4036 5974 c-5 -12 -2 -15 10 -10 8 3 18 6 20 6 2 0 4 5 4 10 0 16
-27 11 -34 -6z"/>
<path d="M2210 5970 c0 -5 5 -10 10 -10 6 0 10 5 10 10 0 6 -4 10 -10 10 -5 0
-10 -4 -10 -10z"/>
<path d="M3230 5970 c0 -5 5 -10 10 -10 6 0 10 5 10 10 0 6 -4 10 -10 10 -5 0
-10 -4 -10 -10z"/>
<path d="M3310 5966 c0 -9 7 -12 20 -9 31 8 34 23 6 23 -16 0 -26 -6 -26 -14z"/>
<path d="M3434 5966 c-10 -8 -17 -17 -14 -19 3 -3 16 3 29 14 27 22 15 26 -15
5z"/>
<path d="M3746 5964 c-5 -12 -2 -15 10 -10 8 3 18 6 20 6 2 0 4 5 4 10 0 16
-27 11 -34 -6z"/>
<path d="M3845 5969 c-4 -6 -5 -13 -2 -16 8 -7 47 7 47 18 0 13 -37 11 -45 -2z"/>
<path d="M3940 5964 c0 -14 3 -15 18 -3 9 7 19 15 21 16 2 2 -5 3 -17 3 -14 0
-22 -6 -22 -16z"/>
<path d="M4412 5950 c-18 -30 -15 -37 17 -36 27 1 28 2 14 18 -8 9 -12 22 -8
27 3 6 2 11 -2 11 -5 0 -14 -9 -21 -20z"/>
<path d="M2162 5948 c6 -18 28 -21 28 -4 0 9 -7 16 -16 16 -9 0 -14 -5 -12
-12z"/>
<path d="M2240 5953 c0 -5 4 -15 10 -23 11 -18 25 -7 17 15 -6 15 -27 21 -27
8z"/>
<path d="M4348 5949 c-10 -5 -18 -17 -18 -25 0 -10 7 -14 18 -12 9 2 16 10 15
16 -2 7 2 12 7 12 6 0 10 5 10 10 0 13 -10 12 -32 -1z"/>
<path d="M4690 5952 c0 -7 -6 -12 -14 -12 -8 0 -18 -4 -21 -10 -9 -15 8 -12
31 4 10 8 16 18 11 22 -4 4 -7 2 -7 -4z"/>
<path d="M4260 5934 c0 -7 -3 -19 -6 -28 -3 -9 -2 -16 2 -16 16 0 31 15 38 35
5 16 2 21 -14 21 -11 0 -20 -6 -20 -12z"/>
<path d="M2310 5930 c0 -5 4 -10 9 -10 5 0 16 -3 25 -6 11 -4 16 -1 16 10 0
10 -9 16 -25 16 -14 0 -25 -4 -25 -10z"/>
<path d="M4210 5930 c0 -5 -6 -10 -14 -10 -7 0 -16 -9 -19 -20 -5 -20 8 -26
29 -12 16 10 28 52 15 52 -6 0 -11 -4 -11 -10z"/>
<path d="M2400 5921 c0 -10 50 -25 58 -16 8 8 -3 15 -32 21 -14 2 -26 0 -26
-5z"/>
<path d="M4098 5924 c10 -5 10 -9 1 -20 -19 -23 -2 -28 27 -10 30 20 29 21
-11 29 -16 4 -24 4 -17 1z"/>
<path d="M2495 5910 c-3 -6 0 -10 9 -10 8 0 22 -3 32 -7 11 -4 15 -2 12 7 -5
16 -45 23 -53 10z"/>
<path d="M2610 5912 c0 -11 41 -34 48 -27 4 4 -2 13 -12 21 -22 15 -36 18 -36
6z"/>
<path d="M3923 5913 c4 -3 0 -15 -10 -25 -15 -17 -15 -18 9 -18 13 0 27 3 31
6 7 8 -15 44 -27 44 -5 0 -6 -3 -3 -7z"/>
<path d="M4004 5898 c-8 -27 -2 -30 29 -15 31 14 31 30 -1 32 -14 1 -24 -6
-28 -17z"/>
<path d="M2727 5904 c-9 -10 2 -24 18 -24 9 0 12 6 9 15 -6 16 -17 19 -27 9z"/>
<path d="M3675 5900 c-3 -5 -1 -10 4 -10 6 0 11 5 11 10 0 6 -2 10 -4 10 -3 0
-8 -4 -11 -10z"/>
<path d="M3840 5903 c-24 -9 -40 -25 -35 -34 7 -10 47 4 45 15 -1 5 4 13 12
17 14 10 1 11 -22 2z"/>
<path d="M4535 5900 c-3 -5 -1 -10 4 -10 6 0 11 5 11 10 0 6 -2 10 -4 10 -3 0
-8 -4 -11 -10z"/>
<path d="M2825 5890 c3 -5 10 -10 16 -10 5 0 9 5 9 10 0 6 -7 10 -16 10 -8 0
-12 -4 -9 -10z"/>
<path d="M3718 5892 c-18 -4 -24 -18 -10 -25 4 -2 18 -1 31 2 19 5 21 8 10 17
-8 6 -22 9 -31 6z"/>
<path d="M2935 5880 c3 -5 13 -10 21 -10 8 0 14 5 14 10 0 6 -9 10 -21 10 -11
0 -17 -4 -14 -10z"/>
<path d="M3045 5880 c-3 -5 3 -10 15 -10 12 0 18 5 15 10 -3 6 -10 10 -15 10
-5 0 -12 -4 -15 -10z"/>
<path d="M3486 5883 c-11 -11 -6 -21 9 -19 22 3 28 13 11 19 -8 3 -17 3 -20 0z"/>
<path d="M3607 5883 c-13 -12 -7 -22 13 -20 11 1 20 7 20 14 0 14 -22 18 -33
6z"/>
<path d="M4475 5880 c3 -5 8 -10 11 -10 2 0 4 5 4 10 0 6 -5 10 -11 10 -5 0
-7 -4 -4 -10z"/>
<path d="M3174 5865 c21 -16 32 -13 21 4 -3 6 -14 11 -23 11 -15 -1 -15 -2 2
-15z"/>
<path d="M3275 5870 c3 -5 10 -10 16 -10 5 0 9 5 9 10 0 6 -7 10 -16 10 -8 0
-12 -4 -9 -10z"/>
<path d="M3370 5869 c0 -5 5 -7 10 -4 6 3 10 8 10 11 0 2 -4 4 -10 4 -5 0 -10
-5 -10 -11z"/>
<path d="M4408 5863 c7 -3 16 -2 19 1 4 3 -2 6 -13 5 -11 0 -14 -3 -6 -6z"/>
<path d="M3305 830 c-7 -12 2 -12 30 0 19 8 19 9 -2 9 -12 1 -25 -3 -28 -9z"/>
<path d="M3235 800 c-13 -5 -14 -9 -5 -9 8 0 24 4 35 9 13 5 14 9 5 9 -8 0
-24 -4 -35 -9z"/>
<path d="M3330 786 c0 -10 28 -13 41 -5 10 6 7 9 -13 9 -16 0 -28 -2 -28 -4z"/>
<path d="M3270 770 c-13 -8 -12 -10 3 -10 9 0 17 5 17 10 0 12 -1 12 -20 0z"/>
<path d="M3108 759 c-15 -10 -7 -12 46 -9 65 3 82 16 22 16 -30 1 -60 -3 -68
-7z"/>
<path d="M3070 370 c0 -5 15 -10 33 -9 27 0 29 2 12 9 -28 12 -45 12 -45 0z"/>
<path d="M3440 290 c0 -17 3 -18 25 -8 19 8 22 14 13 20 -22 14 -38 9 -38 -12z"/>
<path d="M2985 280 c3 -5 10 -10 16 -10 5 0 9 5 9 10 0 6 -7 10 -16 10 -8 0
-12 -4 -9 -10z"/>
<path d="M3516 262 c-21 -10 -25 -16 -15 -22 13 -9 43 2 54 19 10 17 -9 18
-39 3z"/>
<path d="M2520 251 c0 -5 11 -11 25 -13 28 -6 34 6 9 16 -22 8 -34 7 -34 -3z"/>
<path d="M3595 240 c-4 -6 -1 -17 5 -25 10 -12 8 -16 -10 -23 -21 -8 -21 -9
-6 -25 22 -22 66 -117 66 -144 0 -21 3 -21 129 -21 124 0 128 0 123 20 -2 11
-15 24 -28 29 -13 4 -24 14 -24 20 0 6 -7 9 -15 5 -9 -3 -15 0 -15 9 0 14 -11
19 -37 16 -17 -2 -26 18 -14 33 22 27 -82 63 -111 38 -13 -10 -17 -6 -28 33
-12 45 -23 55 -35 35z m135 -160 c0 -5 -5 -10 -11 -10 -5 0 -7 5 -4 10 3 6 8
10 11 10 2 0 4 -4 4 -10z m90 -47 c0 -14 -6 -14 -77 -3 -2 0 -3 3 -3 8 0 4 18
8 40 9 29 1 40 -3 40 -14z"/>
<path d="M2460 224 c0 -7 5 -13 12 -11 6 1 17 -8 23 -20 13 -25 25 -21 25 8 0
10 -12 21 -30 28 -24 8 -30 7 -30 -5z"/>
<path d="M3540 220 c0 -11 6 -20 13 -20 19 0 27 10 20 26 -8 21 -33 17 -33 -6z"/>
<path d="M2394 209 c-8 -13 3 -24 34 -34 29 -8 28 5 -3 28 -16 11 -26 14 -31
6z"/>
<path d="M2355 150 c3 -5 15 -10 25 -10 10 0 22 -4 25 -10 3 -5 11 -10 17 -10
6 0 -1 9 -15 20 -26 21 -63 28 -52 10z"/>
<path d="M2295 139 c-6 -9 21 -38 37 -39 18 0 14 17 -7 33 -16 11 -26 13 -30
6z"/>
<path d="M2444 115 c-3 -20 -13 -39 -21 -42 -18 -7 -33 14 -26 34 3 9 0 11
-10 7 -9 -3 -13 -13 -10 -24 3 -10 -2 -32 -10 -49 -8 -16 -12 -32 -9 -35 11
-12 32 -6 32 9 0 19 14 19 30 0 21 -25 42 -18 39 12 -1 16 1 35 4 43 13 37 14
60 2 70 -11 9 -15 4 -21 -25z"/>
<path d="M2246 92 c-12 -11 -5 -17 19 -18 14 -1 25 2 25 6 0 10 -37 20 -44 12z"/>
<path d="M2200 46 c0 -9 7 -16 16 -16 9 0 14 5 12 12 -6 18 -28 21 -28 4z"/>
<path d="M2264 29 c-5 -8 -3 -10 5 -5 7 5 21 0 32 -10 17 -16 19 -16 19 -1 0
10 -4 17 -9 17 -5 0 -16 3 -24 6 -8 3 -18 0 -23 -7z"/>
<path d="M2180 10 c0 -5 7 -10 16 -10 8 0 12 5 9 10 -3 6 -10 10 -16 10 -5 0
-9 -4 -9 -10z"/>
</g>
</svg>
