<?xml version="1.0" encoding="iso-8859-1"?>
<!-- Generator: Adobe Illustrator 19.0.0, SVG Export Plug-In . SVG Version: 6.00 Build 0)  -->
<svg version="1.1" id="Capa_1" xmlns="http://www.w3.org/2000/svg" xmlns:xlink="http://www.w3.org/1999/xlink" x="0px" y="0px"
	 viewBox="0 0 512.001 512.001" style="enable-background:new 0 0 512.001 512.001;" xml:space="preserve">
<path style="fill:#BABABA;" d="M294.976,72.301V22.257c0-7.597-6.157-13.757-13.757-13.757H230.78
	c-7.599,0-13.757,6.159-13.757,13.757v50.044H294.976z"/>
<path style="fill:#989DA0;" d="M250.783,8.501h-20.001c-7.599,0-13.757,6.159-13.757,13.757v50.044h20.001V22.257
	C237.026,14.66,243.183,8.501,250.783,8.501z"/>
<path style="fill:#EAE9E8;" d="M311.31,94.934c0,8.659-7.019,15.679-15.679,15.679H216.37c-8.657,0-15.677-7.02-15.677-15.679
	v-7.954c0-8.66,7.02-15.678,15.677-15.678h79.262c8.66,0,15.679,7.019,15.679,15.678V94.934z"/>
<path style="fill:#DDDDDD;" d="M220.695,94.934v-7.954c0-8.66,7.02-15.678,15.677-15.678h-20.001
	c-8.657,0-15.677,7.019-15.677,15.678v7.954c0,8.659,7.02,15.679,15.677,15.679h20.001
	C227.714,110.612,220.695,103.592,220.695,94.934z"/>
<path style="fill:#8DD83D;" d="M294.49,109.612h-76.98c-56.153,21.568-97.134,89.104-97.134,169.094c0,20.375,0,169.221,0,188.083
	c0,20.276,16.437,36.709,36.708,36.709h197.83c20.272,0,36.708-16.433,36.708-36.709c0-4.507,0-186.079,0-188.083
	C391.624,198.716,350.644,131.181,294.49,109.612z M329.511,288.807c-18.655,5.701-41.926-16.34-51.979-49.232
	c-10.056-32.892-3.084-64.178,15.572-69.88c18.651-5.701,41.925,16.34,51.978,49.233
	C355.136,251.82,348.166,283.105,329.511,288.807z"/>
<g>
	<path style="fill:#7FC928;" d="M365.084,218.928c-10.743-35.149-36.491-57.697-55.462-47.798
		c38.485,16.74,54.975,99.763,23.374,116.244C361.172,299.626,378.516,262.878,365.084,218.928z"/>
	<path style="fill:#7FC928;" d="M140.378,466.79c0-4.124,0-183.968,0-188.083c0-79.99,40.98-147.526,97.134-169.094h-20
		c-56.153,21.568-97.134,89.104-97.134,169.094c0,1.31,0,184.597,0,188.083c0,20.276,16.437,36.709,36.708,36.709h20.001
		C156.814,503.499,140.378,487.066,140.378,466.79z"/>
</g>
<path style="fill:#49B5CE;" d="M352.68,449.62c0,8.659-7.018,15.678-15.677,15.678H174.997c-8.659,0-15.677-7.019-15.677-15.678
	V346.842c0-8.659,7.018-15.678,15.677-15.678h162.006c8.659,0,15.677,7.019,15.677,15.678V449.62z"/>
<g>
	<path style="fill:#4A94CC;" d="M179.322,449.62V346.842c0-8.659,7.018-15.678,15.677-15.678h-20.001
		c-8.659,0-15.677,7.019-15.677,15.678v102.777c0,8.659,7.018,15.678,15.677,15.678h20.001
		C186.34,465.298,179.322,458.279,179.322,449.62z"/>
	<path style="fill:#4A94CC;" d="M174.997,465.298h162.006c8.659,0,15.677-7.019,15.677-15.678v-51.39c0,0-47.235,38.106-96.68,0
		c-49.444-38.106-96.68,0-96.68,0v51.39C159.321,458.279,166.339,465.298,174.997,465.298z"/>
</g>
<path style="fill:#3683B2;" d="M179.322,449.62v-62.445c-12.355,4.891-20.001,11.056-20.001,11.056v51.39
	c0,8.659,7.018,15.678,15.677,15.678h20.001C186.34,465.298,179.322,458.279,179.322,449.62z"/>
<g>
	<path style="fill:#020202;" d="M174.997,339.666h24.525c4.143,0,7.5-3.358,7.5-7.5s-3.357-7.5-7.5-7.5h-24.525
		c-12.78,0-23.177,10.398-23.177,23.178c0,14.905,0,87.871,0,102.777c0,12.781,10.397,23.178,23.177,23.178h162.006
		c12.78,0,23.177-10.398,23.177-23.178c0-14.909,0-87.873,0-102.777c0-12.781-10.397-23.178-23.177-23.178H234.526
		c-4.143,0-7.5,3.358-7.5,7.5s3.357,7.5,7.5,7.5h102.478c4.508,0,8.176,3.668,8.176,8.177v47.534
		c-10.198,6.774-46.84,27.017-84.601-2.086c-28.949-22.31-62.846-23.878-93.758-7.61v-37.836
		C166.822,343.334,170.49,339.666,174.997,339.666z M251.422,405.171c28.95,22.311,62.844,23.88,93.758,7.613v37.835
		c0,4.509-3.668,8.177-8.176,8.177H174.997c-4.508,0-8.176-3.668-8.176-8.177V403.05
		C177.073,396.125,213.359,375.836,251.422,405.171z"/>
	<path style="fill:#020202;" d="M391.624,389.231c4.143,0,7.5-3.358,7.5-7.5V279.706c0-67.207-29.525-137.307-86.607-168.918
		c7.115-7.573,6.293-14.922,6.293-23.808c0-10.399-6.884-19.219-16.334-22.146V21.257C302.477,9.536,292.941,0,281.22,0H230.78
		c-11.722,0-21.257,9.536-21.257,21.257v43.577c-9.449,2.927-16.331,11.748-16.331,22.146v7.954c0,6.128,2.395,11.705,6.292,15.854
		c-57.203,31.677-86.608,101.753-86.608,168.919v188.083c0,24.378,19.832,44.21,44.209,44.21h197.83
		c24.376,0,44.209-19.832,44.209-44.21v-51.058c0-4.142-3.357-7.5-7.5-7.5c-4.143,0-7.5,3.358-7.5,7.5v51.058
		c0,16.106-13.103,29.209-29.208,29.209h-197.83c-16.105,0-29.208-13.103-29.208-29.209V279.706
		c0-73.976,37.371-140.17,91.05-161.594h74.147c53.678,21.423,91.05,87.617,91.05,161.594V381.73
		C384.124,385.872,387.481,389.231,391.624,389.231z M224.525,21.257c0-3.45,2.807-6.256,6.256-6.256h50.439
		c3.449,0,6.256,2.806,6.256,6.256v42.544h-62.951V21.257H224.525z M303.81,94.934c0,4.509-3.669,8.178-8.178,8.178
		c-10.004,0-69.962,0-79.262,0c-4.508,0-8.176-3.668-8.176-8.178v-7.954c0-3.966,2.912-8.177,8.831-8.177h77.952
		c5.663,0,8.834,3.956,8.834,8.177v7.954H303.81z"/>
	<path style="fill:#020202;" d="M323.463,298.205c28.035,0,41.834-37.802,28.793-80.47c-19.313-63.181-73.924-73.741-85.025-23.927
		c-3.219,14.444-2.107,31.832,3.128,48.96C280.451,275.782,302.615,298.205,323.463,298.205z M295.297,177.868
		c7.612-2.327,16.095,2.953,21.862,8.417c30.243,28.645,32.033,89.662,10.159,96.35c-12.582,3.838-33.179-13.382-42.614-44.253
		C275.554,208.444,282.021,181.927,295.297,177.868z"/>
</g>
<g>
</g>
<g>
</g>
<g>
</g>
<g>
</g>
<g>
</g>
<g>
</g>
<g>
</g>
<g>
</g>
<g>
</g>
<g>
</g>
<g>
</g>
<g>
</g>
<g>
</g>
<g>
</g>
<g>
</g>
</svg>
