<?xml version="1.0" standalone="no"?>
<!DOCTYPE svg PUBLIC "-//W3C//DTD SVG 20010904//EN"
 "http://www.w3.org/TR/2001/REC-SVG-20010904/DTD/svg10.dtd">
<svg version="1.0" xmlns="http://www.w3.org/2000/svg"
 width="240.000000pt" height="288.000000pt" viewBox="0 0 240.000000 288.000000"
 preserveAspectRatio="xMidYMid meet">

<g transform="translate(0.000000,288.000000) scale(0.100000,-0.100000)"
fill="#000000" stroke="none">
<path d="M0 1440 l0 -1440 1200 0 1200 0 0 1440 0 1440 -1200 0 -1200 0 0
-1440z m1395 864 c33 -8 65 -20 70 -26 7 -8 5 -9 -7 -5 -12 4 -15 2 -11 -9 6
-16 -12 -20 -22 -4 -3 6 -14 10 -23 9 -14 0 -14 -2 3 -10 13 -6 -20 -7 -95 -3
-136 8 -122 8 -234 -2 -71 -6 -88 -5 -81 5 6 10 0 11 -25 6 -24 -5 -31 -4 -25
5 5 9 1 10 -16 6 -21 -6 -22 -5 -6 4 61 39 359 54 472 24z m-148 -70 c10 -10
9 -13 -3 -18 -30 -11 -99 -5 -119 11 -11 9 -14 14 -5 11 8 -3 24 -2 35 2 30
11 79 8 92 -6z m211 -36 c-2 -7 2 -12 7 -13 6 0 16 -4 24 -9 9 -6 12 -5 8 1
-4 6 4 15 17 21 27 12 37 7 29 -14 -4 -12 -8 -12 -21 -2 -11 9 -14 9 -9 1 24
-39 -135 -72 -343 -72 -182 0 -270 15 -286 47 -6 13 -13 19 -15 14 -2 -6 -9
-4 -16 3 -10 11 -8 13 10 12 28 -2 53 -23 34 -30 -9 -4 -9 -6 0 -6 6 -1 15 4
18 9 3 6 15 10 26 10 11 0 17 -4 14 -10 -3 -6 1 -7 9 -4 9 3 13 11 9 17 -4 7
5 8 28 3 19 -4 84 -10 145 -13 84 -4 113 -2 119 7 5 9 4 11 -3 6 -7 -4 -12 -2
-12 3 0 7 24 11 58 12 31 0 75 4 97 8 22 5 43 9 48 10 4 0 6 -4 5 -11z m-461
-4 c-3 -3 -12 -4 -19 -1 -8 3 -5 6 6 6 11 1 17 -2 13 -5z m91 -11 c-10 -2 -28
-2 -40 0 -13 2 -5 4 17 4 22 1 32 -1 23 -4z m172 -100 c0 -6 3 -18 6 -27 5
-12 0 -16 -18 -16 -13 0 -29 5 -34 10 -8 8 -15 6 -24 -5 -13 -16 -47 -20 -68
-7 -6 5 -11 20 -10 35 2 26 3 26 75 24 48 -1 73 -6 73 -14z m-61 -69 c9 -8
-13 -24 -33 -24 -23 0 -86 27 -86 36 0 5 112 -6 119 -12z m66 -9 c-29 -19 -34
-25 -18 -23 12 2 22 -1 22 -6 -1 -5 5 -12 12 -17 11 -6 10 -9 -4 -15 -20 -7
-23 -24 -4 -24 8 0 22 -9 32 -20 19 -22 15 -25 -13 -11 -9 5 -73 14 -142 20
-152 14 -163 14 -155 1 3 -6 -4 -10 -17 -10 l-23 0 25 20 c19 15 42 20 90 20
46 1 59 4 45 10 -11 5 -14 9 -6 9 10 1 11 4 3 14 -8 10 -2 12 29 9 31 -3 42
-10 49 -28 11 -28 22 -32 19 -6 -1 9 -1 20 0 25 0 4 1 10 0 13 0 4 5 11 13 15
10 7 10 9 -2 9 -33 1 15 20 50 20 l35 0 -40 -25z m170 -35 c3 -5 -4 -6 -15 -3
-11 3 -22 9 -25 13 -3 5 4 6 15 3 11 -3 22 -9 25 -13z m65 -74 c0 -2 -7 -7
-16 -10 -8 -3 -12 -2 -9 4 6 10 25 14 25 6z m-305 -22 c55 -4 110 -6 121 -5
30 1 38 -42 13 -65 -10 -9 -16 -21 -13 -25 3 -5 -3 -9 -13 -9 -15 0 -16 -2 -3
-10 12 -8 9 -9 -10 -6 -27 6 -165 21 -272 31 -56 5 -71 11 -87 31 -17 21 -18
29 -8 51 11 25 13 25 92 19 44 -4 125 -9 180 -12z m227 -42 c-41 -38 -56 -43
-45 -16 3 8 11 14 19 14 8 0 14 5 14 10 0 6 6 10 14 10 8 0 17 7 20 16 4 9 9
14 13 10 3 -3 -12 -23 -35 -44z m-47 -61 c-3 -5 -1 -12 5 -16 5 -3 10 -11 10
-18 0 -6 -6 -2 -14 8 -13 18 -13 35 0 35 3 0 3 -4 -1 -9z m-417 -26 c-3 -3 -9
2 -12 12 -6 14 -5 15 5 6 7 -7 10 -15 7 -18z m420 -36 c10 -13 9 -19 -5 -30
-16 -13 -17 -12 -5 3 9 11 10 18 2 23 -5 3 -10 11 -10 17 0 6 1 9 3 7 1 -2 8
-11 15 -20z m-325 -121 c25 5 67 -25 67 -46 -1 -13 -7 -10 -25 13 -22 26 -30
27 -26 3 0 -3 -5 -5 -12 -4 -28 6 -47 19 -47 33 0 9 5 11 13 6 6 -4 20 -6 30
-5z m141 -35 c4 -4 13 -8 19 -9 7 0 20 -2 30 -2 12 -2 17 -11 17 -34 0 -25 -3
-29 -12 -20 -7 7 -20 12 -30 12 -11 0 -18 7 -18 20 0 23 0 23 -34 10 -28 -10
-34 -2 -14 18 14 14 31 16 42 5z m116 -12 c0 -6 -5 -13 -10 -16 -6 -4 -7 -12
-4 -18 4 -7 1 -6 -7 2 -11 10 -11 15 -1 18 6 3 10 9 6 14 -3 5 0 9 5 9 6 0 11
-4 11 -9z m57 -6 c0 -8 -4 -15 -9 -15 -4 0 -8 7 -8 15 0 8 4 15 8 15 5 0 9 -7
9 -15z m0 -85 c0 -19 -4 -27 -10 -21 -5 5 -6 18 -2 30 9 29 12 26 12 -9z m3
-114 c0 -2 -8 -10 -17 -17 -16 -13 -17 -12 -4 4 13 16 21 21 21 13z m-16 -111
c3 -8 1 -15 -4 -15 -6 0 -10 7 -10 15 0 8 2 15 4 15 2 0 6 -7 10 -15z m-64 -9
c0 -3 -4 -8 -10 -11 -5 -3 -10 -1 -10 4 0 6 5 11 10 11 6 0 10 -2 10 -4z m61
-93 c13 -16 12 -17 -3 -4 -17 13 -22 21 -14 21 2 0 10 -8 17 -17z m-6 -53 c3
-5 -1 -10 -10 -10 -9 0 -13 5 -10 10 3 6 8 10 10 10 2 0 7 -4 10 -10z m-96
-26 c10 -9 -8 -9 -94 3 l-90 12 90 -5 c49 -3 92 -7 94 -10z m-121 -21 c-2 -11
4 -18 17 -20 11 -1 14 0 8 3 -25 11 -12 24 25 24 27 0 33 -3 22 -10 -10 -6
-11 -10 -2 -10 23 0 27 2 24 14 -1 6 4 3 12 -8 8 -10 19 -15 25 -12 5 4 12 2
16 -4 4 -6 11 -8 16 -5 5 4 9 1 9 -5 0 -6 5 -8 10 -5 6 3 10 1 10 -4 0 -8 -19
-9 -54 -5 -53 6 -55 6 -49 -15 5 -19 10 -21 32 -16 69 19 90 22 85 14 -3 -5
-12 -9 -20 -9 -8 0 -12 -4 -9 -10 4 -6 -25 -10 -79 -10 -47 0 -88 5 -91 10 -3
6 4 10 17 11 l23 0 -22 9 c-30 12 -29 22 0 15 16 -4 24 -2 24 7 0 9 -18 14
-55 16 -67 3 -81 11 -57 29 28 19 67 17 63 -4z m-621 -55 c-2 -13 -4 -5 -4 17
-1 22 1 32 4 23 2 -10 2 -28 0 -40z m79 41 c3 -6 1 -16 -5 -22 -9 -9 -10 -7
-5 7 6 16 4 18 -10 13 -10 -4 -15 -3 -11 3 8 13 22 13 31 -1z m54 -15 c0 -14
-4 -23 -9 -20 -5 3 -7 15 -4 26 7 28 13 25 13 -6z m74 19 c-5 -5 -12 -12 -16
-18 -4 -6 -8 -2 -8 8 0 9 7 17 17 17 9 0 12 -3 7 -7z m158 -28 c2 -21 0 -35
-7 -35 -7 0 -9 14 -7 35 2 19 5 35 7 35 2 0 5 -16 7 -35z m51 28 c-7 -2 -14
-17 -14 -31 -1 -18 -3 -21 -6 -9 -6 24 3 47 19 46 10 0 10 -2 1 -6z m80 -1
c-6 -4 -13 -21 -16 -37 l-4 -30 -2 33 c0 17 -5 32 -11 32 -5 0 -11 -15 -11
-32 -1 -25 -3 -27 -6 -10 -7 36 4 52 34 52 16 0 23 -3 16 -8z m-238 -26 c0
-13 -3 -22 -7 -19 -5 2 -8 -1 -8 -8 0 -7 -2 -10 -5 -7 -5 5 11 58 17 58 2 0 3
-11 3 -24z m-195 -26 c0 -5 -5 -10 -11 -10 -5 0 -7 5 -4 10 3 6 8 10 11 10 2
0 4 -4 4 -10z m670 -62 c8 -1 36 2 63 7 39 6 47 5 47 -8 0 -9 -8 -22 -18 -29
-24 -17 -40 -46 -47 -88 l-6 -32 58 7 c33 3 69 2 83 -4 22 -8 22 -10 5 -11
l-20 -1 20 -9 c17 -7 17 -9 3 -9 -21 -1 -24 -21 -4 -21 8 0 17 -4 20 -9 8 -12
-21 -8 -35 6 -14 14 -75 0 -71 -16 1 -7 -2 -10 -8 -6 -6 3 -8 10 -5 15 3 4
-42 8 -100 8 -115 1 -175 9 -175 24 0 5 -10 7 -22 4 -13 -3 -17 -3 -9 0 11 5
11 8 0 16 -10 7 -7 8 11 4 14 -3 50 -7 80 -10 40 -4 47 -3 25 3 -30 9 -30 9
-3 10 21 1 25 5 21 21 -3 11 -8 18 -12 16 -3 -2 -6 7 -6 20 0 13 4 24 8 24 5
0 -1 15 -12 34 -12 18 -21 36 -21 38 0 3 26 3 58 1 31 -3 64 -5 72 -5z m-147
-145 c-7 -2 -19 -2 -25 0 -7 3 -2 5 12 5 14 0 19 -2 13 -5z m-63 -58 c0 -12
-19 -12 -23 0 -4 9 -1 12 9 8 7 -3 14 -7 14 -8z m57 -31 c3 3 2 11 -3 19 -5 7
-2 5 7 -4 22 -24 79 -30 79 -8 0 8 -4 8 -13 1 -8 -7 -17 -7 -29 2 -13 10 -6
12 43 12 32 0 59 -4 59 -8 0 -4 -5 -8 -11 -8 -5 0 -7 -5 -4 -10 4 -6 12 -4 21
5 15 15 24 19 24 11 0 -3 -7 -12 -16 -20 -31 -32 -199 -12 -201 24 -2 18 -1
18 19 -2 11 -11 22 -17 25 -14z m568 26 c-3 -5 -14 -10 -23 -9 -14 0 -13 2 3
9 27 11 27 11 20 0z m-739 -45 c-12 -12 -25 -19 -31 -16 -5 2 -4 6 3 9 7 2 12
8 12 13 0 6 -4 7 -10 4 -6 -4 -7 1 -3 12 6 16 5 17 -13 3 -17 -14 -18 -14 -6
1 10 14 18 15 41 6 l27 -10 -20 -22z m488 30 c3 3 2 0 -2 -5 -5 -6 -40 -13
-78 -15 -38 -3 -63 -3 -56 1 6 3 10 10 6 15 -7 12 19 7 27 -5 11 -14 81 3 72
17 -5 9 -3 9 9 0 8 -7 18 -11 22 -8z m-431 -35 c-3 -11 -9 -17 -14 -14 -14 8
-10 34 5 34 9 0 12 -7 9 -20z m461 -14 c4 -18 2 -45 -3 -59 -9 -22 -7 -26 15
-31 36 -9 29 -20 -23 -34 -41 -11 -48 -11 -55 3 -5 8 -14 13 -19 9 -5 -3 -9
-2 -8 3 1 4 -2 18 -6 30 -4 12 -7 25 -6 28 1 3 -5 13 -14 22 -14 14 -18 14
-35 -2 -21 -19 -40 -13 -40 14 0 15 16 21 83 33 45 8 87 16 93 17 7 0 15 -14
18 -33z m-554 -21 c10 -13 9 -15 -8 -15 -22 0 -36 13 -25 24 10 10 20 7 33 -9z
m0 -29 c0 -2 -8 -10 -17 -17 -16 -13 -17 -12 -4 4 13 16 21 21 21 13z"/>
<path d="M1415 2180 c-11 -5 -15 -9 -10 -10 44 -7 53 -6 48 7 -6 15 -10 15
-38 3z"/>
<path d="M988 1863 c6 -2 18 -2 25 0 6 3 1 5 -13 5 -14 0 -19 -2 -12 -5z"/>
<path d="M1090 1866 c0 -2 9 -6 20 -9 11 -3 20 -1 20 4 0 5 -9 9 -20 9 -11 0
-20 -2 -20 -4z"/>
<path d="M1220 1846 c41 -6 82 -9 90 -6 16 5 -74 18 -130 18 -19 0 -1 -6 40
-12z"/>
<path d="M1238 1823 c7 -3 16 -2 19 1 4 3 -2 6 -13 5 -11 0 -14 -3 -6 -6z"/>
<path d="M1088 1018 c9 -9 15 -9 24 0 9 9 7 12 -12 12 -19 0 -21 -3 -12 -12z"/>
<path d="M1250 760 c-9 -6 -10 -10 -3 -10 6 0 15 5 18 10 8 12 4 12 -15 0z"/>
<path d="M1359 746 c-2 -3 -32 -6 -66 -7 -34 -1 -68 -6 -75 -11 -15 -11 106
-2 162 12 30 7 31 8 9 9 -14 1 -28 -1 -30 -3z"/>
</g>
</svg>
