<?xml version="1.0" encoding="iso-8859-1"?>
<!-- Generator: Adobe Illustrator 19.0.0, SVG Export Plug-In . SVG Version: 6.00 Build 0)  -->
<svg version="1.1" id="Capa_1" xmlns="http://www.w3.org/2000/svg" xmlns:xlink="http://www.w3.org/1999/xlink" x="0px" y="0px"
	 viewBox="0 0 512 512" style="enable-background:new 0 0 512 512;" xml:space="preserve">
<path style="fill:#414356;" d="M364.975,16.141c-0.001-8.905-7.223-16.126-16.131-16.124l-49.726,0.011
	c-8.906,0.002-16.126,7.225-16.125,16.133l0.021,93.125l81.982-0.018L364.975,16.141z"/>
<path style="fill:#2E3244;" d="M303.681,16.16c-0.001-8.906,7.218-16.131,16.125-16.133l29.13-0.006
	c-0.031,0-0.061-0.004-0.091-0.004l-49.726,0.011c-8.906,0.002-16.126,7.225-16.125,16.133l0.021,93.125l20.688-0.004L303.681,16.16
	z"/>
<path style="fill:#585A60;" d="M348.857,0H299.13c-8.905,0-16.127,7.221-16.127,16.127v22.559h81.982V16.127
	C364.984,7.221,357.763,0,348.857,0z"/>
<path style="fill:#414356;" d="M303.681,16.16c-0.001-8.906,7.218-16.131,16.125-16.133l29.13-0.006
	c-0.031,0-0.061-0.004-0.091-0.004l-49.726,0.011c-7.232,0.002-13.349,4.764-15.395,11.321c-0.468,1.51-0.721,3.116-0.721,4.779
	v22.559h20.684L303.681,16.16z"/>
<path style="fill:#EAE9E8;" d="M407.831,107.185h-32.602H272.758h-32.602c-13.644,0-24.701,11.058-24.701,24.701v17.242v241.654
	v96.518c0,13.642,11.057,24.701,24.701,24.701c7.348,0,160.36,0,167.677,0c13.644,0,24.701-11.059,24.701-24.701v-96.518V149.128
	v-17.242C432.532,118.244,421.474,107.185,407.831,107.185z"/>
<path style="fill:#DDDDDD;" d="M236.142,487.299v-96.518V149.128v-17.242c0-13.642,11.057-24.701,24.701-24.701h-20.688
	c-13.644,0-24.701,11.058-24.701,24.701v17.242v241.654v96.518c0,13.642,11.057,24.701,24.701,24.701h20.688
	C247.199,512,236.142,500.94,236.142,487.299z"/>
<path style="fill:#3BBC56;" d="M162.121,187.206h-4.032H92.235l6.72,159.933c0,0,1.105,25.729,6.446,46.301l11.025,42.4h41.663
	h4.032h41.663l11.025-42.4c5.339-20.572,6.446-46.301,6.446-46.301l6.72-159.933L162.121,187.206L162.121,187.206z"/>
<path style="fill:#149334;" d="M119.997,347.14l-6.72-159.933H92.235l6.72,159.933c0,0,1.105,25.729,6.446,46.301l11.025,42.4
	h21.043l-11.025-42.4C121.102,372.869,119.997,347.14,119.997,347.14z"/>
<path style="fill:#8DD83D;" d="M100.062,361.475c0.927,9.148,2.558,21.253,5.339,31.965l11.025,42.4h41.663h4.032h41.663
	l11.025-42.4c2.781-10.712,4.412-22.818,5.338-31.965H100.062z"/>
<path style="fill:#7FC928;" d="M121.105,361.475h-21.043c0.115,1.138,0.241,2.321,0.38,3.543c0.001,0.014,0.003,0.028,0.005,0.042
	c0.065,0.582,0.134,1.172,0.205,1.769c0.006,0.054,0.013,0.108,0.02,0.159c0.067,0.562,0.138,1.131,0.209,1.705
	c0.011,0.085,0.022,0.17,0.032,0.256c0.069,0.546,0.142,1.1,0.215,1.655c0.014,0.112,0.029,0.22,0.044,0.331
	c0.071,0.532,0.145,1.068,0.22,1.607c0.02,0.139,0.038,0.277,0.059,0.416c0.071,0.51,0.147,1.023,0.223,1.539
	c0.025,0.17,0.05,0.339,0.076,0.509c0.074,0.497,0.151,0.996,0.23,1.496c0.029,0.184,0.058,0.367,0.087,0.551
	c0.078,0.49,0.158,0.982,0.24,1.475c0.033,0.195,0.065,0.393,0.098,0.59c0.082,0.481,0.164,0.963,0.249,1.444
	c0.037,0.209,0.072,0.417,0.11,0.626c0.085,0.476,0.173,0.952,0.262,1.427c0.04,0.215,0.079,0.43,0.12,0.645
	c0.089,0.466,0.18,0.933,0.272,1.4c0.044,0.222,0.087,0.447,0.132,0.669c0.094,0.471,0.192,0.939,0.292,1.407
	c0.046,0.215,0.089,0.431,0.134,0.645c0.104,0.485,0.212,0.968,0.32,1.449c0.044,0.197,0.087,0.395,0.131,0.592
	c0.118,0.518,0.241,1.033,0.364,1.549c0.037,0.156,0.073,0.315,0.111,0.471c0.163,0.67,0.33,1.335,0.501,1.996l11.025,42.4h21.043
	l-11.025-42.4C123.662,382.728,122.031,370.623,121.105,361.475z"/>
<g>
	<path style="fill:#EAE9E8;" d="M186.648,225.204h-53.087c-4.285,0-7.758-3.473-7.758-7.758c0-4.286,3.474-7.758,7.758-7.758h53.087
		c4.285,0,7.758,3.473,7.758,7.758C194.406,221.731,190.934,225.204,186.648,225.204z"/>
	<path style="fill:#EAE9E8;" d="M186.648,254.772h-53.087c-4.285,0-7.758-3.473-7.758-7.758c0-4.286,3.474-7.758,7.758-7.758h53.087
		c4.285,0,7.758,3.473,7.758,7.758C194.406,251.298,190.934,254.772,186.648,254.772z"/>
</g>
<g>
	<path style="fill:#BABABA;" d="M350.537,443.6H297.45c-4.285,0-7.758-3.473-7.758-7.758c0-4.286,3.474-7.758,7.758-7.758h53.087
		c4.285,0,7.758,3.473,7.758,7.758C358.295,440.126,354.821,443.6,350.537,443.6z"/>
	<path style="fill:#BABABA;" d="M350.537,473.167H297.45c-4.285,0-7.758-3.473-7.758-7.758c0-4.286,3.474-7.758,7.758-7.758h53.087
		c4.285,0,7.758,3.473,7.758,7.758C358.295,469.695,354.821,473.167,350.537,473.167z"/>
</g>
<path style="fill:#8DD83D;" d="M394.776,226.854c0,8.907-7.219,16.127-16.127,16.127H269.338c-8.907,0-16.127-7.22-16.127-16.127
	v-65.631c0-8.906,7.219-16.127,16.127-16.127h109.311c8.907,0,16.127,7.22,16.127,16.127L394.776,226.854L394.776,226.854z"/>
<path style="fill:#7FC928;" d="M273.898,226.854v-65.631c0-8.906,7.22-16.127,16.127-16.127h-20.688
	c-8.907,0-16.127,7.22-16.127,16.127v65.63c0,8.907,7.219,16.127,16.127,16.127h20.688
	C281.119,242.98,273.898,235.761,273.898,226.854z"/>
<path style="fill:#3BBC56;" d="M378.649,145.096H269.338c-8.907,0-16.127,7.22-16.127,16.127v32.816h141.565v-32.817
	C394.776,152.317,387.556,145.096,378.649,145.096z"/>
<path style="fill:#149334;" d="M273.898,161.223c0-8.906,7.22-16.127,16.127-16.127h-20.688c-8.907,0-16.127,7.22-16.127,16.127
	v32.816h20.688V161.223z"/>
<path style="fill:#EAE9E8;" d="M215.208,495.873c0,8.907-7.222,16.127-16.127,16.127h-77.95c-8.909,0-16.128-7.219-16.128-16.127
	v-43.903c0-8.906,7.219-16.127,16.128-16.127h77.95c8.905,0,16.127,7.22,16.127,16.127V495.873z"/>
<path style="fill:#DDDDDD;" d="M125.196,495.873v-43.903c0-8.906,7.218-16.127,16.128-16.127h-20.194
	c-8.909,0-16.128,7.22-16.128,16.127v43.903c0,8.907,7.219,16.127,16.128,16.127h20.194C132.414,512,125.196,504.78,125.196,495.873
	z"/>
<path style="fill:#EAE9E8;" d="M240.743,171.08c0,8.905-7.22,16.127-16.127,16.127H95.594c-8.907,0-16.127-7.221-16.127-16.127
	v-5.824c0-8.907,7.219-16.128,16.127-16.128h129.021c8.907,0,16.127,7.22,16.127,16.128L240.743,171.08L240.743,171.08z"/>
<path style="fill:#DDDDDD;" d="M224.616,169.201H95.594c-6.751,0-12.525-4.152-14.929-10.037c-0.769,1.88-1.199,3.935-1.199,6.092
	v5.824c0,8.905,7.219,16.127,16.127,16.127h129.021c8.907,0,16.127-7.221,16.127-16.127v-5.824c0-2.157-0.431-4.211-1.199-6.092
	C237.14,165.049,231.367,169.201,224.616,169.201z"/>
<g>
</g>
<g>
</g>
<g>
</g>
<g>
</g>
<g>
</g>
<g>
</g>
<g>
</g>
<g>
</g>
<g>
</g>
<g>
</g>
<g>
</g>
<g>
</g>
<g>
</g>
<g>
</g>
<g>
</g>
</svg>
