<?xml version="1.0" encoding="iso-8859-1"?>
<!-- Generator: Adobe Illustrator 19.0.0, SVG Export Plug-In . SVG Version: 6.00 Build 0)  -->
<svg version="1.1" id="Capa_1" xmlns="http://www.w3.org/2000/svg" xmlns:xlink="http://www.w3.org/1999/xlink" x="0px" y="0px"
	 viewBox="0 0 511.999 511.999" style="enable-background:new 0 0 511.999 511.999;" xml:space="preserve">
<path style="fill:#BEC9D2;" d="M373.27,26.893c-4.787,19.978-5.938,41.296-8.824,61.739c-4.173,29.557-9.692,59.507-10.18,89.392
	c-0.849,51.898-5.825,105.559-0.905,157.349c3.556,37.423,0.434,74.852,0.905,112.339c0.223,17.723,0.861,42.404,17.177,53.387
	c12.433,8.368,41.599,7.285,50.917-4.342c16.949-21.148,12.527-59.658,14.463-84.779c2.936-38.096,4.32-75.813,4.32-114.15
	c0-20.901-1.542-42.165-0.948-62.95c0.648-22.688-2.417-44.346-1.06-67.234c2.521-42.517,4.625-84.565,1.304-126.964
	c-1.14-14.561,1.165-26.974-14.76-32.422C410.098,2.924,383.599,12.983,373.27,26.893z"/>
<path style="fill:#929FA9;" d="M406.081,8.396c-0.487,25.214-6.816,50.83-9.764,75.866c-4.565,38.779-9.676,78.324-11.69,117.318
	c-1.749,33.866,6.252,67.759,9.802,101.354c2.976,28.173,3.408,55.902,4.608,84.135c0.931,21.89,1.625,43.599,1.625,65.572
	c0,9.933,4.31,31.185,0.052,40.142c-3.357,7.063-30.476,12.537-37.437,7.51c-10.518-7.6-4.625-35.475-4.036-47.356
	c0.698-14.059,0.443-26.169-0.843-40.068c-6.122-66.21,1.224-133.942,1.084-200.635c-0.046-22.172,4.027-43.913,5.328-65.943
	c1.369-23.19,0.28-46.418,1.178-69.653c0.573-14.836,2.167-31.44,7.288-45.595C378.734,15.962,390.51,16.074,406.081,8.396z"/>
<path style="fill:#636260;" d="M446.176,156.856c0.002,10.139-7.201,33.586-3.288,41.76c2.045,4.271,7.865,4.191,11.387,7.126
	c4.399,3.664,5.519,7.17,7.041,12.883c3.76,14.112,2.869,30.092,2.2,44.895c-0.579,12.805,1.873,25.699-10,32.888
	c-6.367,3.854-9.438,1.437-12.728,8.858c-3.299,7.441-1.105,18.688-1.115,26.671c-0.022,19.476,5.117,20.114,21.704,12.151
	c19.102-9.168,27.378-18.287,30.854-39.855c3.634-22.554,3.677-44.7,4.901-67.237c1.104-20.308-1.742-42.979-11.92-60.688
	C477.861,163.516,463.583,160.421,446.176,156.856z"/>
<path style="fill:#4D4B49;" d="M442.924,157.94c0,10.221-4.19,35.302,4.338,42.37c23.142-5.233,18.008,58.812,17.335,70.82
	c-0.865,15.44-6.323,20.705-16.797,29.822c-10.113,8.803-15.089,33.883-7.065,47.246c8.209-3.814,18.902-0.468,26.569-5.035
	c14.898-8.875,8.897-48.162,9.209-63.295c0.361-17.51,1.468-33.518-1.922-50.704c-2.3-11.659-5.418-23.309-6.799-35.063
	c-0.993-8.453-1.302-15.211-7.019-22.154C456.947,167.298,451.809,166.029,442.924,157.94z"/>
<path style="fill:#929FA9;" d="M343.229,7.312c-14.645-4.801-37.76-1.784-53.103-1.14c-58.072,2.439-116.207-2.729-174.64-0.036
	C92.762,7.183,69.814,5.09,47.39,7.312C30.753,8.96,21.459,8.945,17.894,28.143c-4.225,22.744-3.133,50.882-0.846,73.729
	c3.67,36.672-0.822,73.757-1.146,110.503c-0.349,39.618-1.988,79.271,0.061,118.87c2.091,40.438,5.42,80.475,5.42,120.969
	c-0.001,13.662-6.417,32.021,7.714,40.463c9.001,5.377,23.854,4.852,34.017,4.447c30.313-1.205,60.917-1.081,91.555-1.081
	c52.707,0,105.691,2.703,158.022,2.668c17.018-0.011,34.622,1.804,50.964,2.586c1.341-10.644-3.174-26.011-7.611-35.407
	c-9.029-0.812-18.636,3.836-27.984,3.93c-14.805,0.147-29.88-2.188-44.648-3.061c-31.849-1.881-64.107-3.121-96.159-2.152
	c-32.118,0.97-64.46,0.305-96.603-1.099c-20.51-0.894-40.014,1.901-41.532-22.993c-1.866-30.615-0.645-61.604-0.645-92.26
	c0-76.309,4.556-153.468,8.666-229.563c0.834-15.443-7.407-55.884,4.338-66.945c8.977-8.455,29.998-5.623,41.179-6.537
	c48.357-3.955,96.181,0.066,144.959-1.896c29.978-1.205,59.918-0.438,89.681,1.084c7.605,0.389,23.438,3.299,29.772-1.269
	c8.312-5.994,6.977-23.258,15.088-32.381C369.445,7.615,355.268,7.973,343.229,7.312z"/>
<path style="fill:#7C8B96;" d="M19.214,19.232c-9.048,123.528,5.418,246.261,5.418,369.458c0,21.942-0.385,43.828-1.082,65.596
	c-0.428,13.362-2.573,31.009,10.316,39.294c11.987,7.705,28.663,3.495,41.967,3.545c26.073,0.099,51.531,2.168,77.755,2.168
	c29.041,0,57.742-1.086,86.598-2.178c23.906-0.906,46.497,4.02,70.016,5.484c18.062,1.125,36.018-3.29,53.471-5.635
	c-4.576-12.16-14.895-16.424-27.973-15.854c-55.635,2.427-111.174,5.072-167.485,5.178c-34.079,0.063-71.037,0.193-104.542-6.234
	c-8.248-1.582-21.083-0.892-27.079-7.929c-5.877-6.899-1.606-15.706-1.139-23.76c1.607-27.696-0.859-55.669,0.881-83.476
	c2.969-47.424,2.649-96.806,0.245-144.184c-2.432-47.923-2.663-95.975-2.196-144.043c0.165-17.025,1.982-33.756,2.162-50.473
	C36.647,17.041,30.51,1.666,19.214,19.232z"/>
<path style="fill:#BEC9D2;" d="M60.394,54.992c-8.122,24.107-4.16,59.367-5.474,85.91c-0.398,8.027-1.117,16.402-0.486,24.082
	c0.906,11.032,4.277,11.361,15.171,11.403c35.787,0.136,72.344-2.276,108.417-4.119c31.452-1.606,63.16,2.251,94.646,1.927
	c27.353-0.282,55.055,1.283,82.32-0.164c5.386-24.494,3.704-49.061,6.662-73.818c1.45-12.135,13.092-42.832,5.199-52.802
	c-5.605-7.08-25.004-2.241-32.423-2.171c-18.447,0.174-36.846,1.584-55.134-0.134c-48.275-4.532-98.723-3.045-147.083,0.663
	c-17.433,1.336-33.765,1.241-51.218,1.638C72.566,47.599,58.841,46.47,60.394,54.992z"/>
<g>
	<path style="fill:#929FA9;" d="M330.225,47.407c-9.412,8.987-14.02,26.699-21.648,37.902c-14.262,20.946-30.18,42.64-51.959,56.394
		c-46.67,29.473-91.845,0.277-114.426-42.854c-9.242-17.651-23.303-42.323-41.702-51.683c-8.987-4.571-18.93-1.381-28.235,1.063
		c-13.485,3.54-14.313,3.911-15.086,17.549c-1.837,32.422-4.203,64.95-5.439,96.979c-0.496,12.845,1.75,15.076,14.541,14.689
		c19.142-0.579,38.201,0.004,57.553,0c38.136-0.008,75.847,4.222,114.075,2.26c34.456-1.769,69.796-6.575,104.188-5.214
		c12.896,0.51,14.362-0.961,15.472-15.451c1.577-20.576,2.674-41.199,5.204-61.724c1.448-11.745,7.981-37.212,3.224-48.283
		c-2.922-6.8-0.459-4.771-8.808-4.935C352.539,44.01,341.22,45.528,330.225,47.407z"/>
	<path style="fill:#929FA9;" d="M53.892,176.362c-0.181,39.483-4.913,78.77-6.5,118.13c-1.241,30.771,4.17,61.456,5.417,92.1
		c0.596,14.668,0.749,29.971,0.056,44.641c-0.388,8.221-2.828,17.645,3.195,24.77c13.948,16.5,56.255,9.749,75.283,9.697
		c22.887-0.063,45.683,3.661,68.544,3.272c25.368-0.432,50.947-2.233,76.274-3.298c17.492-0.734,34.968,0.516,52.328-1.059
		c6.567-0.596,18.562,1.237,23.417-3.874c8.634-9.09,4.119-44.069,4.33-55.74c0.443-24.492,9.091-50.112,0.646-73.647
		c-8.519-23.738-2.828-46.705-1.463-71.388c1.11-20.077,4.688-39.933,5.792-60.007c0.897-16.307-3.086-23.036-20.625-23.597
		c-30.053-0.958-60.246-3.04-90.38-2.192c-39.228,1.104-78.716,1.757-117.881,1.294C109.385,175.193,80.553,181.438,53.892,176.362z
		"/>
</g>
<path style="fill:#7C8B96;" d="M54.729,178.829c-2.388,4.448-1.049,18.459-1.359,25.004c-0.525,11.087-0.654,22.148-0.656,33.285
	c-0.002,14.589-2.692,28.727-1.341,43.155c0.972,10.386,0.51,14.213,11.746,15.43c11.79,1.277,24.03,0.72,36.111,1.335
	c7.768,0.396,16.433,2.462,23.514-1.132c6.393-3.246,9.983-9.71,13.484-15.623c6.865-11.593,13.008-22.033,23.309-30.977
	c39.145-33.988,90.962-33.807,140.13-32.188c13.619,0.448,32.421,7.161,45.699,3.292c9.597-2.797,10.205-15.261,10.296-23.471
	c0.057-5.146,2.083-15.327-2.773-18.63c-3.815-2.595-14.333-1.472-18.665-1.526c-11.48-0.144-22.817,0.765-34.329,0.181
	c-55.785-2.831-112.126,5.201-167.989,3.243c-18.595-0.65-37.383-1.168-55.876-2.106C69.12,177.75,57.628,172.7,54.729,178.829z"/>
<g>
	<path style="fill:#DB3333;" d="M84.286,220.477c-3.888,9.045-3.26,25.682-3.359,36.124c-0.07,7.397-2.037,19.342,1.328,26.362
		c5.763,12.022,28.043,12.403,39.59,11.403c19.259-1.668,15.134-16.376,15.843-31.901c0.397-8.693,0.4-17.34-0.337-26.126
		c-0.621-7.399,0.35-12.276-8.395-10.431c-8.897,1.876-16.671,10.145-26.532,7.02C97.542,231.381,90.742,221.672,84.286,220.477z"/>
	<path style="fill:#DB3333;" d="M161.534,223.163c-2.67,13.53-2.687,27.822-2.687,41.632c0,6.925-1.023,16.566,3.849,22.367
		c6.582,7.835,32.341,9.518,41.005,5.021c12.077-6.266,11.571-27.724,11.571-39.117c0-5.756,2.602-21.826-1.512-26.541
		c-4.813-5.516-12.467,0.619-17.835,2.716c-6.066,2.37-15.42,3.266-21.678,0.638C169.887,228.047,164.196,217.456,161.534,223.163z"
		/>
	<path style="fill:#DB3333;" d="M237.439,223.835c-0.039,15.515-1.995,30.858-2.015,46.38c-0.008,6.109-0.756,12.871,4.164,17.25
		c7.76,6.907,24.78,6.01,33.455,4.232c4.91-1.006,10.502-2.128,14.102-6.081c5.256-5.773,6.625-18.281,7.055-26.097
		c0.503-9.129,0.729-19.952-1.514-28.833c-2.13-8.432-4.51-6.587-11.438-4.279c-8.354,2.782-15.205,4.229-23.828,3.438
		c-5.629-0.516-7.572-0.816-11.955-4.03C242.583,223.702,240.733,218.924,237.439,223.835z"/>
</g>
<g>
	<path style="fill:#D8E2E7;" d="M128.979,226.211c10.714-9.656-31.329-10.769-35.938-9.162c-7.14,2.487-5.985,8.428,0.316,10.8
		C100.798,230.648,122.565,231.992,128.979,226.211z"/>
	<path style="fill:#D8E2E7;" d="M187.731,213.76c-5.052,0.069-19.262-0.291-22.871,3.326c-5.13,5.141,2.73,8.15,7.421,9.924
		c5.239,1.98,11.26,3.799,16.708,3.593c3.73-0.141,16.64-2.22,18.581-6.078c4.63-9.202-14.865-6.063-17.153-10.765"/>
	<path style="fill:#D8E2E7;" d="M273.04,218.461c6.073,0,16.347-0.981,11.171,7.389c-2.645,4.276-9.309,5.645-13.58,6.104
		c-5.799,0.624-13.04-0.509-18.935-2.053c-7.092-1.858-7.667-4.743-9.47-11.322c6.15-2.238,12.11-3.721,18.722-3.476
		C267.43,215.343,266.479,218.461,273.04,218.461z"/>
</g>
<path style="fill:#7C8B96;" d="M49.356,360.867c0.637-2.054-0.57,6.695-0.688,8.7c-0.363,6.196,0.616,12.3,0.686,18.479
	c0.138,12.179-1.298,24.662-0.146,36.658c1.104,11.489,1.089,30.115,12.843,36.23c7.831,4.074,17.096,3.775,25.648,4.703
	c9.832,1.066,19.931,4.064,29.874,3.896c16.679-0.28,20.723-13.155,27.305-26.236c10.616-21.096,28.233-36.791,48.194-48.838
	c38.101-22.996,84.807-35.402,129.199-36.278c16.419-0.323,36.033-13.7,30.115-32.933c-2.196-7.137-8.986-8.603-16.002-8.786
	c-14.459-0.378-29.105,1.817-43.655,1.264c-35.006-1.333-70.073-0.052-105.102,0.814c-36.133,0.894-72.931-6.122-108.906-3.37
	c-7.326,0.56-19.158-0.251-26.006,2.707C41.651,322.658,52.293,341.677,49.356,360.867z"/>
<g>
	<path style="fill:#C45339;" d="M93.69,351.463c1.897,3.299-0.333,11.361-0.697,15.475c-0.398,4.512,0.682,10.279,0.049,14.417
		c-1.36,8.893-10.563,8.933-14.128,15.788c-4.864,9.357-0.196,27.679-0.675,38.248c-0.421,9.299-2.736,22.851,7.505,26.927
		c11.649,4.637,40.484,5.264,45.227-8.454c3.012-8.711,1.303-19.407,0.488-28.296c-0.668-7.282,0.552-14.432,0.551-21.574
		c-0.002-10.735-3.701-12.684-11.812-19.051c-10.528-8.266-6.396-15.667-7.028-28.446C112.626,345.512,101.83,343.628,93.69,351.463
		z"/>
	<path style="fill:#C45339;" d="M176.312,351.463c0.292,9.057-0.05,19.484-1.866,28.213c-1.736,8.35-6.807,8.451-10.761,15.646
		c-5.348,9.732-2.151,25.918-2.151,36.802c0,9.641-3.515,26.349,7.354,30.994c9.533,4.074,24.204-0.094,34.316-1.098
		c6.01-0.596,6.025,0.816,8.168-4.696c2.808-7.219,1.903-16.692,1.884-24.249c-0.032-12.501,1.218-24.936-0.729-37.302
		c-1.671-10.612-11.211-9.307-15.081-17.777c-4.096-8.965,5.566-24.212-0.934-31.921
		C191.018,339.556,178.427,347.471,176.312,351.463z"/>
	<path style="fill:#C45339;" d="M258.263,352.807c0.292,9.057-0.05,19.483-1.866,28.213c-1.736,8.35-6.807,8.451-10.761,15.646
		c-5.348,9.732-2.151,25.917-2.151,36.802c0,9.641-3.515,26.349,7.354,30.994c9.533,4.074,24.204-0.094,34.316-1.098
		c6.01-0.597,6.025,0.815,8.168-4.696c2.808-7.219,1.903-16.693,1.884-24.25c-0.032-12.501,1.218-24.935-0.729-37.302
		c-1.671-10.611-11.211-9.306-15.081-17.776c-4.096-8.965,5.566-24.213-0.934-31.921
		C272.969,340.898,260.378,348.814,258.263,352.807z"/>
</g>
<g>
	<path style="fill:#D8E2E7;" d="M107.796,406.545c-7.197,0.043-14.447,0.849-21.493,1.194c-1.933,0.095-7.306-0.701-8.633,0.772
		c-1.989,2.209,0.547,10.681,0.605,13.322c0.175,8.02-3.722,17.654,6.011,20.313c6.538,1.785,16.16-1.051,23.517-0.672
		c6.746,0.348,13.617,2.074,20.028,0.555c3.613-7.964,5.187-22.554,3.501-31.061C130.086,404.683,118.186,402.672,107.796,406.545z"
		/>
	<path style="fill:#D8E2E7;" d="M189.747,405.873c-7.197,0.044-14.447,0.849-21.493,1.194c-1.933,0.095-7.306-0.701-8.633,0.773
		c-1.989,2.209,0.547,10.68,0.605,13.321c0.175,8.02-3.722,17.655,6.011,20.313c6.538,1.785,16.16-1.051,23.517-0.672
		c6.746,0.349,13.616,2.074,20.028,0.555c3.613-7.964,5.187-22.553,3.501-31.061C212.037,404.011,200.137,402,189.747,405.873z"/>
	<path style="fill:#D8E2E7;" d="M273.04,407.217c-7.197,0.043-14.447,0.848-21.493,1.193c-1.932,0.096-7.306-0.7-8.633,0.773
		c-1.989,2.209,0.547,10.681,0.605,13.322c0.175,8.02-3.722,17.654,6.011,20.313c6.538,1.785,16.16-1.052,23.517-0.672
		c6.747,0.348,13.617,2.074,20.028,0.555c3.613-7.964,5.187-22.554,3.5-31.061C295.331,405.354,283.431,403.344,273.04,407.217z"/>
</g>
<path d="M501.242,222.68c-1.69-15.99-2.823-32.986-10.712-47.371c-8.81-16.063-24.946-19.598-41.644-21.728
	c-0.199-19.875-0.476-39.75-0.595-59.626c-0.13-21.769-0.243-43.42-2.29-65.117c-0.66-6.994-1.6-14.18-6.581-19.557
	c-4.816-5.199-11.699-7.162-18.534-7.828c-8.833-0.861-18.946,0.18-27.962,3.369c-19.916-2.611-39.896-3.103-59.981-3.75
	c-21.428-0.689-42.846-1.152-64.286-1.061c-42.733,0.181-85.456,1.619-128.192,1.272c-21.257-0.172-42.525-1.561-63.78-1.196
	C66.267,0.266,55.85,0.83,45.481,1.866C38.442,2.57,31.064,3.237,24.728,6.663C9.772,14.75,11.671,35.75,11.552,50.262
	c-0.167,20.427-0.691,40.842-0.886,61.269c-0.406,42.522-2.337,84.802-0.734,127.343c0.782,20.771,2.335,41.531,2.422,62.322
	c0.088,21.145-0.591,42.275,0.669,63.4c1.252,20.982,3.617,41.898,3.648,62.94c0.027,18.724-1.536,37.826,0.411,56.493
	c0.712,6.828,3.188,13.408,9.521,16.853c6.028,3.279,13.732,3.038,20.387,3.296c9.791,0.379,19.463-0.152,29.248-0.417
	c10.602-0.287,21.251,0.356,31.855,0.505c43.057,0.604,85.992,0.279,129.021,2.396c21.108,1.039,42.216,2.146,63.347,2.608
	c9.989,0.219,19.988,0.057,29.964,0.668c9.55,0.584,19.08,1.528,28.649,1.75c5.99,0.139,11.945-0.548,17.896-1.131
	c5.769-0.565,10.457-0.358,16.069,0.403c7.772,1.055,15.788,1.772,23.481-0.228c15.524-4.036,20.26-18.01,21.734-32.427
	c1.613-15.775,0.861-31.82,2.083-47.658c1.709-22.164,4.126-44.275,5.033-66.494c0.129-3.175,0.239-6.35,0.338-9.525
	c12.949,0.119,28.394-8.203,37.532-16.129c13.562-11.762,15.109-31.461,17.045-48.068
	C502.911,267.911,503.628,245.255,501.242,222.68z M329.396,496.898c-19.557-1.072-39.23-0.621-58.814-1.391
	c-41.066-1.614-81.995-3.52-123.105-3.509c-20.267,0.005-40.532-0.096-60.792-0.632c-10.038-0.267-20.011,0.64-30.041,0.678
	c-6.911,0.026-15.109,0.437-21.835-1.341c-6.827-1.804-5.519-10.169-5.66-15.835c-0.239-9.599-0.454-19.146-0.287-28.753
	c0.344-19.887-0.265-39.527-1.794-59.36c-3.074-39.867-1.427-79.699-3.404-119.598c-2.008-40.531-2.848-80.979-1.18-121.536
	c0.821-19.979,0.598-39.981,1.063-59.97c0.432-18.572-0.431-37.523,1.801-55.989c0.94-7.783,3.316-11.699,11.146-13.554
	c8.118-1.924,16.814-2.159,25.112-2.651c20.326-1.205,40.566-0.194,60.896,0.149c40.738,0.689,81.471-0.601,122.201-1.268
	c40.529-0.662,81.022,1.261,121.527,0.796c4.057-0.047,8.052-0.226,12.036-0.48c-1.428,1.204-2.766,2.54-3.99,4.022
	c-5.641,6.827-8.593,15.365-10.43,24.285c-17.48-1.725-35.143,0.133-52.694-0.064c-17.969-0.202-35.847-1.631-53.782-2.551
	c-36.455-1.87-72.958-0.508-109.425,0.17c-17.954,0.333-35.831,1.033-53.766,1.902c-10.904,0.527-25.407-1.01-34.372,6.563
	c-4.865,4.108-6.095,9.941-6.299,16.057c-0.267,8.037-1.05,15.887-1.941,23.887c-2.028,18.201-3.175,36.482-4.007,54.773
	c-1.667,36.635-2.472,73.293-3.144,109.957c-0.673,36.741-2.204,73.525-1.804,110.275c0.199,18.314,1.323,36.6,1.697,54.91
	c0.157,7.677,0.002,15.322-0.052,22.994c-0.042,5.951,0.512,12.234,3.636,17.454c6.272,10.479,20.725,13.085,31.817,14.12
	c13.29,1.239,26.848,0.467,40.186,0.754c40.526,0.869,81.143-1.227,121.632,0.221c20.719,0.741,41.334,1.588,62.073,0.925
	c9.762-0.313,19.641-0.767,29.369,0.35c6.213,0.714,12.242,1.882,18.029-0.209c1.182,9.354,3.474,18.553,9.237,25.29
	C349.928,498.495,339.589,497.457,329.396,496.898z M267.51,350.173c15.365-5.75,7.218,15.169,6.584,21.054
	c-0.529,4.908-0.528,10.305,3.332,13.901c4.284,3.991,11.157,4.387,13.891,10.083c1.123,2.34,1.615,4.929,1.786,7.595
	c-9.164,0.464-18.235,1.129-27.447,1.112c-5.56-0.01-13.57-1.24-19.553,0.554c0.448-3.721,1.656-6.953,4.309-8.827
	c2.561-1.811,5.733-2.259,8.13-4.491c3.125-2.909,4.374-6.784,4.681-10.95C263.818,372.098,257.97,353.743,267.51,350.173z
	 M248.143,446.57c-0.003-0.55-0.022-1.099-0.028-1.648c6.417,2.309,13.578,0.456,20.618-0.025
	c7.733-0.529,15.501,2.403,23.185,1.486c-0.014,2.47-0.03,5.094-0.707,7.267c-0.854,2.737-2.419,3.168-5.236,3.702
	c-9.502,1.799-19.62,0.849-29.205,0.344c-3.136-0.166-7.088,0.062-8.388-3.297C247.551,452.254,248.159,448.841,248.143,446.57z
	 M247.011,410.49c6.164,1.67,14.231,0.753,19.754,0.793c8.59,0.063,17.742,0.099,26.255-1.667c-0.121,1.94-0.279,3.849-0.363,5.656
	c-0.352,7.591-0.282,15.196-0.489,22.796c-7.094,1.55-14.744-1.518-21.932-1.185c-7.001,0.323-15.072,3.351-22.216,2.466
	c-0.016-0.715-0.018-1.43-0.037-2.146C247.758,428.715,248.264,419.25,247.011,410.49z M300.756,437.9
	c0.345-10.32,0.658-20.708,0.745-31.031c0.063-7.595-1.009-15.852-6.974-21.212c-2.717-2.44-6.154-3.647-9.291-5.401
	c-3.219-1.801-3.185-3.604-2.911-7.274c0.586-7.843,5.791-18.417,0.734-25.729c-3.779-5.465-16.955-5.982-22.356-2.923
	c-7.091,4.017-5.575,14.563-5.571,21.172c0.003,4.624,0.65,10.132-0.148,14.706c-1.106,6.326-5.613,5.959-9.842,9.026
	c-2.746,1.991-4.443,5.031-5.495,8.206c-2.354,7.103-1.514,14.729-0.711,22.12c-0.365,7.164-0.12,14.47-0.246,21.155
	c-0.117,6.193-1.191,14.275,2.061,19.854c-8.485-0.219-16.973-0.279-25.461-0.254c3.771-5.987,2.524-15.965,2.74-22.414
	c0.345-10.32,0.658-20.708,0.745-31.031c0.063-7.595-1.008-15.852-6.974-21.212c-2.717-2.44-6.154-3.647-9.291-5.401
	c-3.219-1.801-3.185-3.604-2.91-7.274c0.586-7.843,5.79-18.417,0.734-25.729c-3.779-5.465-16.955-5.982-22.356-2.923
	c-7.091,4.017-5.575,14.563-5.571,21.172c0.003,4.624,0.651,10.132-0.148,14.706c-1.106,6.326-5.612,5.959-9.842,9.026
	c-2.746,1.991-4.443,5.031-5.495,8.206c-2.354,7.103-1.514,14.729-0.711,22.12c-0.365,7.164-0.12,14.47-0.246,21.155
	c-0.119,6.313-1.225,14.584,2.263,20.169c-2.659,0.005-5.318,0.005-7.976-0.009c-5.964-0.032-11.931-0.147-17.896-0.267
	c4.011-5.949,2.73-16.148,2.949-22.708c0.345-10.32,0.659-20.708,0.745-31.031c0.063-7.595-1.008-15.852-6.973-21.212
	c-2.717-2.44-6.154-3.647-9.292-5.401c-3.219-1.801-3.185-3.604-2.91-7.274c0.586-7.843,5.79-18.417,0.734-25.729
	c-3.779-5.465-16.954-5.982-22.356-2.923c-7.091,4.017-5.575,14.563-5.571,21.172c0.003,4.624,0.651,10.132-0.148,14.706
	c-1.105,6.326-5.612,5.959-9.842,9.026c-2.746,1.991-4.442,5.031-5.495,8.206c-2.354,7.103-1.514,14.729-0.711,22.12
	c-0.365,7.164-0.12,14.47-0.246,21.155c-0.107,5.703-1.024,13.007,1.368,18.484c-2.181-0.383-4.339-0.877-6.464-1.521
	c-5.606-1.697-10.599-4.396-11.876-10.547c-1.227-5.906-0.28-12.374-0.3-18.368c-0.056-17.089-1.013-34.145-1.585-51.218
	c-0.62-18.479-0.48-36.968-0.128-55.455c6.869,1.783,14.95,1.013,21.716,1.055c10.367,0.064,20.732,0.065,31.099,0.041
	c19.973-0.048,39.946-0.084,59.918-0.029c40.314,0.113,80.647,0.523,120.938,1.939c11.299,0.397,22.682,1.423,33.986,1.266
	c9.02-0.126,18.752-0.076,27.787-1.247c-0.006,3.739-0.014,7.479-0.016,11.218c-0.013,22.86,0.039,45.721,0.04,68.58
	c0,11.853-0.37,23.701-0.355,35.553c0.007,5.777,0.823,11.866,0.397,17.605c-0.343,4.616-6.301,4.86-10.33,4.892
	c-5.99,0.046-11.612-1.864-17.557-1.966c-6.095-0.104-12.189,0.119-18.279,0.325c-2.15,0.073-4.3,0.132-6.449,0.18
	c0.025-0.03,0.055-0.056,0.08-0.085C301.956,455.621,300.527,444.763,300.756,437.9z M184.785,350.173
	c15.366-5.75,7.218,15.169,6.584,21.054c-0.529,4.908-0.527,10.305,3.333,13.901c4.284,3.991,11.157,4.387,13.891,10.083
	c1.123,2.34,1.615,4.929,1.785,7.595c-9.164,0.464-18.235,1.129-27.447,1.112c-5.56-0.01-13.57-1.24-19.553,0.554
	c0.449-3.721,1.656-6.953,4.309-8.827c2.562-1.811,5.733-2.259,8.13-4.491c3.125-2.909,4.374-6.784,4.681-10.95
	C181.093,372.098,175.245,353.743,184.785,350.173z M165.39,444.922c6.417,2.309,13.578,0.456,20.618-0.025
	c7.733-0.529,15.501,2.403,23.185,1.486c-0.014,2.47-0.03,5.094-0.707,7.267c-0.854,2.737-2.419,3.168-5.236,3.702
	c-9.502,1.799-19.62,0.849-29.204,0.344c-3.136-0.166-7.088,0.062-8.389-3.297c-0.831-2.145-0.224-5.558-0.239-7.828
	C165.414,446.021,165.396,445.472,165.39,444.922z M187.512,436.884c-7.001,0.323-15.072,3.351-22.217,2.466
	c-0.016-0.715-0.017-1.43-0.037-2.146c-0.226-8.489,0.281-17.954-0.973-26.714c6.164,1.67,14.231,0.753,19.754,0.793
	c8.59,0.063,17.742,0.099,26.255-1.667c-0.121,1.94-0.279,3.849-0.363,5.656c-0.352,7.591-0.282,15.196-0.489,22.796
	C202.349,439.618,194.699,436.551,187.512,436.884z M102.059,350.173c15.366-5.75,7.218,15.169,6.584,21.054
	c-0.528,4.908-0.527,10.305,3.333,13.901c4.284,3.991,11.157,4.387,13.891,10.083c1.123,2.34,1.615,4.929,1.785,7.595
	c-9.164,0.464-18.235,1.129-27.447,1.112c-5.56-0.01-13.57-1.24-19.553,0.554c0.448-3.721,1.656-6.953,4.309-8.827
	c2.562-1.811,5.733-2.259,8.131-4.491c3.124-2.909,4.373-6.784,4.68-10.95C98.367,372.098,92.519,353.743,102.059,350.173z
	 M82.692,446.57c-0.004-0.55-0.022-1.099-0.028-1.648c6.417,2.309,13.578,0.456,20.618-0.025c7.733-0.529,15.501,2.403,23.185,1.486
	c-0.014,2.47-0.03,5.094-0.707,7.267c-0.854,2.737-2.419,3.168-5.235,3.702c-9.503,1.799-19.621,0.849-29.205,0.344
	c-3.136-0.166-7.088,0.062-8.389-3.297C82.101,452.254,82.708,448.841,82.692,446.57z M81.56,410.49
	c6.164,1.67,14.231,0.753,19.754,0.793c8.59,0.063,17.742,0.099,26.255-1.667c-0.121,1.94-0.279,3.849-0.363,5.656
	c-0.352,7.591-0.282,15.196-0.489,22.796c-7.094,1.55-14.744-1.518-21.931-1.185c-7.001,0.323-15.072,3.351-22.217,2.466
	c-0.016-0.715-0.018-1.43-0.036-2.146C82.307,428.715,82.813,419.25,81.56,410.49z M86.679,232.136
	c0.01-0.115,0.018-0.23,0.028-0.346c0.212-2.496,0.187-4.856,0.63-6.787c2.99,4.892,9.113,7.772,14.764,9.035
	c4.186,6.485-0.156,19.058-2.541,25.251c-3.187,8.277-10.212,19.624-7.974,28.775c-0.99-0.422-1.928-0.937-2.784-1.573
	c-2.71-2.016-3.53-4.772-3.734-8.022c-0.382-6.11,0.183-12.481,0.512-18.586C86.079,250.63,86.827,241.378,86.679,232.136z
	 M107.795,234.814c2.716,0.152,5.41-0.024,8.055-0.455c2.676,12.859-6.651,24.716-8.522,37.418
	c-0.729,4.947-1.479,13.396,1.991,17.804c-0.902,0.048-1.796,0.09-2.666,0.126c-2.543,0.105-5.414,0.188-8.241-0.068
	c-0.854-3.635-1.577-7.113-0.549-11.129c1.212-4.74,3.606-9.108,5.628-13.531c2.092-4.577,3.473-9.268,4.394-14.227
	C108.283,248.604,109.193,240.105,107.795,234.814z M125.089,287.084c-2.909,1.018-6.133,1.613-9.387,1.988
	c-5.144-5.464-2.152-18.142-0.535-24.33c2.89-11.057,9.649-20.131,6.519-31.82c3.351-1.112,6.569-2.662,9.552-4.669
	c1.205,2.743,1.367,6.189,1.552,10.094c0.522,11.048,1.013,22.123,0.364,33.179C132.768,278.104,132.097,284.635,125.089,287.084z
	 M107.028,228.262c-6.853-0.526-11.628-4.008-17.198-7.004c0.817-0.482,1.861-0.82,3.237-0.964
	c9.734-1.012,21.404-0.314,30.829,2.234c1.205,0.325,2.222,0.737,3.112,1.214C120.867,226.854,113.927,228.791,107.028,228.262z
	 M124.635,302.168c25.332,0.339,50.663,0.65,75.995,0.964c49.682,0.614,99.356,0.895,149.041,0.933c0.033,0,0.061-0.008,0.094-0.009
	c-0.017,3.833-0.033,7.665-0.043,11.498c-7.536-1.562-15.941,0.075-23.471,0.44c-9.976,0.484-20-0.373-29.971-0.733
	c-19.917-0.722-39.842-1.169-59.77-1.43c-40.349-0.528-80.71-0.059-121.058,0.404c-11.567,0.133-23.134,0.254-34.7,0.478
	c-8.051,0.156-18.156-0.942-26.374,1.328c0.114-5.342,0.243-10.682,0.369-16.022C77.62,303.405,101.6,301.86,124.635,302.168z
	 M164.396,232.136c0.01-0.115,0.018-0.23,0.028-0.346c0.212-2.496,0.188-4.856,0.63-6.787c2.99,4.892,9.112,7.772,14.764,9.035
	c4.186,6.485-0.156,19.058-2.541,25.251c-3.187,8.277-10.212,19.624-7.974,28.775c-0.991-0.422-1.928-0.937-2.784-1.573
	c-2.71-2.016-3.53-4.772-3.733-8.022c-0.383-6.11,0.183-12.481,0.512-18.586C163.796,250.63,164.544,241.378,164.396,232.136z
	 M202.807,287.084c-2.909,1.018-6.133,1.613-9.387,1.988c-5.144-5.464-2.152-18.142-0.535-24.33
	c2.89-11.057,9.648-20.131,6.518-31.82c3.351-1.112,6.569-2.662,9.552-4.669c1.204,2.743,1.367,6.189,1.551,10.094
	c0.523,11.048,1.013,22.123,0.364,33.179C210.486,278.104,209.814,284.635,202.807,287.084z M187.037,289.581
	c-0.903,0.048-1.796,0.09-2.667,0.126c-2.543,0.105-5.414,0.188-8.241-0.068c-0.854-3.635-1.577-7.113-0.55-11.129
	c1.212-4.74,3.606-9.108,5.628-13.531c2.092-4.577,3.474-9.268,4.394-14.227c0.399-2.147,1.31-10.646-0.089-15.938
	c2.716,0.152,5.41-0.024,8.056-0.455c2.675,12.859-6.651,24.716-8.522,37.418C184.317,276.725,183.567,285.173,187.037,289.581z
	 M184.746,228.262c-6.853-0.526-11.629-4.008-17.198-7.004c0.817-0.482,1.861-0.82,3.237-0.964
	c9.734-1.012,21.404-0.314,30.829,2.234c1.205,0.325,2.222,0.737,3.112,1.214C198.585,226.854,191.645,228.791,184.746,228.262z
	 M242.115,232.136c0.01-0.115,0.018-0.23,0.028-0.346c0.212-2.496,0.187-4.856,0.63-6.787c2.99,4.892,9.113,7.772,14.764,9.035
	c4.186,6.485-0.156,19.058-2.541,25.251c-3.187,8.277-10.212,19.624-7.974,28.775c-0.991-0.422-1.928-0.937-2.784-1.573
	c-2.71-2.016-3.53-4.772-3.734-8.022c-0.382-6.11,0.183-12.481,0.512-18.586C241.515,250.63,242.263,241.378,242.115,232.136z
	 M264.755,289.581c-0.902,0.048-1.796,0.09-2.666,0.126c-2.543,0.105-5.414,0.188-8.241-0.068
	c-0.854-3.635-1.576-7.113-0.549-11.129c1.212-4.74,3.606-9.108,5.628-13.531c2.092-4.577,3.474-9.268,4.394-14.227
	c0.399-2.147,1.31-10.646-0.089-15.938c2.716,0.152,5.41-0.024,8.055-0.455c2.676,12.859-6.651,24.716-8.522,37.418
	C262.036,276.725,261.285,285.173,264.755,289.581z M270.604,264.742c2.89-11.057,9.648-20.131,6.518-31.82
	c3.351-1.112,6.569-2.662,9.552-4.669c1.204,2.743,1.367,6.189,1.551,10.094c0.522,11.048,1.013,22.123,0.364,33.179
	c-0.386,6.578-1.057,13.109-8.064,15.559c-2.909,1.018-6.133,1.613-9.387,1.988C265.993,283.608,268.986,270.931,270.604,264.742z
	 M262.464,228.262c-6.853-0.526-11.628-4.008-17.198-7.004c0.817-0.482,1.861-0.82,3.237-0.964
	c9.734-1.012,21.404-0.314,30.829,2.234c1.205,0.325,2.222,0.737,3.112,1.214C276.303,226.854,269.363,228.791,262.464,228.262z
	 M349.815,294.523c-0.051-0.001-0.093-0.014-0.145-0.014c-21.337,0.018-42.672-0.02-64.006-0.1
	c6.664-3.15,10.032-9.143,11.095-16.591c1.908-13.358,0.848-27.259,0.168-40.671c-0.413-8.152-1.383-16.51-9.196-20.901
	c-9.795-5.507-23.787-5.364-34.662-5.222c-8.437,0.11-15.708,1.451-17.564,10.72c-1.178,5.885-1.081,12.116-1.573,18.079
	c-0.44,5.322-0.856,10.239-0.588,15.234c-0.365,3.543-0.707,7.09-0.993,10.642c-0.749,9.298-2.137,20.259,5.778,26.966
	c0.651,0.553,1.338,1.047,2.048,1.502c-10.4-0.076-20.8-0.173-31.2-0.277c5.984-3.266,9.056-9.018,10.063-16.071
	c1.907-13.358,0.848-27.259,0.168-40.671c-0.413-8.152-1.383-16.51-9.195-20.901c-9.796-5.507-23.788-5.364-34.662-5.222
	c-8.436,0.11-15.707,1.451-17.563,10.72c-1.179,5.885-1.081,12.116-1.574,18.079c-0.439,5.322-0.856,10.239-0.588,15.234
	c-0.365,3.543-0.706,7.09-0.993,10.642c-0.749,9.298-2.137,20.259,5.778,26.966c0.297,0.253,0.605,0.487,0.916,0.719
	c-9.603-0.1-19.206-0.179-28.81-0.244c5.16-3.359,7.871-8.779,8.805-15.321c1.907-13.358,0.848-27.259,0.168-40.671
	c-0.413-8.152-1.384-16.51-9.196-20.901c-9.795-5.507-23.787-5.364-34.662-5.222c-8.436,0.11-15.707,1.451-17.563,10.72
	c-1.179,5.885-1.082,12.116-1.574,18.079c-0.439,5.322-0.855,10.239-0.588,15.234c-0.365,3.543-0.706,7.09-0.992,10.642
	c-0.742,9.213-2.098,20.052,5.576,26.774c-9.299,0.131-18.551,0.642-27.618,1.964c0.166-7.108,0.326-14.216,0.449-21.321
	c0.536-30.93,1.005-61.861,1.945-92.782c23.603,3.606,47.732,2.608,71.539,2.24c25.101-0.389,50.153-0.544,75.252,0.036
	c49.29,1.141,98.605,0.816,147.904,0.82c-0.186,5.646-0.362,11.287-0.539,16.917C350.437,231.732,350.001,263.127,349.815,294.523z
	 M205.251,171.555c-24.704-0.393-49.354-0.157-74.053,0.396c-24.553,0.55-49.23,0.098-73.735,1.751
	c0.036-1.076,0.059-2.152,0.096-3.229c0.599-17.604,1.246-35.218,2.41-52.794c1.072-16.193,3.59-32.18,5.053-48.322
	c0.517-5.703-0.641-11.931,5.681-14.299c4.801-1.799,10.255-1.598,15.302-1.779c16.285-0.585,32.529-1.867,48.828-2.124
	c38.456-0.604,76.926-2.279,115.386-0.968c18.771,0.639,37.491,2.196,56.279,2.439c18.809,0.243,37.295-1.684,55.951-3.53
	c-0.884,6.118-1.479,12.229-2.255,17.919c-4.724,34.593-6.575,69.742-7.829,104.742
	C303.333,171.805,254.279,172.333,205.251,171.555z M434.93,275.155c-1.152,40.389-0.529,80.774-3.864,121.076
	c-1.563,18.89-3.875,37.86-4.225,56.824c-0.222,12.067,1.22,25.795-3.615,37.192c-5.695,13.425-24.273,9.165-35.554,7.492
	c-6.046-0.897-13.115-1.838-17.726-6.277c-5.32-5.122-6.208-14.542-6.988-21.476c-2.101-18.691-0.97-37.886-0.987-56.657
	c-0.019-20.451-0.091-40.902-0.131-61.353c-0.082-40.921-0.041-81.845,0.788-122.758c0.825-40.712,2.514-81.411,5.403-122.032
	c1.367-19.223,3.478-38.323,6.62-57.339c1.289-7.801,2.733-16.078,7.171-22.794c4.691-7.099,11.586-9.881,19.712-10.998
	c8.079-1.109,17.539-4.003,25.342-0.441c6.167,2.816,6.212,9.737,6.739,15.643c3.559,39.921,2.367,80.319,2.837,120.367
	C436.936,192.864,436.105,233.941,434.93,275.155z M448.702,206.809c4.006,1.719,6.481,4.517,8.165,9.959
	c2.295,7.418,2.528,15.302,2.479,23.006c-0.064,10.105-0.733,20.418-1.796,30.454c-0.631,5.956-1.218,13.796-6.155,17.918
	c-1.437,1.199-2.991,2.193-4.551,3.168C447.366,263.123,448.241,234.977,448.702,206.809z M488.806,285.82
	c-1.137,10.346-1.903,21.232-5.56,31.064c-5.352,14.393-21.947,24.076-37.219,25.504c0.274-12.483,0.41-24.97,0.589-37.455
	c4.804-3.079,10.316-6.085,14.216-10.239c5.109-5.441,6.444-13.042,7.387-20.178c1.637-12.381,2.608-25.61,2.072-38.142
	c-0.41-9.574-1.653-20.082-6.418-28.577c-3.183-5.673-8.88-10.257-15.029-10.151c0.145-11.484,0.207-22.976,0.123-34.477
	c5.271,2.317,11.227,3.205,16.674,5.074c9.094,3.12,14.359,10.474,17.543,19.276c3.148,8.706,4.372,17.996,5.356,27.153
	c1.207,11.216,2.2,22.403,2.281,33.693C490.911,260.877,490.173,273.388,488.806,285.82z"/>
<path d="M105.883,66.874c-8.317-0.197-14.442,3.33-18.766,8.771c-2.87,2.208-5.252,5.256-7.017,9.453
	c-4.71,11.205-3.764,23.557-3.975,35.418c-0.163,9.155-1.782,22.146,6.758,28.258c7.107,5.086,19.474,7.011,27.802,4.197
	c17.545-5.926,17.746-30.328,17.238-45.428C127.405,92.142,126.653,67.368,105.883,66.874z M112.097,140.041
	c-4.417,5.373-12.207,4.218-18.157,2.479c-3.587-1.048-6.163-2.096-7.18-5.837c-1.11-4.085-0.941-8.565-0.944-12.766
	c-0.003-5.121-0.32-10.331-0.406-15.525c2.008-11.361,0.573-26.867,13.054-31.063c17.151-5.765,18.55,14.351,19.09,25.958
	C118.074,114.488,119.757,130.723,112.097,140.041z"/>
<g>
</g>
<g>
</g>
<g>
</g>
<g>
</g>
<g>
</g>
<g>
</g>
<g>
</g>
<g>
</g>
<g>
</g>
<g>
</g>
<g>
</g>
<g>
</g>
<g>
</g>
<g>
</g>
<g>
</g>
</svg>
