<?xml version="1.0" encoding="iso-8859-1"?>
<!-- Generator: Adobe Illustrator 19.0.0, SVG Export Plug-In . SVG Version: 6.00 Build 0)  -->
<svg xmlns="http://www.w3.org/2000/svg" xmlns:xlink="http://www.w3.org/1999/xlink" version="1.1" id="Capa_1" x="0px" y="0px" viewBox="0 0 455 455" style="enable-background:new 0 0 455 455;" xml:space="preserve" width="512" height="512">
<g>
	<path style="fill:#FFE3A1;" d="M287.38,7.75c-10.39-2.78-20.9-1.94-30.18,1.75l11.615,67.558L312.64,24.36   C306.45,16.52,297.77,10.54,287.38,7.75z"/>
	<path style="fill:#FFE3A1;" d="M169.483,7.251c-10.388,2.787-19.07,8.77-25.262,16.606l43.838,52.699l11.604-67.55   C190.383,5.311,179.876,4.472,169.483,7.251z"/>
	<path style="fill:#FFE3A1;" d="M67.131,65.767c-7.603,7.608-12.13,17.13-13.574,27.012l64.315,23.72L94.145,52.197   C84.261,53.637,74.742,58.164,67.131,65.767z"/>
	<path style="fill:#FFE3A1;" d="M7.75,167.62c-2.78,10.39-1.94,20.9,1.75,30.18l67.558-11.615L24.36,142.36   C16.52,148.55,10.54,157.23,7.75,167.62z"/>
	<path style="fill:#FFE3A1;" d="M7.251,285.517c2.787,10.388,8.77,19.07,16.606,25.262l52.699-43.838l-67.55-11.604   C5.311,264.617,4.472,275.124,7.251,285.517z"/>
	<path style="fill:#FFE3A1;" d="M65.767,387.869c7.608,7.603,17.13,12.13,27.012,13.574l23.72-64.315l-64.302,23.726   C53.637,370.739,58.164,380.258,65.767,387.869z"/>
	<path style="fill:#FFE3A1;" d="M167.62,447.25c10.39,2.78,20.9,1.94,30.18-1.75l-11.615-67.558L142.36,430.64   C148.55,438.48,157.23,444.46,167.62,447.25z"/>
	<path style="fill:#FFE3A1;" d="M285.517,447.749c10.388-2.787,19.07-8.77,25.262-16.606l-43.838-52.699l-11.604,67.55   C264.617,449.689,275.124,450.528,285.517,447.749z"/>
	<path style="fill:#FFE3A1;" d="M387.869,389.233c7.603-7.608,12.13-17.13,13.574-27.012l-64.315-23.72l23.726,64.302   C370.739,401.363,380.258,396.836,387.869,389.233z"/>
	<path style="fill:#FFE3A1;" d="M447.25,287.38c2.78-10.39,1.94-20.9-1.75-30.18l-67.558,11.615l52.698,43.825   C438.48,306.45,444.46,297.77,447.25,287.38z"/>
	<path style="fill:#FFE3A1;" d="M447.749,169.483c-2.787-10.388-8.77-19.07-16.606-25.262l-52.699,43.838l67.55,11.604   C449.689,190.383,450.528,179.876,447.749,169.483z"/>
	<path style="fill:#FFE3A1;" d="M389.233,67.131c-7.608-7.603-17.13-12.13-27.012-13.574l-23.72,64.315l64.302-23.726   C401.363,84.261,396.836,74.742,389.233,67.131z"/>
	<path style="fill:#FFB914;" d="M445.5,198.8c-8.759-11.758-22.766-19.378-38.563-19.38L358.851,96.15   c7.889-13.67,8.299-29.62,2.489-43.09c-3.94-9.18-10.78-17.2-20.09-22.58c-9.32-5.38-19.69-7.29-29.61-6.11   c-14.57,1.7-28.17,10.03-36.06,23.71l-96.159-0.015c-7.901-13.676-21.506-22.003-36.066-23.709   c-9.922-1.165-20.286,0.743-29.605,6.123c-9.318,5.38-16.153,13.402-20.105,22.577c-5.804,13.465-5.399,29.405,2.498,43.086   L48.065,179.42c-15.794,0.015-29.798,7.623-38.555,19.38C3.53,206.81,0,216.74,0,227.5s3.53,20.69,9.51,28.7   c8.76,11.76,22.77,19.37,38.57,19.37c-0.005,0.003,48.07,83.28,48.07,83.28c-7.89,13.67-8.3,29.62-2.49,43.09   c3.94,9.18,10.78,17.2,20.09,22.58c9.32,5.38,19.69,7.29,29.61,6.11c14.57-1.7,28.17-10.03,36.06-23.71l96.16,0.01   c7.89,13.67,21.49,22,36.06,23.7c9.92,1.18,20.29-0.73,29.61-6.11c9.31-5.38,16.15-13.4,20.09-22.58   c5.81-13.47,5.4-29.42-2.49-43.09l48.084-83.271c15.794-0.005,29.808-7.623,38.565-19.38c5.97-8.01,9.5-17.94,9.5-28.7   S451.47,206.81,445.5,198.8z"/>
	<path style="fill:#FFC743;" d="M179.42,406.935c0.005,15.794,7.623,29.808,19.38,38.565c8.01,5.97,17.94,9.5,28.7,9.5   s20.69-3.53,28.7-9.5c11.758-8.759,19.378-22.766,19.38-38.563L227.5,227.5L179.42,406.935z"/>
	<path style="fill:#FFC743;" d="M275.58,48.065c-0.005-15.794-7.623-29.808-19.38-38.565C248.19,3.53,238.26,0,227.5,0   c-10.76,0-20.69,3.53-28.7,9.5c-11.758,8.759-19.378,22.766-19.38,38.563L227.5,227.5L275.58,48.065z"/>
	<path style="fill:#FFC743;" d="M227.5,227.5l131.35,131.35c13.67,7.89,29.62,8.3,43.09,2.49c9.18-3.94,17.2-10.78,22.58-20.09   c5.38-9.32,7.29-19.69,6.11-29.61c-1.7-14.57-10.03-28.17-23.71-36.06C406.935,275.58,227.5,227.5,227.5,227.5z"/>
	<path style="fill:#FFC743;" d="M227.5,227.5l179.435-48.079c13.671-7.901,21.996-21.496,23.695-36.061   c1.18-9.92-0.73-20.29-6.11-29.61c-5.38-9.31-13.4-16.15-22.58-20.09c-13.47-5.81-29.419-5.4-43.089,2.49L227.5,227.5z"/>
	<path style="fill:#FFC743;" d="M227.5,227.5L96.15,96.15c-13.67-7.89-29.62-8.3-43.09-2.49c-9.18,3.94-17.2,10.78-22.58,20.09   c-5.38,9.32-7.29,19.69-6.11,29.61c1.7,14.57,10.03,28.17,23.71,36.06C48.065,179.42,227.5,227.5,227.5,227.5z"/>
	<path style="fill:#FFC743;" d="M227.5,227.5L48.065,275.579c-13.671,7.901-21.996,21.496-23.695,36.061   c-1.18,9.92,0.73,20.29,6.11,29.61c5.38,9.31,13.4,16.15,22.58,20.09c13.47,5.81,29.42,5.4,43.09-2.49L227.5,227.5z"/>
	<circle style="fill:#FFD572;" cx="227.5" cy="227.5" r="45"/>
</g>















</svg>
