<?xml version="1.0" standalone="no"?>
<!DOCTYPE svg PUBLIC "-//W3C//DTD SVG 20010904//EN"
 "http://www.w3.org/TR/2001/REC-SVG-20010904/DTD/svg10.dtd">
<svg version="1.0" xmlns="http://www.w3.org/2000/svg"
 width="376.000000pt" height="134.000000pt" viewBox="0 0 376.000000 134.000000"
 preserveAspectRatio="xMidYMid meet">

<g transform="translate(0.000000,134.000000) scale(0.100000,-0.100000)"
fill="#000000" stroke="none">
<path d="M177 867 c-97 -95 -177 -179 -177 -188 0 -21 355 -369 376 -369 22 0
368 339 372 364 4 30 -335 366 -370 366 -16 -1 -75 -51 -201 -173z m385 -11
c93 -89 168 -168 168 -178 0 -16 -336 -348 -353 -348 -12 0 -351 329 -355 344
-4 19 346 358 361 350 6 -5 87 -80 179 -168z"/>
<path d="M328 930 c-71 -21 -128 -95 -128 -165 l0 -35 65 0 65 0 0 -45 c0 -55
-12 -57 -56 -10 -52 55 -86 44 -44 -15 23 -32 72 -64 113 -74 l27 -6 0 95 0
95 -65 0 c-36 0 -65 2 -65 5 0 20 32 75 51 89 35 24 39 20 39 -29 0 -38 3 -45
20 -45 18 0 20 7 20 75 0 41 -3 75 -7 74 -5 0 -20 -4 -35 -9z"/>
<path d="M390 760 l0 -180 28 6 c72 17 142 95 142 159 0 24 -3 25 -55 25 -48
0 -55 -2 -55 -20 0 -16 7 -20 30 -20 21 0 30 -5 30 -16 0 -18 -53 -74 -69 -74
-7 0 -11 41 -11 120 0 79 4 120 11 120 16 0 69 -56 69 -74 0 -10 9 -16 25 -16
14 0 25 2 25 5 0 19 -44 87 -67 103 -23 15 -85 42 -99 42 -2 0 -4 -81 -4 -180z"/>
<path d="M190 644 c0 -60 12 -74 62 -74 44 0 83 -31 73 -58 -3 -9 -8 -34 -11
-57 -5 -35 -2 -43 25 -69 l31 -30 0 105 0 105 -43 11 c-50 14 -92 44 -118 87
l-19 31 0 -51z"/>
<path d="M557 673 c-13 -34 -74 -82 -123 -95 l-44 -12 0 -98 c0 -54 4 -98 8
-98 5 0 19 11 32 25 22 23 22 28 11 81 -13 70 -7 79 58 88 61 8 73 22 69 83
-2 37 -5 43 -11 26z"/>
<path d="M2645 948 c-13 -63 -55 -297 -55 -311 0 -13 9 -17 35 -17 26 0 35 4
35 17 0 15 1 15 18 0 22 -20 80 -22 117 -5 31 14 65 75 65 116 0 45 -34 82
-76 82 -20 0 -45 -5 -56 -11 -19 -11 -21 -9 -15 18 3 17 9 53 13 82 l7 51 -42
0 c-34 0 -41 -4 -46 -22z m113 -180 c31 -31 -3 -104 -45 -96 -27 5 -30 61 -4
87 24 24 32 26 49 9z"/>
<path d="M3537 963 c-3 -5 -17 -73 -32 -153 -14 -80 -29 -155 -32 -167 -5 -21
-2 -23 39 -23 43 0 45 1 54 37 12 50 28 51 48 3 16 -39 17 -40 67 -40 l50 0
-36 68 -35 67 46 40 47 41 -48 -2 c-36 -1 -58 -9 -82 -28 -38 -31 -38 -30 -18
77 8 43 15 81 15 83 0 7 -79 4 -83 -3z"/>
<path d="M987 937 c-79 -48 -102 -134 -48 -179 29 -25 66 -42 113 -52 15 -3
34 -14 44 -23 15 -16 15 -18 -6 -35 -29 -23 -55 -23 -80 2 -16 16 -33 20 -81
20 l-61 0 7 -27 c3 -16 19 -41 35 -58 26 -26 38 -30 100 -33 130 -8 212 48
214 144 1 58 -30 88 -107 104 -70 14 -96 32 -81 57 16 26 52 28 79 3 18 -17
32 -21 76 -18 51 3 54 4 51 28 -5 36 -29 69 -58 80 -14 6 -55 10 -92 10 -52 0
-75 -5 -105 -23z"/>
<path d="M1371 826 c-25 -6 -50 -20 -59 -33 -14 -23 -14 -23 32 -23 25 0 55 6
66 12 15 10 22 10 32 0 11 -11 9 -16 -6 -28 -11 -8 -31 -14 -45 -14 -89 0
-139 -45 -107 -95 14 -21 24 -25 62 -25 25 0 54 5 65 10 13 7 19 7 19 0 0 -5
21 -10 46 -10 25 0 43 4 40 8 -2 4 2 39 10 77 23 107 17 117 -76 129 -19 2
-55 -1 -79 -8z m44 -153 c-21 -19 -30 -21 -41 -12 -21 17 -13 31 27 44 44 16
51 0 14 -32z"/>
<path d="M1675 828 c-94 -33 -132 -137 -68 -188 50 -39 164 -18 201 38 14 21
13 22 -26 22 -23 0 -45 -6 -52 -15 -27 -32 -70 -10 -70 35 0 48 53 77 80 45
14 -17 90 -21 90 -4 0 24 -24 52 -55 65 -39 16 -58 17 -100 2z"/>
<path d="M1965 825 c-100 -36 -129 -150 -48 -193 60 -32 155 -3 193 60 27 45
25 72 -7 107 -34 37 -83 46 -138 26z m69 -61 c11 -28 7 -57 -11 -76 -48 -53
-96 23 -51 80 15 17 55 15 62 -4z"/>
<path d="M2446 820 c-35 -17 -42 -18 -56 -5 -22 20 -80 19 -108 -1 -20 -14
-22 -14 -22 0 0 12 -10 16 -38 16 l-37 0 -18 -97 c-10 -54 -17 -101 -17 -105
0 -5 20 -8 44 -8 l44 0 7 58 c9 73 20 94 48 90 24 -3 27 -27 14 -105 l-7 -43
43 0 44 0 11 67 c11 66 24 85 52 80 16 -3 19 -44 8 -109 l-7 -38 44 0 c51 0
54 4 62 110 6 81 1 93 -47 105 -16 3 -39 -2 -64 -15z"/>
<path d="M3005 833 c-41 -8 -71 -24 -83 -43 -11 -19 -9 -20 33 -20 25 0 54 6
65 12 15 10 22 10 32 0 17 -18 -14 -42 -56 -43 -51 -2 -78 -13 -99 -41 -19
-25 -19 -28 -3 -52 14 -22 24 -26 62 -26 25 0 55 5 67 11 16 9 22 9 25 0 2 -6
22 -11 43 -11 22 0 38 4 35 8 -2 4 2 37 9 72 19 87 18 108 -3 119 -21 11 -99
20 -127 14z m20 -160 c-21 -19 -30 -21 -41 -12 -21 17 -13 31 27 44 44 16 51
0 14 -32z"/>
<path d="M3347 829 c-16 -4 -35 -13 -43 -20 -11 -9 -14 -8 -14 5 0 12 -10 16
-39 16 l-39 0 -16 -92 c-9 -51 -19 -99 -21 -106 -4 -10 7 -12 43 -10 l47 3 8
60 c9 66 20 85 47 85 24 0 29 -19 19 -71 -15 -77 -14 -79 34 -79 l44 0 12 81
c11 69 10 84 -3 103 -18 28 -41 35 -79 25z"/>
<path d="M1270 555 c0 -13 142 -15 1242 -13 982 2 1242 6 1246 16 3 9 -250 12
-1242 12 -1102 0 -1246 -2 -1246 -15z"/>
<path d="M1176 512 c-3 -5 1 -9 9 -9 8 0 12 4 9 9 -3 4 -7 8 -9 8 -2 0 -6 -4
-9 -8z"/>
<path d="M2110 510 c0 -5 5 -10 11 -10 5 0 7 5 4 10 -3 6 -8 10 -11 10 -2 0
-4 -4 -4 -10z"/>
<path d="M2455 510 c3 -5 8 -10 11 -10 2 0 4 5 4 10 0 6 -5 10 -11 10 -5 0 -7
-4 -4 -10z"/>
<path d="M890 435 c0 -62 17 -75 22 -17 l3 37 23 -37 c13 -21 28 -38 33 -38 5
0 9 26 9 57 0 59 -16 65 -22 8 l-3 -30 -23 38 c-13 20 -28 37 -33 37 -5 0 -9
-25 -9 -55z"/>
<path d="M1027 472 c-44 -48 5 -110 67 -86 25 10 20 44 -6 43 -20 0 -21 -1 -5
-8 18 -6 18 -8 2 -21 -24 -20 -50 -1 -50 36 0 27 3 29 38 28 30 -1 35 1 26 12
-16 20 -53 17 -72 -4z"/>
<path d="M1155 439 c-24 -53 -25 -79 -1 -46 17 22 52 22 65 0 5 -10 12 -15 15
-12 7 7 -31 96 -44 104 -6 4 -21 -17 -35 -46z m45 -5 c0 -8 -7 -14 -15 -14
-15 0 -21 21 -9 33 10 9 24 -2 24 -19z"/>
<path d="M1260 435 c0 -62 17 -75 22 -17 l3 37 23 -37 c13 -21 28 -38 33 -38
5 0 9 26 9 57 0 59 -16 65 -22 8 l-3 -30 -22 38 c-12 20 -27 37 -33 37 -6 0
-10 -24 -10 -55z"/>
<path d="M1430 436 c0 -31 5 -56 10 -56 6 0 10 11 10 25 0 20 5 25 25 25 20 0
25 -5 25 -25 0 -14 5 -25 10 -25 6 0 10 25 10 55 0 30 -4 55 -10 55 -5 0 -10
-11 -10 -25 0 -20 -5 -25 -25 -25 -18 0 -25 5 -25 19 0 11 -4 23 -10 26 -6 4
-10 -15 -10 -49z"/>
<path d="M1561 438 c-20 -49 -20 -82 0 -45 13 22 48 22 65 0 23 -32 22 -9 -2
45 -12 28 -27 52 -32 52 -5 0 -19 -23 -31 -52z m49 -10 c0 -5 -9 -8 -20 -8
-18 0 -19 3 -9 21 9 17 13 19 20 8 5 -8 9 -17 9 -21z"/>
<path d="M1670 435 c0 -30 5 -55 10 -55 6 0 10 17 10 37 l0 38 25 -38 c14 -20
30 -37 35 -37 13 0 13 97 1 105 -6 3 -11 -12 -13 -32 l-3 -38 -23 38 c-13 20
-28 37 -33 37 -5 0 -9 -25 -9 -55z"/>
<path d="M1808 479 c-21 -12 -24 -69 -6 -87 25 -25 88 -11 88 19 0 14 -7 19
-27 18 -17 -1 -21 -3 -10 -6 21 -6 22 -19 2 -27 -36 -13 -68 31 -44 60 9 11
23 14 48 10 34 -6 35 -5 17 9 -23 17 -44 19 -68 4z"/>
<path d="M1970 475 c-15 -19 3 -45 31 -45 23 0 34 -19 20 -33 -9 -9 -16 -8
-31 1 -27 16 -35 15 -20 -3 16 -19 54 -19 70 0 18 22 6 42 -29 50 -45 10 -39
29 7 21 34 -6 36 -5 18 9 -25 19 -50 19 -66 0z"/>
<path d="M2096 457 c-23 -56 -28 -77 -18 -77 6 0 12 7 16 15 7 20 46 19 62 -2
7 -10 14 -13 14 -7 0 20 -40 104 -50 104 -6 0 -16 -15 -24 -33z m37 -17 c4
-15 0 -20 -13 -20 -13 0 -17 5 -13 20 3 11 9 20 13 20 4 0 10 -9 13 -20z"/>
<path d="M2197 483 c-11 -10 -8 -91 3 -98 6 -4 10 15 10 49 0 57 -1 61 -13 49z"/>
<path d="M2306 477 c-21 -16 -24 -60 -6 -82 23 -28 90 -16 90 16 0 14 -7 19
-27 18 -17 -1 -21 -3 -10 -6 21 -6 22 -19 2 -27 -36 -13 -68 31 -44 60 9 11
23 14 48 10 34 -6 35 -5 17 9 -24 19 -47 19 -70 2z"/>
<path d="M2430 470 c-24 -24 -25 -38 -4 -68 17 -24 62 -30 82 -10 20 20 15 76
-7 88 -29 15 -49 12 -71 -10z m68 -36 c2 -21 -2 -33 -12 -37 -34 -13 -62 17
-50 55 4 14 13 18 32 16 22 -2 28 -9 30 -34z"/>
<path d="M2552 433 c1 -43 2 -48 5 -20 5 46 15 47 39 2 27 -51 44 -45 44 14 0
28 -4 53 -10 56 -6 4 -10 -11 -10 -37 l0 -43 -28 42 c-15 24 -30 43 -34 43 -5
0 -7 -26 -6 -57z"/>
<path d="M2710 480 c0 -5 7 -10 15 -10 11 0 15 -12 15 -45 0 -25 5 -45 10 -45
6 0 10 20 10 45 0 33 4 45 15 45 8 0 15 5 15 10 0 6 -18 10 -40 10 -22 0 -40
-4 -40 -10z"/>
<path d="M2820 435 c0 -36 4 -54 10 -50 6 4 9 14 8 23 -2 12 5 18 25 20 23 3
27 0 27 -22 0 -14 5 -26 10 -26 6 0 10 22 10 49 0 28 -4 53 -10 56 -6 4 -10
-5 -10 -20 0 -23 -4 -26 -27 -23 -20 2 -27 8 -25 20 1 9 -2 19 -8 23 -6 4 -10
-14 -10 -50z"/>
<path d="M2942 440 c3 -53 4 -55 33 -58 19 -3 33 2 42 14 15 21 17 80 3 89 -6
4 -10 -9 -10 -33 0 -75 -51 -81 -55 -7 -1 20 -5 39 -9 43 -4 3 -6 -18 -4 -48z"/>
<path d="M3043 472 c1 -14 5 -18 11 -12 7 7 6 14 -1 21 -9 9 -12 7 -10 -9z"/>
<path d="M3087 472 c-34 -37 -11 -92 38 -92 52 0 74 65 33 94 -29 21 -51 20
-71 -2z m68 -36 c0 -36 -26 -56 -49 -37 -16 14 -22 52 -9 65 4 4 19 6 33 4 20
-2 25 -8 25 -32z"/>
<path d="M3180 481 c0 -6 5 -13 10 -16 6 -3 10 1 10 9 0 9 -4 16 -10 16 -5 0
-10 -4 -10 -9z"/>
<path d="M3221 433 c2 -54 2 -55 8 -18 l6 40 25 -37 c35 -53 50 -49 50 11 0
28 -4 53 -10 56 -6 4 -10 -11 -10 -37 l0 -43 -28 42 c-15 24 -30 43 -34 43 -5
0 -7 -26 -7 -57z"/>
<path d="M3350 470 c-24 -24 -25 -38 -4 -68 24 -34 94 -28 94 9 0 14 -7 19
-27 18 -17 -1 -21 -3 -10 -6 21 -6 22 -19 2 -27 -34 -13 -61 19 -49 57 5 16
12 18 40 14 35 -6 47 6 18 17 -27 10 -43 7 -64 -14z"/>
<path d="M3510 480 c0 -5 7 -10 15 -10 11 0 15 -12 15 -45 0 -25 5 -45 10 -45
6 0 10 20 10 45 0 33 4 45 15 45 8 0 15 5 15 10 0 6 -18 10 -40 10 -22 0 -40
-4 -40 -10z"/>
<path d="M3617 483 c-11 -10 -8 -103 3 -103 6 0 10 25 10 55 0 56 -1 60 -13
48z"/>
<path d="M3660 435 c0 -30 5 -55 10 -55 6 0 10 17 10 37 l0 38 25 -38 c14 -20
30 -37 35 -37 6 0 10 26 10 57 0 59 -16 65 -22 8 l-3 -30 -23 38 c-13 20 -28
37 -33 37 -5 0 -9 -25 -9 -55z"/>
</g>
</svg>
