<?xml version="1.0" encoding="iso-8859-1"?>
<!-- Generator: Adobe Illustrator 19.0.0, SVG Export Plug-In . SVG Version: 6.00 Build 0)  -->
<svg version="1.1" id="Layer_1" xmlns="http://www.w3.org/2000/svg" xmlns:xlink="http://www.w3.org/1999/xlink" x="0px" y="0px"
	 viewBox="0 0 512 512" style="enable-background:new 0 0 512 512;" xml:space="preserve">
<path style="fill:#FFDB80;" d="M308.893,12.394l-17.665,154.563l-6.36,55.651l-19.081,166.958v100.174
	c0,12.295-9.966,22.261-22.261,22.261H108.619H65.439c-12.295,0-22.261-9.966-22.261-22.261V389.565L0.073,12.394
	C-0.681,5.789,4.484,0,11.131,0h286.702C304.482,0,309.648,5.789,308.893,12.394z"/>
<path style="fill:#DDAC5E;" d="M142.01,389.565h123.778v100.174c0,12.295-9.966,22.261-22.261,22.261H108.619H65.439
	c-12.295,0-22.261-9.966-22.261-22.261V389.565H142.01z"/>
<path style="fill:#967A56;" d="M267.13,411.826H44.522v-22.261H267.13V411.826z"/>
<path style="fill:#FFEB99;" d="M258.965,0l-26.544,274.283c-3.885,40.136-37.615,70.761-77.939,70.761l0,0
	c-40.324,0-74.055-30.624-77.939-70.761L50,0H258.965z"/>
<path style="fill:#967A56;" d="M237.961,89.043c0,15.368-12.458,27.826-27.826,27.826c-0.875,0-1.74-0.046-2.593-0.125
	c1.681,5.307,2.593,10.957,2.593,16.82c0,30.736-24.917,55.652-55.652,55.652S98.83,164.301,98.83,133.565
	c0-5.864,0.913-11.513,2.593-16.82c-0.855,0.079-1.719,0.125-2.593,0.125c-15.368,0-27.826-12.458-27.826-27.826
	S83.463,61.217,98.83,61.217c14.17,0,25.857,10.594,27.595,24.292c8.24-4.821,17.822-7.597,28.058-7.597s19.818,2.776,28.058,7.597
	c1.737-13.698,13.424-24.292,27.595-24.292C225.503,61.217,237.961,73.676,237.961,89.043z"/>
<path style="fill:#88A3A0;" d="M512,189.217V256v222.609C512,497.051,497.051,512,478.609,512H200.348
	c-18.442,0-33.391-14.949-33.391-33.391V256v-66.783c0-12.295,9.966-22.261,22.261-22.261h300.522
	C502.034,166.957,512,176.923,512,189.217z"/>
<path style="fill:#A4BDBB;" d="M339.478,467.478L339.478,467.478c-70.693,0-128-57.307-128-128V233.739h256v105.739
	C467.478,410.171,410.171,467.478,339.478,467.478z"/>
<path style="fill:#FFDB80;" d="M349.236,307.409l15.396,19.661l23.456,8.567c7.56,2.761,10.524,11.884,6.03,18.561l-13.941,20.718
	l-0.899,24.956c-0.289,8.043-8.05,13.682-15.789,11.471l-24.012-6.856l-24.012,6.856c-7.739,2.209-15.499-3.428-15.789-11.471
	l-0.899-24.956l-13.941-20.718c-4.493-6.677-1.529-15.8,6.03-18.561l23.456-8.567l15.396-19.661
	C334.682,301.072,344.274,301.072,349.236,307.409z"/>
<path style="fill:#7A9390;" d="M166.956,256v-66.783c0-12.295,9.966-22.261,22.261-22.261h300.522
	c12.295,0,22.261,9.966,22.261,22.261V256H166.956z"/>
<path style="fill:#53605F;" d="M512,256H166.956v-22.261H512V256z"/>
<g>
</g>
<g>
</g>
<g>
</g>
<g>
</g>
<g>
</g>
<g>
</g>
<g>
</g>
<g>
</g>
<g>
</g>
<g>
</g>
<g>
</g>
<g>
</g>
<g>
</g>
<g>
</g>
<g>
</g>
</svg>
